G04 #@! TF.FileFunction,Copper,L2,Bot,Signal*
%FSLAX46Y46*%
G04 Gerber Fmt 4.6, Leading zero omitted, Abs format (unit mm)*
G04 Created by KiCad (PCBNEW (2015-04-22 BZR 5620)-product) date 26/04/2015 14:37:40*
%MOMM*%
G01*
G04 APERTURE LIST*
%ADD10C,0.100000*%
%ADD11C,0.200000*%
%ADD12O,2.032000X1.727200*%
%ADD13R,1.397000X1.397000*%
%ADD14C,1.397000*%
%ADD15R,2.286000X1.574800*%
%ADD16O,2.286000X1.574800*%
%ADD17O,1.727200X2.032000*%
%ADD18C,4.500000*%
%ADD19R,1.727200X1.727200*%
%ADD20O,1.727200X1.727200*%
%ADD21C,0.889000*%
%ADD22C,0.254000*%
G04 APERTURE END LIST*
D10*
D11*
X231505143Y-100331714D02*
X231267048Y-100998381D01*
X231028952Y-100331714D01*
X230457524Y-99998381D02*
X230362285Y-99998381D01*
X230267047Y-100046000D01*
X230219428Y-100093619D01*
X230171809Y-100188857D01*
X230124190Y-100379333D01*
X230124190Y-100617429D01*
X230171809Y-100807905D01*
X230219428Y-100903143D01*
X230267047Y-100950762D01*
X230362285Y-100998381D01*
X230457524Y-100998381D01*
X230552762Y-100950762D01*
X230600381Y-100903143D01*
X230648000Y-100807905D01*
X230695619Y-100617429D01*
X230695619Y-100379333D01*
X230648000Y-100188857D01*
X230600381Y-100093619D01*
X230552762Y-100046000D01*
X230457524Y-99998381D01*
X229695619Y-100903143D02*
X229648000Y-100950762D01*
X229695619Y-100998381D01*
X229743238Y-100950762D01*
X229695619Y-100903143D01*
X229695619Y-100998381D01*
X228695619Y-100998381D02*
X229267048Y-100998381D01*
X228981334Y-100998381D02*
X228981334Y-99998381D01*
X229076572Y-100141238D01*
X229171810Y-100236476D01*
X229267048Y-100284095D01*
X231457524Y-101693619D02*
X231409905Y-101646000D01*
X231314667Y-101598381D01*
X231076571Y-101598381D01*
X230981333Y-101646000D01*
X230933714Y-101693619D01*
X230886095Y-101788857D01*
X230886095Y-101884095D01*
X230933714Y-102026952D01*
X231505143Y-102598381D01*
X230886095Y-102598381D01*
X230267048Y-101598381D02*
X230171809Y-101598381D01*
X230076571Y-101646000D01*
X230028952Y-101693619D01*
X229981333Y-101788857D01*
X229933714Y-101979333D01*
X229933714Y-102217429D01*
X229981333Y-102407905D01*
X230028952Y-102503143D01*
X230076571Y-102550762D01*
X230171809Y-102598381D01*
X230267048Y-102598381D01*
X230362286Y-102550762D01*
X230409905Y-102503143D01*
X230457524Y-102407905D01*
X230505143Y-102217429D01*
X230505143Y-101979333D01*
X230457524Y-101788857D01*
X230409905Y-101693619D01*
X230362286Y-101646000D01*
X230267048Y-101598381D01*
X228981333Y-102598381D02*
X229552762Y-102598381D01*
X229267048Y-102598381D02*
X229267048Y-101598381D01*
X229362286Y-101741238D01*
X229457524Y-101836476D01*
X229552762Y-101884095D01*
X228076571Y-101598381D02*
X228552762Y-101598381D01*
X228600381Y-102074571D01*
X228552762Y-102026952D01*
X228457524Y-101979333D01*
X228219428Y-101979333D01*
X228124190Y-102026952D01*
X228076571Y-102074571D01*
X228028952Y-102169810D01*
X228028952Y-102407905D01*
X228076571Y-102503143D01*
X228124190Y-102550762D01*
X228219428Y-102598381D01*
X228457524Y-102598381D01*
X228552762Y-102550762D01*
X228600381Y-102503143D01*
X227600381Y-102217429D02*
X226838476Y-102217429D01*
X226171810Y-101598381D02*
X226076571Y-101598381D01*
X225981333Y-101646000D01*
X225933714Y-101693619D01*
X225886095Y-101788857D01*
X225838476Y-101979333D01*
X225838476Y-102217429D01*
X225886095Y-102407905D01*
X225933714Y-102503143D01*
X225981333Y-102550762D01*
X226076571Y-102598381D01*
X226171810Y-102598381D01*
X226267048Y-102550762D01*
X226314667Y-102503143D01*
X226362286Y-102407905D01*
X226409905Y-102217429D01*
X226409905Y-101979333D01*
X226362286Y-101788857D01*
X226314667Y-101693619D01*
X226267048Y-101646000D01*
X226171810Y-101598381D01*
X224981333Y-101931714D02*
X224981333Y-102598381D01*
X225219429Y-101550762D02*
X225457524Y-102265048D01*
X224838476Y-102265048D01*
X224457524Y-102217429D02*
X223695619Y-102217429D01*
X223267048Y-101693619D02*
X223219429Y-101646000D01*
X223124191Y-101598381D01*
X222886095Y-101598381D01*
X222790857Y-101646000D01*
X222743238Y-101693619D01*
X222695619Y-101788857D01*
X222695619Y-101884095D01*
X222743238Y-102026952D01*
X223314667Y-102598381D01*
X222695619Y-102598381D01*
X221838476Y-101598381D02*
X222028953Y-101598381D01*
X222124191Y-101646000D01*
X222171810Y-101693619D01*
X222267048Y-101836476D01*
X222314667Y-102026952D01*
X222314667Y-102407905D01*
X222267048Y-102503143D01*
X222219429Y-102550762D01*
X222124191Y-102598381D01*
X221933714Y-102598381D01*
X221838476Y-102550762D01*
X221790857Y-102503143D01*
X221743238Y-102407905D01*
X221743238Y-102169810D01*
X221790857Y-102074571D01*
X221838476Y-102026952D01*
X221933714Y-101979333D01*
X222124191Y-101979333D01*
X222219429Y-102026952D01*
X222267048Y-102074571D01*
X222314667Y-102169810D01*
D12*
X202565000Y-103632000D03*
X202565000Y-106172000D03*
X202565000Y-108712000D03*
X202565000Y-111252000D03*
X202565000Y-113792000D03*
X202565000Y-116332000D03*
X213995000Y-103632000D03*
X213995000Y-106172000D03*
X213995000Y-108712000D03*
X213995000Y-111252000D03*
X213995000Y-113792000D03*
X213995000Y-116332000D03*
D13*
X190246000Y-112268000D03*
D14*
X197866000Y-112268000D03*
D15*
X212090000Y-93980000D03*
D16*
X212090000Y-91440000D03*
X212090000Y-88900000D03*
X212090000Y-86360000D03*
X212090000Y-83820000D03*
X212090000Y-81280000D03*
X212090000Y-78740000D03*
X212090000Y-76200000D03*
X212090000Y-73660000D03*
X212090000Y-71120000D03*
X204470000Y-71120000D03*
X204470000Y-73660000D03*
X204470000Y-76200000D03*
X204470000Y-78740000D03*
X204470000Y-81280000D03*
X204470000Y-83820000D03*
X204470000Y-86360000D03*
X204470000Y-88900000D03*
X204470000Y-91440000D03*
X204470000Y-93980000D03*
D12*
X201930000Y-93980000D03*
X201930000Y-91440000D03*
X201930000Y-88900000D03*
X201930000Y-81280000D03*
X201930000Y-78740000D03*
X201930000Y-76200000D03*
X201930000Y-73660000D03*
X201930000Y-71120000D03*
D17*
X201930000Y-51371500D03*
X204470000Y-51371500D03*
X207010000Y-51371500D03*
D18*
X197970140Y-103378000D03*
X191970660Y-103378000D03*
X194970400Y-108077000D03*
D12*
X223520000Y-119253000D03*
X223520000Y-116713000D03*
X223520000Y-114173000D03*
X214630000Y-93980000D03*
X214630000Y-91440000D03*
X214630000Y-88900000D03*
X214630000Y-86360000D03*
X214630000Y-83820000D03*
X214630000Y-81280000D03*
X214630000Y-78740000D03*
X214630000Y-76200000D03*
X214630000Y-73660000D03*
X214630000Y-71120000D03*
D19*
X200660000Y-59944000D03*
D20*
X200660000Y-57404000D03*
X203200000Y-59944000D03*
X203200000Y-57404000D03*
X205740000Y-59944000D03*
X205740000Y-57404000D03*
X208280000Y-59944000D03*
X208280000Y-57404000D03*
X210820000Y-59944000D03*
X210820000Y-57404000D03*
X213360000Y-59944000D03*
X213360000Y-57404000D03*
X215900000Y-59944000D03*
X215900000Y-57404000D03*
D21*
X205105000Y-65659000D03*
X218694000Y-108966000D03*
X218948000Y-119634000D03*
X218948000Y-122301000D03*
X217868500Y-100012500D03*
X218440000Y-105537000D03*
X218821000Y-103124000D03*
X199771000Y-68326000D03*
X213868000Y-124968000D03*
X211518500Y-101282500D03*
X209804000Y-104584500D03*
X208216500Y-107442000D03*
X207264000Y-109982000D03*
X206248000Y-96710500D03*
X205486000Y-67945000D03*
D22*
X191970660Y-103378000D02*
X191970660Y-105077260D01*
X191970660Y-105077260D02*
X194970400Y-108077000D01*
X203200000Y-111252000D02*
X201549000Y-111252000D01*
X198374000Y-108077000D02*
X194970400Y-108077000D01*
X201549000Y-111252000D02*
X198374000Y-108077000D01*
X218948000Y-119634000D02*
X218948000Y-122301000D01*
X218821000Y-105156000D02*
X218440000Y-105537000D01*
X218821000Y-103124000D02*
X218821000Y-105156000D01*
X201295000Y-83820000D02*
X204470000Y-83820000D01*
X200279000Y-82804000D02*
X201295000Y-83820000D01*
X200279000Y-68834000D02*
X200279000Y-82804000D01*
X199771000Y-68326000D02*
X200279000Y-68834000D01*
X213868000Y-124968000D02*
X218059000Y-124968000D01*
X218059000Y-124968000D02*
X220980000Y-122047000D01*
X220980000Y-122047000D02*
X220980000Y-117856000D01*
X220980000Y-117856000D02*
X222123000Y-116713000D01*
X222123000Y-116713000D02*
X223520000Y-116713000D01*
X204152500Y-105219500D02*
X204152500Y-114427000D01*
X204152500Y-114427000D02*
X206057500Y-116332000D01*
X206057500Y-116332000D02*
X213995000Y-116332000D01*
X202565000Y-103632000D02*
X204152500Y-105219500D01*
X211518500Y-101282500D02*
X216217500Y-96583500D01*
X216217500Y-96583500D02*
X216217500Y-90487500D01*
X216217500Y-90487500D02*
X214630000Y-88900000D01*
X209804000Y-104584500D02*
X209804000Y-104521000D01*
X209804000Y-104521000D02*
X209804000Y-83566000D01*
X209804000Y-83566000D02*
X212090000Y-81280000D01*
X208216500Y-107442000D02*
X208280000Y-107378500D01*
X208280000Y-107378500D02*
X208280000Y-80010000D01*
X208280000Y-80010000D02*
X212090000Y-76200000D01*
X204851000Y-81280000D02*
X204470000Y-81280000D01*
X207264000Y-109982000D02*
X207264000Y-83693000D01*
X207264000Y-83693000D02*
X204851000Y-81280000D01*
X211201000Y-103632000D02*
X210439000Y-102870000D01*
X210439000Y-102870000D02*
X210439000Y-88011000D01*
X210439000Y-88011000D02*
X212090000Y-86360000D01*
X213995000Y-103632000D02*
X211201000Y-103632000D01*
X209867500Y-106172000D02*
X208851500Y-105156000D01*
X208851500Y-105156000D02*
X208851500Y-81978500D01*
X208851500Y-81978500D02*
X212090000Y-78740000D01*
X213995000Y-106172000D02*
X209867500Y-106172000D01*
X208216500Y-113792000D02*
X206248000Y-111823500D01*
X206248000Y-111823500D02*
X206248000Y-96710500D01*
X213995000Y-113792000D02*
X208216500Y-113792000D01*
X203200000Y-55181500D02*
X203200000Y-57404000D01*
X207010000Y-51371500D02*
X203200000Y-55181500D01*
X208280000Y-59944000D02*
X208280000Y-65151000D01*
X208280000Y-65151000D02*
X205486000Y-67945000D01*
G36*
X232360000Y-104106495D02*
X231898177Y-108816525D01*
X230540031Y-113314924D01*
X228334008Y-117463850D01*
X225364132Y-121105276D01*
X225178951Y-121258471D01*
X225178951Y-119263462D01*
X225152444Y-118972190D01*
X225069866Y-118691615D01*
X224934363Y-118432422D01*
X224751097Y-118204485D01*
X224527048Y-118016485D01*
X224467413Y-117983700D01*
X224509701Y-117961216D01*
X224736353Y-117776363D01*
X224922784Y-117551006D01*
X225061892Y-117293731D01*
X225148379Y-117014335D01*
X225178951Y-116723462D01*
X225152444Y-116432190D01*
X225069866Y-116151615D01*
X224934363Y-115892422D01*
X224751097Y-115664485D01*
X224527048Y-115476485D01*
X224467413Y-115443700D01*
X224509701Y-115421216D01*
X224736353Y-115236363D01*
X224922784Y-115011006D01*
X225061892Y-114753731D01*
X225148379Y-114474335D01*
X225178951Y-114183462D01*
X225152444Y-113892190D01*
X225069866Y-113611615D01*
X224934363Y-113352422D01*
X224751097Y-113124485D01*
X224527048Y-112936485D01*
X224270749Y-112795584D01*
X223991964Y-112707148D01*
X223701312Y-112674546D01*
X223680388Y-112674400D01*
X223359612Y-112674400D01*
X223068532Y-112702941D01*
X222788540Y-112787475D01*
X222530299Y-112924784D01*
X222303647Y-113109637D01*
X222117216Y-113334994D01*
X221978108Y-113592269D01*
X221891621Y-113871665D01*
X221861049Y-114162538D01*
X221887556Y-114453810D01*
X221970134Y-114734385D01*
X222105637Y-114993578D01*
X222288903Y-115221515D01*
X222512952Y-115409515D01*
X222572586Y-115442299D01*
X222530299Y-115464784D01*
X222303647Y-115649637D01*
X222117216Y-115874994D01*
X222073495Y-115955853D01*
X222052890Y-115957874D01*
X221982829Y-115964004D01*
X221978985Y-115965120D01*
X221974993Y-115965512D01*
X221907552Y-115985873D01*
X221840018Y-116005494D01*
X221836462Y-116007337D01*
X221832624Y-116008496D01*
X221770446Y-116041556D01*
X221707986Y-116073933D01*
X221704855Y-116076431D01*
X221701316Y-116078314D01*
X221646769Y-116122800D01*
X221591760Y-116166714D01*
X221586185Y-116172212D01*
X221586069Y-116172307D01*
X221585979Y-116172414D01*
X221584185Y-116174185D01*
X220441185Y-117317185D01*
X220396487Y-117371599D01*
X220351264Y-117425495D01*
X220349335Y-117429002D01*
X220346789Y-117432103D01*
X220313510Y-117494168D01*
X220279619Y-117555816D01*
X220278407Y-117559636D01*
X220276514Y-117563167D01*
X220255939Y-117630464D01*
X220234652Y-117697571D01*
X220234205Y-117701554D01*
X220233034Y-117705385D01*
X220225924Y-117775372D01*
X220218074Y-117845361D01*
X220218019Y-117853197D01*
X220218005Y-117853340D01*
X220218017Y-117853473D01*
X220218000Y-117856000D01*
X220218000Y-121731370D01*
X219900546Y-122048824D01*
X219900546Y-103018150D01*
X219859426Y-102810481D01*
X219778754Y-102614753D01*
X219661600Y-102438423D01*
X219512428Y-102288207D01*
X219336921Y-102169825D01*
X219141761Y-102087788D01*
X218934384Y-102045219D01*
X218722689Y-102043741D01*
X218514738Y-102083410D01*
X218318452Y-102162715D01*
X218141308Y-102278634D01*
X217990054Y-102426753D01*
X217870450Y-102601431D01*
X217787052Y-102796012D01*
X217743037Y-103003087D01*
X217740081Y-103214767D01*
X217778297Y-103422990D01*
X217856230Y-103619825D01*
X217970910Y-103797773D01*
X218059000Y-103888993D01*
X218059000Y-104526606D01*
X217937452Y-104575715D01*
X217760308Y-104691634D01*
X217609054Y-104839753D01*
X217489450Y-105014431D01*
X217406052Y-105209012D01*
X217362037Y-105416087D01*
X217359081Y-105627767D01*
X217397297Y-105835990D01*
X217475230Y-106032825D01*
X217589910Y-106210773D01*
X217736969Y-106363058D01*
X217910807Y-106483879D01*
X218104802Y-106568633D01*
X218311564Y-106614093D01*
X218523219Y-106618526D01*
X218731704Y-106581765D01*
X218929077Y-106505208D01*
X219107822Y-106391773D01*
X219261130Y-106245780D01*
X219383161Y-106072790D01*
X219469268Y-105879392D01*
X219516170Y-105672952D01*
X219519139Y-105460261D01*
X219521381Y-105456184D01*
X219522592Y-105452363D01*
X219524486Y-105448833D01*
X219545060Y-105381535D01*
X219566348Y-105314429D01*
X219566794Y-105310445D01*
X219567966Y-105306615D01*
X219575075Y-105236627D01*
X219582926Y-105166639D01*
X219582980Y-105158802D01*
X219582995Y-105158660D01*
X219582982Y-105158526D01*
X219583000Y-105156000D01*
X219583000Y-103889088D01*
X219642130Y-103832780D01*
X219764161Y-103659790D01*
X219850268Y-103466392D01*
X219897170Y-103259952D01*
X219900546Y-103018150D01*
X219900546Y-122048824D01*
X217743370Y-124206000D01*
X214632708Y-124206000D01*
X214559428Y-124132207D01*
X214383921Y-124013825D01*
X214188761Y-123931788D01*
X213981384Y-123889219D01*
X213769689Y-123887741D01*
X213561738Y-123927410D01*
X213365452Y-124006715D01*
X213188308Y-124122634D01*
X213037054Y-124270753D01*
X212917450Y-124445431D01*
X212834052Y-124640012D01*
X212790037Y-124847087D01*
X212787081Y-125058767D01*
X212825297Y-125266990D01*
X212903230Y-125463825D01*
X213017910Y-125641773D01*
X213164969Y-125794058D01*
X213338807Y-125914879D01*
X213532802Y-125999633D01*
X213739564Y-126045093D01*
X213951219Y-126049526D01*
X214159704Y-126012765D01*
X214357077Y-125936208D01*
X214535822Y-125822773D01*
X214633243Y-125730000D01*
X218059000Y-125730000D01*
X218129113Y-125723125D01*
X218199170Y-125716996D01*
X218203012Y-125715879D01*
X218207007Y-125715488D01*
X218274459Y-125695122D01*
X218341982Y-125675506D01*
X218345537Y-125673662D01*
X218349376Y-125672504D01*
X218411553Y-125639443D01*
X218474014Y-125607067D01*
X218477144Y-125604568D01*
X218480684Y-125602686D01*
X218535230Y-125558199D01*
X218590240Y-125514286D01*
X218595814Y-125508787D01*
X218595931Y-125508693D01*
X218596020Y-125508585D01*
X218597815Y-125506815D01*
X221518815Y-122585815D01*
X221563512Y-122531400D01*
X221608736Y-122477505D01*
X221610664Y-122473997D01*
X221613211Y-122470897D01*
X221646509Y-122408796D01*
X221680381Y-122347184D01*
X221681591Y-122343368D01*
X221683487Y-122339833D01*
X221704088Y-122272448D01*
X221725348Y-122205429D01*
X221725794Y-122201451D01*
X221726967Y-122197615D01*
X221734080Y-122127577D01*
X221741926Y-122057639D01*
X221741980Y-122049802D01*
X221741995Y-122049660D01*
X221741982Y-122049526D01*
X221742000Y-122047000D01*
X221742000Y-118171630D01*
X222227938Y-117685691D01*
X222288903Y-117761515D01*
X222512952Y-117949515D01*
X222572586Y-117982299D01*
X222530299Y-118004784D01*
X222303647Y-118189637D01*
X222117216Y-118414994D01*
X221978108Y-118672269D01*
X221891621Y-118951665D01*
X221861049Y-119242538D01*
X221887556Y-119533810D01*
X221970134Y-119814385D01*
X222105637Y-120073578D01*
X222288903Y-120301515D01*
X222512952Y-120489515D01*
X222769251Y-120630416D01*
X223048036Y-120718852D01*
X223338688Y-120751454D01*
X223359612Y-120751600D01*
X223680388Y-120751600D01*
X223971468Y-120723059D01*
X224251460Y-120638525D01*
X224509701Y-120501216D01*
X224736353Y-120316363D01*
X224922784Y-120091006D01*
X225061892Y-119833731D01*
X225148379Y-119554335D01*
X225178951Y-119263462D01*
X225178951Y-121258471D01*
X221743527Y-124100501D01*
X217610103Y-126335435D01*
X213121292Y-127724955D01*
X208448084Y-128216127D01*
X203768472Y-127790250D01*
X200855263Y-126932845D01*
X200855263Y-103095111D01*
X200745370Y-102540109D01*
X200529769Y-102017021D01*
X200216672Y-101545773D01*
X199818006Y-101144314D01*
X199348955Y-100827935D01*
X198827386Y-100608687D01*
X198273164Y-100494922D01*
X197707400Y-100490972D01*
X197151644Y-100596988D01*
X196627064Y-100808932D01*
X196153641Y-101118731D01*
X195749409Y-101514585D01*
X195429763Y-101981416D01*
X195206879Y-102501442D01*
X195089248Y-103054856D01*
X195081348Y-103620579D01*
X195183482Y-104177061D01*
X195391758Y-104703108D01*
X195698245Y-105178682D01*
X195840420Y-105325908D01*
X195523007Y-105231199D01*
X194957201Y-105178072D01*
X194869588Y-105187103D01*
X194391902Y-105236348D01*
X194098942Y-105326674D01*
X193996001Y-105223733D01*
X194388364Y-104977584D01*
X194653972Y-104475178D01*
X194816461Y-103930607D01*
X194869588Y-103364801D01*
X194811312Y-102799502D01*
X194643870Y-102256434D01*
X194388364Y-101778416D01*
X193996000Y-101532265D01*
X193816395Y-101711870D01*
X193816395Y-101352660D01*
X193570244Y-100960296D01*
X193067838Y-100694688D01*
X192523267Y-100532199D01*
X191957461Y-100479072D01*
X191392162Y-100537348D01*
X190849094Y-100704790D01*
X190371076Y-100960296D01*
X190124925Y-101352660D01*
X191970660Y-103198395D01*
X193816395Y-101352660D01*
X193816395Y-101711870D01*
X192150265Y-103378000D01*
X192164407Y-103392142D01*
X191984802Y-103571747D01*
X191970660Y-103557605D01*
X191791055Y-103737210D01*
X191791055Y-103378000D01*
X189945320Y-101532265D01*
X189552956Y-101778416D01*
X189287348Y-102280822D01*
X189124859Y-102825393D01*
X189071732Y-103391199D01*
X189130008Y-103956498D01*
X189297450Y-104499566D01*
X189552956Y-104977584D01*
X189945320Y-105223735D01*
X191791055Y-103378000D01*
X191791055Y-103737210D01*
X190124925Y-105403340D01*
X190371076Y-105795704D01*
X190873482Y-106061312D01*
X191418053Y-106223801D01*
X191983859Y-106276928D01*
X192549158Y-106218652D01*
X192842117Y-106128325D01*
X192945058Y-106231266D01*
X192552696Y-106477416D01*
X192287088Y-106979822D01*
X192124599Y-107524393D01*
X192071472Y-108090199D01*
X192129748Y-108655498D01*
X192297190Y-109198566D01*
X192552696Y-109676584D01*
X192945060Y-109922735D01*
X194790795Y-108077000D01*
X194776652Y-108062857D01*
X194956257Y-107883252D01*
X194970400Y-107897395D01*
X194984542Y-107883252D01*
X195164147Y-108062857D01*
X195150005Y-108077000D01*
X196995740Y-109922735D01*
X197388104Y-109676584D01*
X197653712Y-109174178D01*
X197816201Y-108629607D01*
X197869328Y-108063801D01*
X197811052Y-107498502D01*
X197643610Y-106955434D01*
X197388104Y-106477416D01*
X196995741Y-106231266D01*
X197088757Y-106138250D01*
X197626892Y-106256566D01*
X198192545Y-106268415D01*
X198749728Y-106170169D01*
X199277216Y-105965570D01*
X199754917Y-105662411D01*
X200164638Y-105272240D01*
X200490770Y-104809917D01*
X200720893Y-104293054D01*
X200846240Y-103741336D01*
X200855263Y-103095111D01*
X200855263Y-126932845D01*
X199260702Y-126463541D01*
X199199557Y-126431575D01*
X199199557Y-112137244D01*
X199148762Y-111880711D01*
X199049107Y-111638931D01*
X198904388Y-111421111D01*
X198720118Y-111235549D01*
X198503314Y-111089313D01*
X198262235Y-110987973D01*
X198006063Y-110935388D01*
X197869328Y-110934433D01*
X197744557Y-110933563D01*
X197487676Y-110982565D01*
X197245206Y-111080530D01*
X197026381Y-111223725D01*
X196839537Y-111406695D01*
X196816135Y-111440872D01*
X196816135Y-110102340D01*
X194970400Y-108256605D01*
X194790795Y-108436210D01*
X193124665Y-110102340D01*
X193370816Y-110494704D01*
X193873222Y-110760312D01*
X194417793Y-110922801D01*
X194983599Y-110975928D01*
X195548898Y-110917652D01*
X196091966Y-110750210D01*
X196569984Y-110494704D01*
X196816135Y-110102340D01*
X196816135Y-111440872D01*
X196691791Y-111622473D01*
X196588770Y-111862839D01*
X196534399Y-112118637D01*
X196530747Y-112380124D01*
X196577955Y-112637341D01*
X196674225Y-112880489D01*
X196815888Y-113100308D01*
X196997550Y-113288425D01*
X197212291Y-113437674D01*
X197451932Y-113542370D01*
X197707344Y-113598526D01*
X197968800Y-113604003D01*
X198226340Y-113558592D01*
X198470154Y-113464022D01*
X198690957Y-113323897D01*
X198880337Y-113143552D01*
X199031081Y-112929858D01*
X199137448Y-112690955D01*
X199195386Y-112435941D01*
X199199557Y-112137244D01*
X199199557Y-126431575D01*
X195096477Y-124286536D01*
X191582572Y-121461283D01*
X191582572Y-112966500D01*
X191582572Y-111569500D01*
X191574197Y-111466457D01*
X191520727Y-111295459D01*
X191421826Y-111146066D01*
X191285292Y-111030058D01*
X191121889Y-110956581D01*
X190944500Y-110931428D01*
X189547500Y-110931428D01*
X189444457Y-110939803D01*
X189273459Y-110993273D01*
X189124066Y-111092174D01*
X189008058Y-111228708D01*
X188934581Y-111392111D01*
X188909428Y-111569500D01*
X188909428Y-112966500D01*
X188917803Y-113069543D01*
X188971273Y-113240541D01*
X189070174Y-113389934D01*
X189206708Y-113505942D01*
X189370111Y-113579419D01*
X189547500Y-113604572D01*
X190944500Y-113604572D01*
X191047543Y-113596197D01*
X191218541Y-113542727D01*
X191367934Y-113443826D01*
X191483942Y-113307292D01*
X191557419Y-113143889D01*
X191582572Y-112966500D01*
X191582572Y-121461283D01*
X191434403Y-121342153D01*
X188413976Y-117742549D01*
X186150239Y-113624826D01*
X184729419Y-109145829D01*
X184202146Y-104445089D01*
X184200000Y-104137653D01*
X184200000Y-99958503D01*
X184218743Y-99767336D01*
X184264532Y-99615678D01*
X184338904Y-99475804D01*
X184439030Y-99353038D01*
X184561093Y-99252059D01*
X184700449Y-99176709D01*
X184851780Y-99129864D01*
X185040782Y-99110000D01*
X197255000Y-99110000D01*
X197255121Y-99109988D01*
X197257420Y-99109996D01*
X197267892Y-99109959D01*
X197297648Y-99106935D01*
X197327554Y-99107144D01*
X197337073Y-99106211D01*
X197628218Y-99075611D01*
X197689054Y-99063122D01*
X197750021Y-99051493D01*
X197759177Y-99048729D01*
X198038833Y-98962161D01*
X198096062Y-98938103D01*
X198153632Y-98914844D01*
X198162076Y-98910354D01*
X198162077Y-98910354D01*
X198419593Y-98771115D01*
X198471065Y-98736395D01*
X198523012Y-98702403D01*
X198530424Y-98696358D01*
X198530426Y-98696356D01*
X198755991Y-98509753D01*
X198799738Y-98465699D01*
X198844096Y-98422261D01*
X198850193Y-98414891D01*
X199035219Y-98188027D01*
X199069580Y-98136309D01*
X199104652Y-98085088D01*
X199109201Y-98076675D01*
X199246638Y-97818194D01*
X199270311Y-97760758D01*
X199294754Y-97703730D01*
X199297583Y-97694593D01*
X199382197Y-97414339D01*
X199394258Y-97353423D01*
X199407164Y-97292707D01*
X199408164Y-97283196D01*
X199436731Y-96991844D01*
X199436730Y-96963112D01*
X199439933Y-96934564D01*
X199440000Y-96925000D01*
X199440000Y-69358555D01*
X199517000Y-69375485D01*
X199517000Y-82804000D01*
X199523874Y-82874113D01*
X199530004Y-82944170D01*
X199531120Y-82948012D01*
X199531512Y-82952007D01*
X199551877Y-83019459D01*
X199571494Y-83086982D01*
X199573337Y-83090537D01*
X199574496Y-83094376D01*
X199607556Y-83156553D01*
X199639933Y-83219014D01*
X199642431Y-83222144D01*
X199644314Y-83225684D01*
X199688800Y-83280230D01*
X199732714Y-83335240D01*
X199738212Y-83340814D01*
X199738307Y-83340931D01*
X199738414Y-83341020D01*
X199740185Y-83342815D01*
X200756185Y-84358815D01*
X200810599Y-84403512D01*
X200864495Y-84448736D01*
X200868002Y-84450664D01*
X200871103Y-84453211D01*
X200933168Y-84486489D01*
X200994816Y-84520381D01*
X200998636Y-84521592D01*
X201002167Y-84523486D01*
X201069464Y-84544060D01*
X201136571Y-84565348D01*
X201140554Y-84565794D01*
X201144385Y-84566966D01*
X201214372Y-84574075D01*
X201284361Y-84581926D01*
X201292197Y-84581980D01*
X201292340Y-84581995D01*
X201292473Y-84581982D01*
X201295000Y-84582000D01*
X202906772Y-84582000D01*
X202915583Y-84598854D01*
X203089531Y-84815201D01*
X203302188Y-84993641D01*
X203478214Y-85090412D01*
X203318653Y-85175253D01*
X203103525Y-85350707D01*
X202926574Y-85564604D01*
X202794539Y-85808798D01*
X202712449Y-86073987D01*
X202683432Y-86350070D01*
X202708592Y-86626531D01*
X202786971Y-86892840D01*
X202915583Y-87138854D01*
X203089531Y-87355201D01*
X203302188Y-87533641D01*
X203478214Y-87630412D01*
X203318653Y-87715253D01*
X203156423Y-87847563D01*
X202937048Y-87663485D01*
X202680749Y-87522584D01*
X202401964Y-87434148D01*
X202111312Y-87401546D01*
X202090388Y-87401400D01*
X201769612Y-87401400D01*
X201478532Y-87429941D01*
X201198540Y-87514475D01*
X200940299Y-87651784D01*
X200713647Y-87836637D01*
X200527216Y-88061994D01*
X200388108Y-88319269D01*
X200301621Y-88598665D01*
X200271049Y-88889538D01*
X200297556Y-89180810D01*
X200380134Y-89461385D01*
X200515637Y-89720578D01*
X200698903Y-89948515D01*
X200922952Y-90136515D01*
X200982586Y-90169299D01*
X200940299Y-90191784D01*
X200713647Y-90376637D01*
X200527216Y-90601994D01*
X200388108Y-90859269D01*
X200301621Y-91138665D01*
X200271049Y-91429538D01*
X200297556Y-91720810D01*
X200380134Y-92001385D01*
X200515637Y-92260578D01*
X200698903Y-92488515D01*
X200922952Y-92676515D01*
X200984872Y-92710555D01*
X200778271Y-92861514D01*
X200579267Y-93077965D01*
X200426314Y-93329081D01*
X200325291Y-93605211D01*
X200322642Y-93620974D01*
X200443783Y-93853000D01*
X201803000Y-93853000D01*
X201803000Y-93833000D01*
X202057000Y-93833000D01*
X202057000Y-93853000D01*
X202857148Y-93853000D01*
X203416217Y-93853000D01*
X204343000Y-93853000D01*
X204343000Y-93833000D01*
X204597000Y-93833000D01*
X204597000Y-93853000D01*
X206082852Y-93853000D01*
X206205010Y-93632940D01*
X206188328Y-93553004D01*
X206078841Y-93295354D01*
X205921192Y-93064014D01*
X205721440Y-92867875D01*
X205487262Y-92714474D01*
X205467553Y-92706520D01*
X205621347Y-92624747D01*
X205836475Y-92449293D01*
X206013426Y-92235396D01*
X206145461Y-91991202D01*
X206227551Y-91726013D01*
X206256568Y-91449930D01*
X206231408Y-91173469D01*
X206153029Y-90907160D01*
X206024417Y-90661146D01*
X205850469Y-90444799D01*
X205637812Y-90266359D01*
X205461785Y-90169587D01*
X205621347Y-90084747D01*
X205836475Y-89909293D01*
X206013426Y-89695396D01*
X206145461Y-89451202D01*
X206227551Y-89186013D01*
X206256568Y-88909930D01*
X206231408Y-88633469D01*
X206153029Y-88367160D01*
X206024417Y-88121146D01*
X205850469Y-87904799D01*
X205637812Y-87726359D01*
X205461785Y-87629587D01*
X205621347Y-87544747D01*
X205836475Y-87369293D01*
X206013426Y-87155396D01*
X206145461Y-86911202D01*
X206227551Y-86646013D01*
X206256568Y-86369930D01*
X206231408Y-86093469D01*
X206153029Y-85827160D01*
X206024417Y-85581146D01*
X205850469Y-85364799D01*
X205637812Y-85186359D01*
X205461785Y-85089587D01*
X205621347Y-85004747D01*
X205836475Y-84829293D01*
X206013426Y-84615396D01*
X206145461Y-84371202D01*
X206227551Y-84106013D01*
X206256568Y-83829930D01*
X206249886Y-83756517D01*
X206502000Y-84008630D01*
X206502000Y-95660583D01*
X206361384Y-95631719D01*
X206205010Y-95630627D01*
X206205010Y-94327060D01*
X206082852Y-94107000D01*
X204597000Y-94107000D01*
X204597000Y-95402400D01*
X204952600Y-95402400D01*
X205227656Y-95350293D01*
X205487262Y-95245526D01*
X205721440Y-95092125D01*
X205921192Y-94895986D01*
X206078841Y-94664646D01*
X206188328Y-94406996D01*
X206205010Y-94327060D01*
X206205010Y-95630627D01*
X206149689Y-95630241D01*
X205941738Y-95669910D01*
X205745452Y-95749215D01*
X205568308Y-95865134D01*
X205417054Y-96013253D01*
X205297450Y-96187931D01*
X205214052Y-96382512D01*
X205170037Y-96589587D01*
X205167081Y-96801267D01*
X205205297Y-97009490D01*
X205283230Y-97206325D01*
X205397910Y-97384273D01*
X205486000Y-97475493D01*
X205486000Y-111823500D01*
X205492874Y-111893613D01*
X205499004Y-111963670D01*
X205500120Y-111967512D01*
X205500512Y-111971507D01*
X205520877Y-112038959D01*
X205540494Y-112106482D01*
X205542337Y-112110037D01*
X205543496Y-112113876D01*
X205576556Y-112176053D01*
X205608933Y-112238514D01*
X205611431Y-112241644D01*
X205613314Y-112245184D01*
X205657800Y-112299730D01*
X205701714Y-112354740D01*
X205707212Y-112360314D01*
X205707307Y-112360431D01*
X205707414Y-112360520D01*
X205709185Y-112362315D01*
X207677684Y-114330815D01*
X207732097Y-114375510D01*
X207785995Y-114420736D01*
X207789506Y-114422666D01*
X207792603Y-114425210D01*
X207854629Y-114458468D01*
X207916316Y-114492381D01*
X207920136Y-114493592D01*
X207923667Y-114495486D01*
X207990964Y-114516060D01*
X208058071Y-114537348D01*
X208062054Y-114537794D01*
X208065885Y-114538966D01*
X208135872Y-114546075D01*
X208205861Y-114553926D01*
X208213697Y-114553980D01*
X208213840Y-114553995D01*
X208213973Y-114553982D01*
X208216500Y-114554000D01*
X212550013Y-114554000D01*
X212580637Y-114612578D01*
X212763903Y-114840515D01*
X212987952Y-115028515D01*
X213047586Y-115061299D01*
X213005299Y-115083784D01*
X212778647Y-115268637D01*
X212592216Y-115493994D01*
X212551119Y-115570000D01*
X206373130Y-115570000D01*
X204914500Y-114111370D01*
X204914500Y-105219500D01*
X204907625Y-105149390D01*
X204901496Y-105079329D01*
X204900379Y-105075485D01*
X204899988Y-105071493D01*
X204879626Y-105004052D01*
X204860006Y-104936518D01*
X204858162Y-104932962D01*
X204857004Y-104929124D01*
X204823943Y-104866946D01*
X204791567Y-104804486D01*
X204789068Y-104801355D01*
X204787186Y-104797816D01*
X204742699Y-104743269D01*
X204698786Y-104688260D01*
X204693287Y-104682685D01*
X204693193Y-104682569D01*
X204693085Y-104682479D01*
X204691315Y-104680685D01*
X204343000Y-104332370D01*
X204343000Y-95402400D01*
X204343000Y-94107000D01*
X203416217Y-94107000D01*
X202857148Y-94107000D01*
X202057000Y-94107000D01*
X202057000Y-95320925D01*
X202291914Y-95465185D01*
X202577633Y-95395773D01*
X202844321Y-95271954D01*
X203081729Y-95098486D01*
X203149721Y-95024532D01*
X203218560Y-95092125D01*
X203452738Y-95245526D01*
X203712344Y-95350293D01*
X203987400Y-95402400D01*
X204343000Y-95402400D01*
X204343000Y-104332370D01*
X204134422Y-104123792D01*
X204193379Y-103933335D01*
X204223951Y-103642462D01*
X204197444Y-103351190D01*
X204114866Y-103070615D01*
X203979363Y-102811422D01*
X203796097Y-102583485D01*
X203572048Y-102395485D01*
X203315749Y-102254584D01*
X203036964Y-102166148D01*
X202746312Y-102133546D01*
X202725388Y-102133400D01*
X202404612Y-102133400D01*
X202113532Y-102161941D01*
X201833540Y-102246475D01*
X201803000Y-102262713D01*
X201803000Y-95320925D01*
X201803000Y-94107000D01*
X200443783Y-94107000D01*
X200322642Y-94339026D01*
X200325291Y-94354789D01*
X200426314Y-94630919D01*
X200579267Y-94882035D01*
X200778271Y-95098486D01*
X201015679Y-95271954D01*
X201282367Y-95395773D01*
X201568086Y-95465185D01*
X201803000Y-95320925D01*
X201803000Y-102262713D01*
X201575299Y-102383784D01*
X201348647Y-102568637D01*
X201162216Y-102793994D01*
X201023108Y-103051269D01*
X200936621Y-103330665D01*
X200906049Y-103621538D01*
X200932556Y-103912810D01*
X201015134Y-104193385D01*
X201150637Y-104452578D01*
X201333903Y-104680515D01*
X201557952Y-104868515D01*
X201617586Y-104901299D01*
X201575299Y-104923784D01*
X201348647Y-105108637D01*
X201162216Y-105333994D01*
X201023108Y-105591269D01*
X200936621Y-105870665D01*
X200906049Y-106161538D01*
X200932556Y-106452810D01*
X201015134Y-106733385D01*
X201150637Y-106992578D01*
X201333903Y-107220515D01*
X201557952Y-107408515D01*
X201617586Y-107441299D01*
X201575299Y-107463784D01*
X201348647Y-107648637D01*
X201162216Y-107873994D01*
X201023108Y-108131269D01*
X200936621Y-108410665D01*
X200906049Y-108701538D01*
X200932556Y-108992810D01*
X201015134Y-109273385D01*
X201150637Y-109532578D01*
X201333903Y-109760515D01*
X201557952Y-109948515D01*
X201619872Y-109982555D01*
X201413271Y-110133514D01*
X201214267Y-110349965D01*
X201061314Y-110601081D01*
X200960291Y-110877211D01*
X200957642Y-110892974D01*
X201078783Y-111125000D01*
X202438000Y-111125000D01*
X202438000Y-111105000D01*
X202692000Y-111105000D01*
X202692000Y-111125000D01*
X202712000Y-111125000D01*
X202712000Y-111379000D01*
X202692000Y-111379000D01*
X202692000Y-111399000D01*
X202438000Y-111399000D01*
X202438000Y-111379000D01*
X201078783Y-111379000D01*
X200957642Y-111611026D01*
X200960291Y-111626789D01*
X201061314Y-111902919D01*
X201214267Y-112154035D01*
X201413271Y-112370486D01*
X201618794Y-112520656D01*
X201575299Y-112543784D01*
X201348647Y-112728637D01*
X201162216Y-112953994D01*
X201023108Y-113211269D01*
X200936621Y-113490665D01*
X200906049Y-113781538D01*
X200932556Y-114072810D01*
X201015134Y-114353385D01*
X201150637Y-114612578D01*
X201333903Y-114840515D01*
X201557952Y-115028515D01*
X201617586Y-115061299D01*
X201575299Y-115083784D01*
X201348647Y-115268637D01*
X201162216Y-115493994D01*
X201023108Y-115751269D01*
X200936621Y-116030665D01*
X200906049Y-116321538D01*
X200932556Y-116612810D01*
X201015134Y-116893385D01*
X201150637Y-117152578D01*
X201333903Y-117380515D01*
X201557952Y-117568515D01*
X201814251Y-117709416D01*
X202093036Y-117797852D01*
X202383688Y-117830454D01*
X202404612Y-117830600D01*
X202725388Y-117830600D01*
X203016468Y-117802059D01*
X203296460Y-117717525D01*
X203554701Y-117580216D01*
X203781353Y-117395363D01*
X203967784Y-117170006D01*
X204106892Y-116912731D01*
X204193379Y-116633335D01*
X204223951Y-116342462D01*
X204197444Y-116051190D01*
X204114866Y-115770615D01*
X203979363Y-115511422D01*
X203796097Y-115283485D01*
X203572048Y-115095485D01*
X203512413Y-115062700D01*
X203554701Y-115040216D01*
X203628167Y-114980297D01*
X205518685Y-116870815D01*
X205573099Y-116915512D01*
X205626995Y-116960736D01*
X205630502Y-116962664D01*
X205633603Y-116965211D01*
X205695703Y-116998509D01*
X205757316Y-117032381D01*
X205761131Y-117033591D01*
X205764667Y-117035487D01*
X205832051Y-117056088D01*
X205899071Y-117077348D01*
X205903048Y-117077794D01*
X205906885Y-117078967D01*
X205976922Y-117086080D01*
X206046861Y-117093926D01*
X206054697Y-117093980D01*
X206054840Y-117093995D01*
X206054973Y-117093982D01*
X206057500Y-117094000D01*
X212550013Y-117094000D01*
X212580637Y-117152578D01*
X212763903Y-117380515D01*
X212987952Y-117568515D01*
X213244251Y-117709416D01*
X213523036Y-117797852D01*
X213813688Y-117830454D01*
X213834612Y-117830600D01*
X214155388Y-117830600D01*
X214446468Y-117802059D01*
X214726460Y-117717525D01*
X214984701Y-117580216D01*
X215211353Y-117395363D01*
X215397784Y-117170006D01*
X215536892Y-116912731D01*
X215623379Y-116633335D01*
X215653951Y-116342462D01*
X215627444Y-116051190D01*
X215544866Y-115770615D01*
X215409363Y-115511422D01*
X215226097Y-115283485D01*
X215002048Y-115095485D01*
X214942413Y-115062700D01*
X214984701Y-115040216D01*
X215211353Y-114855363D01*
X215397784Y-114630006D01*
X215536892Y-114372731D01*
X215623379Y-114093335D01*
X215653951Y-113802462D01*
X215627444Y-113511190D01*
X215544866Y-113230615D01*
X215409363Y-112971422D01*
X215226097Y-112743485D01*
X215002048Y-112555485D01*
X214942413Y-112522700D01*
X214984701Y-112500216D01*
X215211353Y-112315363D01*
X215397784Y-112090006D01*
X215536892Y-111832731D01*
X215623379Y-111553335D01*
X215653951Y-111262462D01*
X215627444Y-110971190D01*
X215544866Y-110690615D01*
X215409363Y-110431422D01*
X215226097Y-110203485D01*
X215002048Y-110015485D01*
X214942413Y-109982700D01*
X214984701Y-109960216D01*
X215211353Y-109775363D01*
X215397784Y-109550006D01*
X215536892Y-109292731D01*
X215623379Y-109013335D01*
X215653951Y-108722462D01*
X215627444Y-108431190D01*
X215544866Y-108150615D01*
X215409363Y-107891422D01*
X215226097Y-107663485D01*
X215002048Y-107475485D01*
X214942413Y-107442700D01*
X214984701Y-107420216D01*
X215211353Y-107235363D01*
X215397784Y-107010006D01*
X215536892Y-106752731D01*
X215623379Y-106473335D01*
X215653951Y-106182462D01*
X215627444Y-105891190D01*
X215544866Y-105610615D01*
X215409363Y-105351422D01*
X215226097Y-105123485D01*
X215002048Y-104935485D01*
X214942413Y-104902700D01*
X214984701Y-104880216D01*
X215211353Y-104695363D01*
X215397784Y-104470006D01*
X215536892Y-104212731D01*
X215623379Y-103933335D01*
X215653951Y-103642462D01*
X215627444Y-103351190D01*
X215544866Y-103070615D01*
X215409363Y-102811422D01*
X215226097Y-102583485D01*
X215002048Y-102395485D01*
X214745749Y-102254584D01*
X214466964Y-102166148D01*
X214176312Y-102133546D01*
X214155388Y-102133400D01*
X213834612Y-102133400D01*
X213543532Y-102161941D01*
X213263540Y-102246475D01*
X213005299Y-102383784D01*
X212778647Y-102568637D01*
X212592216Y-102793994D01*
X212551119Y-102870000D01*
X211516630Y-102870000D01*
X211201000Y-102554369D01*
X211201000Y-102318024D01*
X211390064Y-102359593D01*
X211601719Y-102364026D01*
X211810204Y-102327265D01*
X212007577Y-102250708D01*
X212186322Y-102137273D01*
X212339630Y-101991280D01*
X212461661Y-101818290D01*
X212547768Y-101624892D01*
X212594670Y-101418452D01*
X212596574Y-101282055D01*
X216756316Y-97122315D01*
X216801037Y-97067870D01*
X216846236Y-97014005D01*
X216848164Y-97010497D01*
X216850711Y-97007397D01*
X216883998Y-96945315D01*
X216917881Y-96883684D01*
X216919092Y-96879865D01*
X216920987Y-96876332D01*
X216941583Y-96808962D01*
X216962848Y-96741929D01*
X216963294Y-96737950D01*
X216964467Y-96734115D01*
X216971585Y-96664033D01*
X216979426Y-96594139D01*
X216979480Y-96586313D01*
X216979496Y-96586160D01*
X216979482Y-96586017D01*
X216979500Y-96583500D01*
X216979500Y-90487500D01*
X216972625Y-90417390D01*
X216966496Y-90347329D01*
X216965379Y-90343485D01*
X216964988Y-90339493D01*
X216944626Y-90272052D01*
X216925006Y-90204518D01*
X216923162Y-90200962D01*
X216922004Y-90197124D01*
X216888943Y-90134946D01*
X216856567Y-90072486D01*
X216854068Y-90069355D01*
X216852186Y-90065816D01*
X216807699Y-90011269D01*
X216763786Y-89956260D01*
X216758287Y-89950685D01*
X216758193Y-89950569D01*
X216758085Y-89950479D01*
X216756315Y-89948685D01*
X216199422Y-89391792D01*
X216258379Y-89201335D01*
X216288951Y-88910462D01*
X216262444Y-88619190D01*
X216179866Y-88338615D01*
X216044363Y-88079422D01*
X215861097Y-87851485D01*
X215637048Y-87663485D01*
X215577413Y-87630700D01*
X215619701Y-87608216D01*
X215846353Y-87423363D01*
X216032784Y-87198006D01*
X216171892Y-86940731D01*
X216258379Y-86661335D01*
X216288951Y-86370462D01*
X216262444Y-86079190D01*
X216179866Y-85798615D01*
X216044363Y-85539422D01*
X215861097Y-85311485D01*
X215637048Y-85123485D01*
X215577413Y-85090700D01*
X215619701Y-85068216D01*
X215846353Y-84883363D01*
X216032784Y-84658006D01*
X216171892Y-84400731D01*
X216258379Y-84121335D01*
X216288951Y-83830462D01*
X216262444Y-83539190D01*
X216179866Y-83258615D01*
X216044363Y-82999422D01*
X215861097Y-82771485D01*
X215637048Y-82583485D01*
X215577413Y-82550700D01*
X215619701Y-82528216D01*
X215846353Y-82343363D01*
X216032784Y-82118006D01*
X216171892Y-81860731D01*
X216258379Y-81581335D01*
X216288951Y-81290462D01*
X216262444Y-80999190D01*
X216179866Y-80718615D01*
X216044363Y-80459422D01*
X215861097Y-80231485D01*
X215637048Y-80043485D01*
X215577413Y-80010700D01*
X215619701Y-79988216D01*
X215846353Y-79803363D01*
X216032784Y-79578006D01*
X216171892Y-79320731D01*
X216258379Y-79041335D01*
X216288951Y-78750462D01*
X216262444Y-78459190D01*
X216179866Y-78178615D01*
X216044363Y-77919422D01*
X215861097Y-77691485D01*
X215637048Y-77503485D01*
X215577413Y-77470700D01*
X215619701Y-77448216D01*
X215846353Y-77263363D01*
X216032784Y-77038006D01*
X216171892Y-76780731D01*
X216258379Y-76501335D01*
X216288951Y-76210462D01*
X216262444Y-75919190D01*
X216179866Y-75638615D01*
X216044363Y-75379422D01*
X215861097Y-75151485D01*
X215637048Y-74963485D01*
X215577413Y-74930700D01*
X215619701Y-74908216D01*
X215846353Y-74723363D01*
X216032784Y-74498006D01*
X216171892Y-74240731D01*
X216258379Y-73961335D01*
X216288951Y-73670462D01*
X216262444Y-73379190D01*
X216179866Y-73098615D01*
X216044363Y-72839422D01*
X215861097Y-72611485D01*
X215637048Y-72423485D01*
X215577413Y-72390700D01*
X215619701Y-72368216D01*
X215846353Y-72183363D01*
X216032784Y-71958006D01*
X216171892Y-71700731D01*
X216258379Y-71421335D01*
X216288951Y-71130462D01*
X216262444Y-70839190D01*
X216179866Y-70558615D01*
X216044363Y-70299422D01*
X215861097Y-70071485D01*
X215637048Y-69883485D01*
X215380749Y-69742584D01*
X215101964Y-69654148D01*
X214811312Y-69621546D01*
X214790388Y-69621400D01*
X214469612Y-69621400D01*
X214178532Y-69649941D01*
X213898540Y-69734475D01*
X213640299Y-69871784D01*
X213413647Y-70056637D01*
X213403645Y-70068727D01*
X213257812Y-69946359D01*
X213014546Y-69812622D01*
X212749937Y-69728683D01*
X212474063Y-69697739D01*
X212454203Y-69697600D01*
X211725797Y-69697600D01*
X211449518Y-69724689D01*
X211183762Y-69804926D01*
X210938653Y-69935253D01*
X210723525Y-70110707D01*
X210546574Y-70324604D01*
X210414539Y-70568798D01*
X210332449Y-70833987D01*
X210303432Y-71110070D01*
X210328592Y-71386531D01*
X210406971Y-71652840D01*
X210535583Y-71898854D01*
X210709531Y-72115201D01*
X210922188Y-72293641D01*
X211098214Y-72390412D01*
X210938653Y-72475253D01*
X210723525Y-72650707D01*
X210546574Y-72864604D01*
X210414539Y-73108798D01*
X210332449Y-73373987D01*
X210303432Y-73650070D01*
X210328592Y-73926531D01*
X210406971Y-74192840D01*
X210535583Y-74438854D01*
X210709531Y-74655201D01*
X210922188Y-74833641D01*
X211098214Y-74930412D01*
X210938653Y-75015253D01*
X210723525Y-75190707D01*
X210546574Y-75404604D01*
X210414539Y-75648798D01*
X210332449Y-75913987D01*
X210303432Y-76190070D01*
X210328592Y-76466531D01*
X210406971Y-76732840D01*
X210431880Y-76780488D01*
X207741185Y-79471185D01*
X207696487Y-79525599D01*
X207651264Y-79579495D01*
X207649335Y-79583002D01*
X207646789Y-79586103D01*
X207613510Y-79648168D01*
X207579619Y-79709816D01*
X207578407Y-79713636D01*
X207576514Y-79717167D01*
X207555939Y-79784464D01*
X207534652Y-79851571D01*
X207534205Y-79855554D01*
X207533034Y-79859385D01*
X207525924Y-79929372D01*
X207518074Y-79999361D01*
X207518019Y-80007197D01*
X207518005Y-80007340D01*
X207518017Y-80007473D01*
X207518000Y-80010000D01*
X207518000Y-82869369D01*
X206224499Y-81575869D01*
X206227551Y-81566013D01*
X206256568Y-81289930D01*
X206231408Y-81013469D01*
X206153029Y-80747160D01*
X206024417Y-80501146D01*
X205850469Y-80284799D01*
X205637812Y-80106359D01*
X205461785Y-80009587D01*
X205621347Y-79924747D01*
X205836475Y-79749293D01*
X206013426Y-79535396D01*
X206145461Y-79291202D01*
X206227551Y-79026013D01*
X206256568Y-78749930D01*
X206231408Y-78473469D01*
X206153029Y-78207160D01*
X206024417Y-77961146D01*
X205850469Y-77744799D01*
X205637812Y-77566359D01*
X205461785Y-77469587D01*
X205621347Y-77384747D01*
X205836475Y-77209293D01*
X206013426Y-76995396D01*
X206145461Y-76751202D01*
X206227551Y-76486013D01*
X206256568Y-76209930D01*
X206231408Y-75933469D01*
X206153029Y-75667160D01*
X206024417Y-75421146D01*
X205850469Y-75204799D01*
X205637812Y-75026359D01*
X205461785Y-74929587D01*
X205621347Y-74844747D01*
X205836475Y-74669293D01*
X206013426Y-74455396D01*
X206145461Y-74211202D01*
X206227551Y-73946013D01*
X206256568Y-73669930D01*
X206231408Y-73393469D01*
X206153029Y-73127160D01*
X206024417Y-72881146D01*
X205850469Y-72664799D01*
X205637812Y-72486359D01*
X205461785Y-72389587D01*
X205621347Y-72304747D01*
X205836475Y-72129293D01*
X206013426Y-71915396D01*
X206145461Y-71671202D01*
X206227551Y-71406013D01*
X206256568Y-71129930D01*
X206231408Y-70853469D01*
X206153029Y-70587160D01*
X206024417Y-70341146D01*
X205850469Y-70124799D01*
X205637812Y-69946359D01*
X205394546Y-69812622D01*
X205129937Y-69728683D01*
X204854063Y-69697739D01*
X204834203Y-69697600D01*
X204105797Y-69697600D01*
X203829518Y-69724689D01*
X203563762Y-69804926D01*
X203318653Y-69935253D01*
X203156423Y-70067563D01*
X202937048Y-69883485D01*
X202680749Y-69742584D01*
X202401964Y-69654148D01*
X202111312Y-69621546D01*
X202090388Y-69621400D01*
X201769612Y-69621400D01*
X201478532Y-69649941D01*
X201198540Y-69734475D01*
X201041000Y-69818240D01*
X201041000Y-68834000D01*
X201034121Y-68763849D01*
X201027996Y-68693829D01*
X201026879Y-68689985D01*
X201026488Y-68685993D01*
X201006126Y-68618552D01*
X200986506Y-68551018D01*
X200984662Y-68547462D01*
X200983504Y-68543624D01*
X200950433Y-68481427D01*
X200918066Y-68418985D01*
X200915568Y-68415856D01*
X200913686Y-68412316D01*
X200869194Y-68357763D01*
X200848978Y-68332439D01*
X200850546Y-68220150D01*
X200809426Y-68012481D01*
X200728754Y-67816753D01*
X200611600Y-67640423D01*
X200462428Y-67490207D01*
X200286921Y-67371825D01*
X200091761Y-67289788D01*
X199884384Y-67247219D01*
X199672689Y-67245741D01*
X199464738Y-67285410D01*
X199440000Y-67295404D01*
X199440000Y-61333780D01*
X199455608Y-61347042D01*
X199619011Y-61420519D01*
X199796400Y-61445672D01*
X201523600Y-61445672D01*
X201626643Y-61437297D01*
X201797641Y-61383827D01*
X201947034Y-61284926D01*
X202063042Y-61148392D01*
X202130118Y-60999223D01*
X202136637Y-61007216D01*
X202361994Y-61193647D01*
X202619269Y-61332755D01*
X202898665Y-61419242D01*
X203189538Y-61449814D01*
X203480810Y-61423307D01*
X203761385Y-61340729D01*
X204020578Y-61205226D01*
X204248515Y-61021960D01*
X204436515Y-60797911D01*
X204469299Y-60738276D01*
X204491784Y-60780564D01*
X204676637Y-61007216D01*
X204901994Y-61193647D01*
X205159269Y-61332755D01*
X205438665Y-61419242D01*
X205729538Y-61449814D01*
X206020810Y-61423307D01*
X206301385Y-61340729D01*
X206560578Y-61205226D01*
X206788515Y-61021960D01*
X206976515Y-60797911D01*
X207009299Y-60738276D01*
X207031784Y-60780564D01*
X207216637Y-61007216D01*
X207441994Y-61193647D01*
X207518000Y-61234743D01*
X207518000Y-64835369D01*
X205487928Y-66865440D01*
X205387689Y-66864741D01*
X205179738Y-66904410D01*
X204983452Y-66983715D01*
X204806308Y-67099634D01*
X204655054Y-67247753D01*
X204535450Y-67422431D01*
X204452052Y-67617012D01*
X204408037Y-67824087D01*
X204405081Y-68035767D01*
X204443297Y-68243990D01*
X204521230Y-68440825D01*
X204635910Y-68618773D01*
X204782969Y-68771058D01*
X204956807Y-68891879D01*
X205150802Y-68976633D01*
X205357564Y-69022093D01*
X205569219Y-69026526D01*
X205777704Y-68989765D01*
X205975077Y-68913208D01*
X206153822Y-68799773D01*
X206307130Y-68653780D01*
X206429161Y-68480790D01*
X206515268Y-68287392D01*
X206562170Y-68080952D01*
X206564074Y-67944555D01*
X208818816Y-65689815D01*
X208863537Y-65635370D01*
X208908736Y-65581505D01*
X208910664Y-65577997D01*
X208913211Y-65574897D01*
X208946509Y-65512796D01*
X208980381Y-65451184D01*
X208981591Y-65447368D01*
X208983487Y-65443833D01*
X209004088Y-65376448D01*
X209025348Y-65309429D01*
X209025794Y-65305451D01*
X209026967Y-65301615D01*
X209034080Y-65231577D01*
X209041926Y-65161639D01*
X209041980Y-65153802D01*
X209041995Y-65153660D01*
X209041982Y-65153526D01*
X209042000Y-65151000D01*
X209042000Y-61235849D01*
X209100578Y-61205226D01*
X209328515Y-61021960D01*
X209516515Y-60797911D01*
X209553077Y-60731404D01*
X209613183Y-60832488D01*
X209809707Y-61050854D01*
X210045056Y-61226684D01*
X210310186Y-61353222D01*
X210460974Y-61398958D01*
X210693000Y-61277817D01*
X210693000Y-60071000D01*
X210673000Y-60071000D01*
X210673000Y-59817000D01*
X210693000Y-59817000D01*
X210693000Y-59797000D01*
X210947000Y-59797000D01*
X210947000Y-59817000D01*
X210967000Y-59817000D01*
X210967000Y-60071000D01*
X210947000Y-60071000D01*
X210947000Y-61277817D01*
X211179026Y-61398958D01*
X211329814Y-61353222D01*
X211594944Y-61226684D01*
X211830293Y-61050854D01*
X212026817Y-60832488D01*
X212086248Y-60732538D01*
X212111784Y-60780564D01*
X212296637Y-61007216D01*
X212521994Y-61193647D01*
X212779269Y-61332755D01*
X213058665Y-61419242D01*
X213349538Y-61449814D01*
X213640810Y-61423307D01*
X213921385Y-61340729D01*
X214180578Y-61205226D01*
X214408515Y-61021960D01*
X214596515Y-60797911D01*
X214629299Y-60738276D01*
X214651784Y-60780564D01*
X214836637Y-61007216D01*
X215061994Y-61193647D01*
X215319269Y-61332755D01*
X215598665Y-61419242D01*
X215889538Y-61449814D01*
X216180810Y-61423307D01*
X216461385Y-61340729D01*
X216720578Y-61205226D01*
X216948515Y-61021960D01*
X217120000Y-60817592D01*
X217120000Y-96925000D01*
X217120011Y-96925121D01*
X217120004Y-96927420D01*
X217120041Y-96937892D01*
X217123064Y-96967648D01*
X217122856Y-96997554D01*
X217123789Y-97007073D01*
X217154389Y-97298218D01*
X217166877Y-97359054D01*
X217178507Y-97420021D01*
X217181271Y-97429177D01*
X217267839Y-97708833D01*
X217291896Y-97766062D01*
X217315156Y-97823632D01*
X217319646Y-97832077D01*
X217458885Y-98089593D01*
X217493604Y-98141065D01*
X217527597Y-98193012D01*
X217533642Y-98200424D01*
X217533644Y-98200426D01*
X217720247Y-98425991D01*
X217764300Y-98469738D01*
X217807739Y-98514096D01*
X217815109Y-98520193D01*
X218041973Y-98705219D01*
X218093690Y-98739580D01*
X218144912Y-98774652D01*
X218153325Y-98779201D01*
X218411806Y-98916638D01*
X218469241Y-98940311D01*
X218526270Y-98964754D01*
X218535407Y-98967583D01*
X218815661Y-99052197D01*
X218876576Y-99064258D01*
X218937293Y-99077164D01*
X218946804Y-99078164D01*
X219238156Y-99106731D01*
X219266887Y-99106730D01*
X219295436Y-99109933D01*
X219305000Y-99110000D01*
X220817762Y-99110000D01*
X220817762Y-103581000D01*
X232360000Y-103581000D01*
X232360000Y-104106495D01*
X232360000Y-104106495D01*
G37*
X232360000Y-104106495D02*
X231898177Y-108816525D01*
X230540031Y-113314924D01*
X228334008Y-117463850D01*
X225364132Y-121105276D01*
X225178951Y-121258471D01*
X225178951Y-119263462D01*
X225152444Y-118972190D01*
X225069866Y-118691615D01*
X224934363Y-118432422D01*
X224751097Y-118204485D01*
X224527048Y-118016485D01*
X224467413Y-117983700D01*
X224509701Y-117961216D01*
X224736353Y-117776363D01*
X224922784Y-117551006D01*
X225061892Y-117293731D01*
X225148379Y-117014335D01*
X225178951Y-116723462D01*
X225152444Y-116432190D01*
X225069866Y-116151615D01*
X224934363Y-115892422D01*
X224751097Y-115664485D01*
X224527048Y-115476485D01*
X224467413Y-115443700D01*
X224509701Y-115421216D01*
X224736353Y-115236363D01*
X224922784Y-115011006D01*
X225061892Y-114753731D01*
X225148379Y-114474335D01*
X225178951Y-114183462D01*
X225152444Y-113892190D01*
X225069866Y-113611615D01*
X224934363Y-113352422D01*
X224751097Y-113124485D01*
X224527048Y-112936485D01*
X224270749Y-112795584D01*
X223991964Y-112707148D01*
X223701312Y-112674546D01*
X223680388Y-112674400D01*
X223359612Y-112674400D01*
X223068532Y-112702941D01*
X222788540Y-112787475D01*
X222530299Y-112924784D01*
X222303647Y-113109637D01*
X222117216Y-113334994D01*
X221978108Y-113592269D01*
X221891621Y-113871665D01*
X221861049Y-114162538D01*
X221887556Y-114453810D01*
X221970134Y-114734385D01*
X222105637Y-114993578D01*
X222288903Y-115221515D01*
X222512952Y-115409515D01*
X222572586Y-115442299D01*
X222530299Y-115464784D01*
X222303647Y-115649637D01*
X222117216Y-115874994D01*
X222073495Y-115955853D01*
X222052890Y-115957874D01*
X221982829Y-115964004D01*
X221978985Y-115965120D01*
X221974993Y-115965512D01*
X221907552Y-115985873D01*
X221840018Y-116005494D01*
X221836462Y-116007337D01*
X221832624Y-116008496D01*
X221770446Y-116041556D01*
X221707986Y-116073933D01*
X221704855Y-116076431D01*
X221701316Y-116078314D01*
X221646769Y-116122800D01*
X221591760Y-116166714D01*
X221586185Y-116172212D01*
X221586069Y-116172307D01*
X221585979Y-116172414D01*
X221584185Y-116174185D01*
X220441185Y-117317185D01*
X220396487Y-117371599D01*
X220351264Y-117425495D01*
X220349335Y-117429002D01*
X220346789Y-117432103D01*
X220313510Y-117494168D01*
X220279619Y-117555816D01*
X220278407Y-117559636D01*
X220276514Y-117563167D01*
X220255939Y-117630464D01*
X220234652Y-117697571D01*
X220234205Y-117701554D01*
X220233034Y-117705385D01*
X220225924Y-117775372D01*
X220218074Y-117845361D01*
X220218019Y-117853197D01*
X220218005Y-117853340D01*
X220218017Y-117853473D01*
X220218000Y-117856000D01*
X220218000Y-121731370D01*
X219900546Y-122048824D01*
X219900546Y-103018150D01*
X219859426Y-102810481D01*
X219778754Y-102614753D01*
X219661600Y-102438423D01*
X219512428Y-102288207D01*
X219336921Y-102169825D01*
X219141761Y-102087788D01*
X218934384Y-102045219D01*
X218722689Y-102043741D01*
X218514738Y-102083410D01*
X218318452Y-102162715D01*
X218141308Y-102278634D01*
X217990054Y-102426753D01*
X217870450Y-102601431D01*
X217787052Y-102796012D01*
X217743037Y-103003087D01*
X217740081Y-103214767D01*
X217778297Y-103422990D01*
X217856230Y-103619825D01*
X217970910Y-103797773D01*
X218059000Y-103888993D01*
X218059000Y-104526606D01*
X217937452Y-104575715D01*
X217760308Y-104691634D01*
X217609054Y-104839753D01*
X217489450Y-105014431D01*
X217406052Y-105209012D01*
X217362037Y-105416087D01*
X217359081Y-105627767D01*
X217397297Y-105835990D01*
X217475230Y-106032825D01*
X217589910Y-106210773D01*
X217736969Y-106363058D01*
X217910807Y-106483879D01*
X218104802Y-106568633D01*
X218311564Y-106614093D01*
X218523219Y-106618526D01*
X218731704Y-106581765D01*
X218929077Y-106505208D01*
X219107822Y-106391773D01*
X219261130Y-106245780D01*
X219383161Y-106072790D01*
X219469268Y-105879392D01*
X219516170Y-105672952D01*
X219519139Y-105460261D01*
X219521381Y-105456184D01*
X219522592Y-105452363D01*
X219524486Y-105448833D01*
X219545060Y-105381535D01*
X219566348Y-105314429D01*
X219566794Y-105310445D01*
X219567966Y-105306615D01*
X219575075Y-105236627D01*
X219582926Y-105166639D01*
X219582980Y-105158802D01*
X219582995Y-105158660D01*
X219582982Y-105158526D01*
X219583000Y-105156000D01*
X219583000Y-103889088D01*
X219642130Y-103832780D01*
X219764161Y-103659790D01*
X219850268Y-103466392D01*
X219897170Y-103259952D01*
X219900546Y-103018150D01*
X219900546Y-122048824D01*
X217743370Y-124206000D01*
X214632708Y-124206000D01*
X214559428Y-124132207D01*
X214383921Y-124013825D01*
X214188761Y-123931788D01*
X213981384Y-123889219D01*
X213769689Y-123887741D01*
X213561738Y-123927410D01*
X213365452Y-124006715D01*
X213188308Y-124122634D01*
X213037054Y-124270753D01*
X212917450Y-124445431D01*
X212834052Y-124640012D01*
X212790037Y-124847087D01*
X212787081Y-125058767D01*
X212825297Y-125266990D01*
X212903230Y-125463825D01*
X213017910Y-125641773D01*
X213164969Y-125794058D01*
X213338807Y-125914879D01*
X213532802Y-125999633D01*
X213739564Y-126045093D01*
X213951219Y-126049526D01*
X214159704Y-126012765D01*
X214357077Y-125936208D01*
X214535822Y-125822773D01*
X214633243Y-125730000D01*
X218059000Y-125730000D01*
X218129113Y-125723125D01*
X218199170Y-125716996D01*
X218203012Y-125715879D01*
X218207007Y-125715488D01*
X218274459Y-125695122D01*
X218341982Y-125675506D01*
X218345537Y-125673662D01*
X218349376Y-125672504D01*
X218411553Y-125639443D01*
X218474014Y-125607067D01*
X218477144Y-125604568D01*
X218480684Y-125602686D01*
X218535230Y-125558199D01*
X218590240Y-125514286D01*
X218595814Y-125508787D01*
X218595931Y-125508693D01*
X218596020Y-125508585D01*
X218597815Y-125506815D01*
X221518815Y-122585815D01*
X221563512Y-122531400D01*
X221608736Y-122477505D01*
X221610664Y-122473997D01*
X221613211Y-122470897D01*
X221646509Y-122408796D01*
X221680381Y-122347184D01*
X221681591Y-122343368D01*
X221683487Y-122339833D01*
X221704088Y-122272448D01*
X221725348Y-122205429D01*
X221725794Y-122201451D01*
X221726967Y-122197615D01*
X221734080Y-122127577D01*
X221741926Y-122057639D01*
X221741980Y-122049802D01*
X221741995Y-122049660D01*
X221741982Y-122049526D01*
X221742000Y-122047000D01*
X221742000Y-118171630D01*
X222227938Y-117685691D01*
X222288903Y-117761515D01*
X222512952Y-117949515D01*
X222572586Y-117982299D01*
X222530299Y-118004784D01*
X222303647Y-118189637D01*
X222117216Y-118414994D01*
X221978108Y-118672269D01*
X221891621Y-118951665D01*
X221861049Y-119242538D01*
X221887556Y-119533810D01*
X221970134Y-119814385D01*
X222105637Y-120073578D01*
X222288903Y-120301515D01*
X222512952Y-120489515D01*
X222769251Y-120630416D01*
X223048036Y-120718852D01*
X223338688Y-120751454D01*
X223359612Y-120751600D01*
X223680388Y-120751600D01*
X223971468Y-120723059D01*
X224251460Y-120638525D01*
X224509701Y-120501216D01*
X224736353Y-120316363D01*
X224922784Y-120091006D01*
X225061892Y-119833731D01*
X225148379Y-119554335D01*
X225178951Y-119263462D01*
X225178951Y-121258471D01*
X221743527Y-124100501D01*
X217610103Y-126335435D01*
X213121292Y-127724955D01*
X208448084Y-128216127D01*
X203768472Y-127790250D01*
X200855263Y-126932845D01*
X200855263Y-103095111D01*
X200745370Y-102540109D01*
X200529769Y-102017021D01*
X200216672Y-101545773D01*
X199818006Y-101144314D01*
X199348955Y-100827935D01*
X198827386Y-100608687D01*
X198273164Y-100494922D01*
X197707400Y-100490972D01*
X197151644Y-100596988D01*
X196627064Y-100808932D01*
X196153641Y-101118731D01*
X195749409Y-101514585D01*
X195429763Y-101981416D01*
X195206879Y-102501442D01*
X195089248Y-103054856D01*
X195081348Y-103620579D01*
X195183482Y-104177061D01*
X195391758Y-104703108D01*
X195698245Y-105178682D01*
X195840420Y-105325908D01*
X195523007Y-105231199D01*
X194957201Y-105178072D01*
X194869588Y-105187103D01*
X194391902Y-105236348D01*
X194098942Y-105326674D01*
X193996001Y-105223733D01*
X194388364Y-104977584D01*
X194653972Y-104475178D01*
X194816461Y-103930607D01*
X194869588Y-103364801D01*
X194811312Y-102799502D01*
X194643870Y-102256434D01*
X194388364Y-101778416D01*
X193996000Y-101532265D01*
X193816395Y-101711870D01*
X193816395Y-101352660D01*
X193570244Y-100960296D01*
X193067838Y-100694688D01*
X192523267Y-100532199D01*
X191957461Y-100479072D01*
X191392162Y-100537348D01*
X190849094Y-100704790D01*
X190371076Y-100960296D01*
X190124925Y-101352660D01*
X191970660Y-103198395D01*
X193816395Y-101352660D01*
X193816395Y-101711870D01*
X192150265Y-103378000D01*
X192164407Y-103392142D01*
X191984802Y-103571747D01*
X191970660Y-103557605D01*
X191791055Y-103737210D01*
X191791055Y-103378000D01*
X189945320Y-101532265D01*
X189552956Y-101778416D01*
X189287348Y-102280822D01*
X189124859Y-102825393D01*
X189071732Y-103391199D01*
X189130008Y-103956498D01*
X189297450Y-104499566D01*
X189552956Y-104977584D01*
X189945320Y-105223735D01*
X191791055Y-103378000D01*
X191791055Y-103737210D01*
X190124925Y-105403340D01*
X190371076Y-105795704D01*
X190873482Y-106061312D01*
X191418053Y-106223801D01*
X191983859Y-106276928D01*
X192549158Y-106218652D01*
X192842117Y-106128325D01*
X192945058Y-106231266D01*
X192552696Y-106477416D01*
X192287088Y-106979822D01*
X192124599Y-107524393D01*
X192071472Y-108090199D01*
X192129748Y-108655498D01*
X192297190Y-109198566D01*
X192552696Y-109676584D01*
X192945060Y-109922735D01*
X194790795Y-108077000D01*
X194776652Y-108062857D01*
X194956257Y-107883252D01*
X194970400Y-107897395D01*
X194984542Y-107883252D01*
X195164147Y-108062857D01*
X195150005Y-108077000D01*
X196995740Y-109922735D01*
X197388104Y-109676584D01*
X197653712Y-109174178D01*
X197816201Y-108629607D01*
X197869328Y-108063801D01*
X197811052Y-107498502D01*
X197643610Y-106955434D01*
X197388104Y-106477416D01*
X196995741Y-106231266D01*
X197088757Y-106138250D01*
X197626892Y-106256566D01*
X198192545Y-106268415D01*
X198749728Y-106170169D01*
X199277216Y-105965570D01*
X199754917Y-105662411D01*
X200164638Y-105272240D01*
X200490770Y-104809917D01*
X200720893Y-104293054D01*
X200846240Y-103741336D01*
X200855263Y-103095111D01*
X200855263Y-126932845D01*
X199260702Y-126463541D01*
X199199557Y-126431575D01*
X199199557Y-112137244D01*
X199148762Y-111880711D01*
X199049107Y-111638931D01*
X198904388Y-111421111D01*
X198720118Y-111235549D01*
X198503314Y-111089313D01*
X198262235Y-110987973D01*
X198006063Y-110935388D01*
X197869328Y-110934433D01*
X197744557Y-110933563D01*
X197487676Y-110982565D01*
X197245206Y-111080530D01*
X197026381Y-111223725D01*
X196839537Y-111406695D01*
X196816135Y-111440872D01*
X196816135Y-110102340D01*
X194970400Y-108256605D01*
X194790795Y-108436210D01*
X193124665Y-110102340D01*
X193370816Y-110494704D01*
X193873222Y-110760312D01*
X194417793Y-110922801D01*
X194983599Y-110975928D01*
X195548898Y-110917652D01*
X196091966Y-110750210D01*
X196569984Y-110494704D01*
X196816135Y-110102340D01*
X196816135Y-111440872D01*
X196691791Y-111622473D01*
X196588770Y-111862839D01*
X196534399Y-112118637D01*
X196530747Y-112380124D01*
X196577955Y-112637341D01*
X196674225Y-112880489D01*
X196815888Y-113100308D01*
X196997550Y-113288425D01*
X197212291Y-113437674D01*
X197451932Y-113542370D01*
X197707344Y-113598526D01*
X197968800Y-113604003D01*
X198226340Y-113558592D01*
X198470154Y-113464022D01*
X198690957Y-113323897D01*
X198880337Y-113143552D01*
X199031081Y-112929858D01*
X199137448Y-112690955D01*
X199195386Y-112435941D01*
X199199557Y-112137244D01*
X199199557Y-126431575D01*
X195096477Y-124286536D01*
X191582572Y-121461283D01*
X191582572Y-112966500D01*
X191582572Y-111569500D01*
X191574197Y-111466457D01*
X191520727Y-111295459D01*
X191421826Y-111146066D01*
X191285292Y-111030058D01*
X191121889Y-110956581D01*
X190944500Y-110931428D01*
X189547500Y-110931428D01*
X189444457Y-110939803D01*
X189273459Y-110993273D01*
X189124066Y-111092174D01*
X189008058Y-111228708D01*
X188934581Y-111392111D01*
X188909428Y-111569500D01*
X188909428Y-112966500D01*
X188917803Y-113069543D01*
X188971273Y-113240541D01*
X189070174Y-113389934D01*
X189206708Y-113505942D01*
X189370111Y-113579419D01*
X189547500Y-113604572D01*
X190944500Y-113604572D01*
X191047543Y-113596197D01*
X191218541Y-113542727D01*
X191367934Y-113443826D01*
X191483942Y-113307292D01*
X191557419Y-113143889D01*
X191582572Y-112966500D01*
X191582572Y-121461283D01*
X191434403Y-121342153D01*
X188413976Y-117742549D01*
X186150239Y-113624826D01*
X184729419Y-109145829D01*
X184202146Y-104445089D01*
X184200000Y-104137653D01*
X184200000Y-99958503D01*
X184218743Y-99767336D01*
X184264532Y-99615678D01*
X184338904Y-99475804D01*
X184439030Y-99353038D01*
X184561093Y-99252059D01*
X184700449Y-99176709D01*
X184851780Y-99129864D01*
X185040782Y-99110000D01*
X197255000Y-99110000D01*
X197255121Y-99109988D01*
X197257420Y-99109996D01*
X197267892Y-99109959D01*
X197297648Y-99106935D01*
X197327554Y-99107144D01*
X197337073Y-99106211D01*
X197628218Y-99075611D01*
X197689054Y-99063122D01*
X197750021Y-99051493D01*
X197759177Y-99048729D01*
X198038833Y-98962161D01*
X198096062Y-98938103D01*
X198153632Y-98914844D01*
X198162076Y-98910354D01*
X198162077Y-98910354D01*
X198419593Y-98771115D01*
X198471065Y-98736395D01*
X198523012Y-98702403D01*
X198530424Y-98696358D01*
X198530426Y-98696356D01*
X198755991Y-98509753D01*
X198799738Y-98465699D01*
X198844096Y-98422261D01*
X198850193Y-98414891D01*
X199035219Y-98188027D01*
X199069580Y-98136309D01*
X199104652Y-98085088D01*
X199109201Y-98076675D01*
X199246638Y-97818194D01*
X199270311Y-97760758D01*
X199294754Y-97703730D01*
X199297583Y-97694593D01*
X199382197Y-97414339D01*
X199394258Y-97353423D01*
X199407164Y-97292707D01*
X199408164Y-97283196D01*
X199436731Y-96991844D01*
X199436730Y-96963112D01*
X199439933Y-96934564D01*
X199440000Y-96925000D01*
X199440000Y-69358555D01*
X199517000Y-69375485D01*
X199517000Y-82804000D01*
X199523874Y-82874113D01*
X199530004Y-82944170D01*
X199531120Y-82948012D01*
X199531512Y-82952007D01*
X199551877Y-83019459D01*
X199571494Y-83086982D01*
X199573337Y-83090537D01*
X199574496Y-83094376D01*
X199607556Y-83156553D01*
X199639933Y-83219014D01*
X199642431Y-83222144D01*
X199644314Y-83225684D01*
X199688800Y-83280230D01*
X199732714Y-83335240D01*
X199738212Y-83340814D01*
X199738307Y-83340931D01*
X199738414Y-83341020D01*
X199740185Y-83342815D01*
X200756185Y-84358815D01*
X200810599Y-84403512D01*
X200864495Y-84448736D01*
X200868002Y-84450664D01*
X200871103Y-84453211D01*
X200933168Y-84486489D01*
X200994816Y-84520381D01*
X200998636Y-84521592D01*
X201002167Y-84523486D01*
X201069464Y-84544060D01*
X201136571Y-84565348D01*
X201140554Y-84565794D01*
X201144385Y-84566966D01*
X201214372Y-84574075D01*
X201284361Y-84581926D01*
X201292197Y-84581980D01*
X201292340Y-84581995D01*
X201292473Y-84581982D01*
X201295000Y-84582000D01*
X202906772Y-84582000D01*
X202915583Y-84598854D01*
X203089531Y-84815201D01*
X203302188Y-84993641D01*
X203478214Y-85090412D01*
X203318653Y-85175253D01*
X203103525Y-85350707D01*
X202926574Y-85564604D01*
X202794539Y-85808798D01*
X202712449Y-86073987D01*
X202683432Y-86350070D01*
X202708592Y-86626531D01*
X202786971Y-86892840D01*
X202915583Y-87138854D01*
X203089531Y-87355201D01*
X203302188Y-87533641D01*
X203478214Y-87630412D01*
X203318653Y-87715253D01*
X203156423Y-87847563D01*
X202937048Y-87663485D01*
X202680749Y-87522584D01*
X202401964Y-87434148D01*
X202111312Y-87401546D01*
X202090388Y-87401400D01*
X201769612Y-87401400D01*
X201478532Y-87429941D01*
X201198540Y-87514475D01*
X200940299Y-87651784D01*
X200713647Y-87836637D01*
X200527216Y-88061994D01*
X200388108Y-88319269D01*
X200301621Y-88598665D01*
X200271049Y-88889538D01*
X200297556Y-89180810D01*
X200380134Y-89461385D01*
X200515637Y-89720578D01*
X200698903Y-89948515D01*
X200922952Y-90136515D01*
X200982586Y-90169299D01*
X200940299Y-90191784D01*
X200713647Y-90376637D01*
X200527216Y-90601994D01*
X200388108Y-90859269D01*
X200301621Y-91138665D01*
X200271049Y-91429538D01*
X200297556Y-91720810D01*
X200380134Y-92001385D01*
X200515637Y-92260578D01*
X200698903Y-92488515D01*
X200922952Y-92676515D01*
X200984872Y-92710555D01*
X200778271Y-92861514D01*
X200579267Y-93077965D01*
X200426314Y-93329081D01*
X200325291Y-93605211D01*
X200322642Y-93620974D01*
X200443783Y-93853000D01*
X201803000Y-93853000D01*
X201803000Y-93833000D01*
X202057000Y-93833000D01*
X202057000Y-93853000D01*
X202857148Y-93853000D01*
X203416217Y-93853000D01*
X204343000Y-93853000D01*
X204343000Y-93833000D01*
X204597000Y-93833000D01*
X204597000Y-93853000D01*
X206082852Y-93853000D01*
X206205010Y-93632940D01*
X206188328Y-93553004D01*
X206078841Y-93295354D01*
X205921192Y-93064014D01*
X205721440Y-92867875D01*
X205487262Y-92714474D01*
X205467553Y-92706520D01*
X205621347Y-92624747D01*
X205836475Y-92449293D01*
X206013426Y-92235396D01*
X206145461Y-91991202D01*
X206227551Y-91726013D01*
X206256568Y-91449930D01*
X206231408Y-91173469D01*
X206153029Y-90907160D01*
X206024417Y-90661146D01*
X205850469Y-90444799D01*
X205637812Y-90266359D01*
X205461785Y-90169587D01*
X205621347Y-90084747D01*
X205836475Y-89909293D01*
X206013426Y-89695396D01*
X206145461Y-89451202D01*
X206227551Y-89186013D01*
X206256568Y-88909930D01*
X206231408Y-88633469D01*
X206153029Y-88367160D01*
X206024417Y-88121146D01*
X205850469Y-87904799D01*
X205637812Y-87726359D01*
X205461785Y-87629587D01*
X205621347Y-87544747D01*
X205836475Y-87369293D01*
X206013426Y-87155396D01*
X206145461Y-86911202D01*
X206227551Y-86646013D01*
X206256568Y-86369930D01*
X206231408Y-86093469D01*
X206153029Y-85827160D01*
X206024417Y-85581146D01*
X205850469Y-85364799D01*
X205637812Y-85186359D01*
X205461785Y-85089587D01*
X205621347Y-85004747D01*
X205836475Y-84829293D01*
X206013426Y-84615396D01*
X206145461Y-84371202D01*
X206227551Y-84106013D01*
X206256568Y-83829930D01*
X206249886Y-83756517D01*
X206502000Y-84008630D01*
X206502000Y-95660583D01*
X206361384Y-95631719D01*
X206205010Y-95630627D01*
X206205010Y-94327060D01*
X206082852Y-94107000D01*
X204597000Y-94107000D01*
X204597000Y-95402400D01*
X204952600Y-95402400D01*
X205227656Y-95350293D01*
X205487262Y-95245526D01*
X205721440Y-95092125D01*
X205921192Y-94895986D01*
X206078841Y-94664646D01*
X206188328Y-94406996D01*
X206205010Y-94327060D01*
X206205010Y-95630627D01*
X206149689Y-95630241D01*
X205941738Y-95669910D01*
X205745452Y-95749215D01*
X205568308Y-95865134D01*
X205417054Y-96013253D01*
X205297450Y-96187931D01*
X205214052Y-96382512D01*
X205170037Y-96589587D01*
X205167081Y-96801267D01*
X205205297Y-97009490D01*
X205283230Y-97206325D01*
X205397910Y-97384273D01*
X205486000Y-97475493D01*
X205486000Y-111823500D01*
X205492874Y-111893613D01*
X205499004Y-111963670D01*
X205500120Y-111967512D01*
X205500512Y-111971507D01*
X205520877Y-112038959D01*
X205540494Y-112106482D01*
X205542337Y-112110037D01*
X205543496Y-112113876D01*
X205576556Y-112176053D01*
X205608933Y-112238514D01*
X205611431Y-112241644D01*
X205613314Y-112245184D01*
X205657800Y-112299730D01*
X205701714Y-112354740D01*
X205707212Y-112360314D01*
X205707307Y-112360431D01*
X205707414Y-112360520D01*
X205709185Y-112362315D01*
X207677684Y-114330815D01*
X207732097Y-114375510D01*
X207785995Y-114420736D01*
X207789506Y-114422666D01*
X207792603Y-114425210D01*
X207854629Y-114458468D01*
X207916316Y-114492381D01*
X207920136Y-114493592D01*
X207923667Y-114495486D01*
X207990964Y-114516060D01*
X208058071Y-114537348D01*
X208062054Y-114537794D01*
X208065885Y-114538966D01*
X208135872Y-114546075D01*
X208205861Y-114553926D01*
X208213697Y-114553980D01*
X208213840Y-114553995D01*
X208213973Y-114553982D01*
X208216500Y-114554000D01*
X212550013Y-114554000D01*
X212580637Y-114612578D01*
X212763903Y-114840515D01*
X212987952Y-115028515D01*
X213047586Y-115061299D01*
X213005299Y-115083784D01*
X212778647Y-115268637D01*
X212592216Y-115493994D01*
X212551119Y-115570000D01*
X206373130Y-115570000D01*
X204914500Y-114111370D01*
X204914500Y-105219500D01*
X204907625Y-105149390D01*
X204901496Y-105079329D01*
X204900379Y-105075485D01*
X204899988Y-105071493D01*
X204879626Y-105004052D01*
X204860006Y-104936518D01*
X204858162Y-104932962D01*
X204857004Y-104929124D01*
X204823943Y-104866946D01*
X204791567Y-104804486D01*
X204789068Y-104801355D01*
X204787186Y-104797816D01*
X204742699Y-104743269D01*
X204698786Y-104688260D01*
X204693287Y-104682685D01*
X204693193Y-104682569D01*
X204693085Y-104682479D01*
X204691315Y-104680685D01*
X204343000Y-104332370D01*
X204343000Y-95402400D01*
X204343000Y-94107000D01*
X203416217Y-94107000D01*
X202857148Y-94107000D01*
X202057000Y-94107000D01*
X202057000Y-95320925D01*
X202291914Y-95465185D01*
X202577633Y-95395773D01*
X202844321Y-95271954D01*
X203081729Y-95098486D01*
X203149721Y-95024532D01*
X203218560Y-95092125D01*
X203452738Y-95245526D01*
X203712344Y-95350293D01*
X203987400Y-95402400D01*
X204343000Y-95402400D01*
X204343000Y-104332370D01*
X204134422Y-104123792D01*
X204193379Y-103933335D01*
X204223951Y-103642462D01*
X204197444Y-103351190D01*
X204114866Y-103070615D01*
X203979363Y-102811422D01*
X203796097Y-102583485D01*
X203572048Y-102395485D01*
X203315749Y-102254584D01*
X203036964Y-102166148D01*
X202746312Y-102133546D01*
X202725388Y-102133400D01*
X202404612Y-102133400D01*
X202113532Y-102161941D01*
X201833540Y-102246475D01*
X201803000Y-102262713D01*
X201803000Y-95320925D01*
X201803000Y-94107000D01*
X200443783Y-94107000D01*
X200322642Y-94339026D01*
X200325291Y-94354789D01*
X200426314Y-94630919D01*
X200579267Y-94882035D01*
X200778271Y-95098486D01*
X201015679Y-95271954D01*
X201282367Y-95395773D01*
X201568086Y-95465185D01*
X201803000Y-95320925D01*
X201803000Y-102262713D01*
X201575299Y-102383784D01*
X201348647Y-102568637D01*
X201162216Y-102793994D01*
X201023108Y-103051269D01*
X200936621Y-103330665D01*
X200906049Y-103621538D01*
X200932556Y-103912810D01*
X201015134Y-104193385D01*
X201150637Y-104452578D01*
X201333903Y-104680515D01*
X201557952Y-104868515D01*
X201617586Y-104901299D01*
X201575299Y-104923784D01*
X201348647Y-105108637D01*
X201162216Y-105333994D01*
X201023108Y-105591269D01*
X200936621Y-105870665D01*
X200906049Y-106161538D01*
X200932556Y-106452810D01*
X201015134Y-106733385D01*
X201150637Y-106992578D01*
X201333903Y-107220515D01*
X201557952Y-107408515D01*
X201617586Y-107441299D01*
X201575299Y-107463784D01*
X201348647Y-107648637D01*
X201162216Y-107873994D01*
X201023108Y-108131269D01*
X200936621Y-108410665D01*
X200906049Y-108701538D01*
X200932556Y-108992810D01*
X201015134Y-109273385D01*
X201150637Y-109532578D01*
X201333903Y-109760515D01*
X201557952Y-109948515D01*
X201619872Y-109982555D01*
X201413271Y-110133514D01*
X201214267Y-110349965D01*
X201061314Y-110601081D01*
X200960291Y-110877211D01*
X200957642Y-110892974D01*
X201078783Y-111125000D01*
X202438000Y-111125000D01*
X202438000Y-111105000D01*
X202692000Y-111105000D01*
X202692000Y-111125000D01*
X202712000Y-111125000D01*
X202712000Y-111379000D01*
X202692000Y-111379000D01*
X202692000Y-111399000D01*
X202438000Y-111399000D01*
X202438000Y-111379000D01*
X201078783Y-111379000D01*
X200957642Y-111611026D01*
X200960291Y-111626789D01*
X201061314Y-111902919D01*
X201214267Y-112154035D01*
X201413271Y-112370486D01*
X201618794Y-112520656D01*
X201575299Y-112543784D01*
X201348647Y-112728637D01*
X201162216Y-112953994D01*
X201023108Y-113211269D01*
X200936621Y-113490665D01*
X200906049Y-113781538D01*
X200932556Y-114072810D01*
X201015134Y-114353385D01*
X201150637Y-114612578D01*
X201333903Y-114840515D01*
X201557952Y-115028515D01*
X201617586Y-115061299D01*
X201575299Y-115083784D01*
X201348647Y-115268637D01*
X201162216Y-115493994D01*
X201023108Y-115751269D01*
X200936621Y-116030665D01*
X200906049Y-116321538D01*
X200932556Y-116612810D01*
X201015134Y-116893385D01*
X201150637Y-117152578D01*
X201333903Y-117380515D01*
X201557952Y-117568515D01*
X201814251Y-117709416D01*
X202093036Y-117797852D01*
X202383688Y-117830454D01*
X202404612Y-117830600D01*
X202725388Y-117830600D01*
X203016468Y-117802059D01*
X203296460Y-117717525D01*
X203554701Y-117580216D01*
X203781353Y-117395363D01*
X203967784Y-117170006D01*
X204106892Y-116912731D01*
X204193379Y-116633335D01*
X204223951Y-116342462D01*
X204197444Y-116051190D01*
X204114866Y-115770615D01*
X203979363Y-115511422D01*
X203796097Y-115283485D01*
X203572048Y-115095485D01*
X203512413Y-115062700D01*
X203554701Y-115040216D01*
X203628167Y-114980297D01*
X205518685Y-116870815D01*
X205573099Y-116915512D01*
X205626995Y-116960736D01*
X205630502Y-116962664D01*
X205633603Y-116965211D01*
X205695703Y-116998509D01*
X205757316Y-117032381D01*
X205761131Y-117033591D01*
X205764667Y-117035487D01*
X205832051Y-117056088D01*
X205899071Y-117077348D01*
X205903048Y-117077794D01*
X205906885Y-117078967D01*
X205976922Y-117086080D01*
X206046861Y-117093926D01*
X206054697Y-117093980D01*
X206054840Y-117093995D01*
X206054973Y-117093982D01*
X206057500Y-117094000D01*
X212550013Y-117094000D01*
X212580637Y-117152578D01*
X212763903Y-117380515D01*
X212987952Y-117568515D01*
X213244251Y-117709416D01*
X213523036Y-117797852D01*
X213813688Y-117830454D01*
X213834612Y-117830600D01*
X214155388Y-117830600D01*
X214446468Y-117802059D01*
X214726460Y-117717525D01*
X214984701Y-117580216D01*
X215211353Y-117395363D01*
X215397784Y-117170006D01*
X215536892Y-116912731D01*
X215623379Y-116633335D01*
X215653951Y-116342462D01*
X215627444Y-116051190D01*
X215544866Y-115770615D01*
X215409363Y-115511422D01*
X215226097Y-115283485D01*
X215002048Y-115095485D01*
X214942413Y-115062700D01*
X214984701Y-115040216D01*
X215211353Y-114855363D01*
X215397784Y-114630006D01*
X215536892Y-114372731D01*
X215623379Y-114093335D01*
X215653951Y-113802462D01*
X215627444Y-113511190D01*
X215544866Y-113230615D01*
X215409363Y-112971422D01*
X215226097Y-112743485D01*
X215002048Y-112555485D01*
X214942413Y-112522700D01*
X214984701Y-112500216D01*
X215211353Y-112315363D01*
X215397784Y-112090006D01*
X215536892Y-111832731D01*
X215623379Y-111553335D01*
X215653951Y-111262462D01*
X215627444Y-110971190D01*
X215544866Y-110690615D01*
X215409363Y-110431422D01*
X215226097Y-110203485D01*
X215002048Y-110015485D01*
X214942413Y-109982700D01*
X214984701Y-109960216D01*
X215211353Y-109775363D01*
X215397784Y-109550006D01*
X215536892Y-109292731D01*
X215623379Y-109013335D01*
X215653951Y-108722462D01*
X215627444Y-108431190D01*
X215544866Y-108150615D01*
X215409363Y-107891422D01*
X215226097Y-107663485D01*
X215002048Y-107475485D01*
X214942413Y-107442700D01*
X214984701Y-107420216D01*
X215211353Y-107235363D01*
X215397784Y-107010006D01*
X215536892Y-106752731D01*
X215623379Y-106473335D01*
X215653951Y-106182462D01*
X215627444Y-105891190D01*
X215544866Y-105610615D01*
X215409363Y-105351422D01*
X215226097Y-105123485D01*
X215002048Y-104935485D01*
X214942413Y-104902700D01*
X214984701Y-104880216D01*
X215211353Y-104695363D01*
X215397784Y-104470006D01*
X215536892Y-104212731D01*
X215623379Y-103933335D01*
X215653951Y-103642462D01*
X215627444Y-103351190D01*
X215544866Y-103070615D01*
X215409363Y-102811422D01*
X215226097Y-102583485D01*
X215002048Y-102395485D01*
X214745749Y-102254584D01*
X214466964Y-102166148D01*
X214176312Y-102133546D01*
X214155388Y-102133400D01*
X213834612Y-102133400D01*
X213543532Y-102161941D01*
X213263540Y-102246475D01*
X213005299Y-102383784D01*
X212778647Y-102568637D01*
X212592216Y-102793994D01*
X212551119Y-102870000D01*
X211516630Y-102870000D01*
X211201000Y-102554369D01*
X211201000Y-102318024D01*
X211390064Y-102359593D01*
X211601719Y-102364026D01*
X211810204Y-102327265D01*
X212007577Y-102250708D01*
X212186322Y-102137273D01*
X212339630Y-101991280D01*
X212461661Y-101818290D01*
X212547768Y-101624892D01*
X212594670Y-101418452D01*
X212596574Y-101282055D01*
X216756316Y-97122315D01*
X216801037Y-97067870D01*
X216846236Y-97014005D01*
X216848164Y-97010497D01*
X216850711Y-97007397D01*
X216883998Y-96945315D01*
X216917881Y-96883684D01*
X216919092Y-96879865D01*
X216920987Y-96876332D01*
X216941583Y-96808962D01*
X216962848Y-96741929D01*
X216963294Y-96737950D01*
X216964467Y-96734115D01*
X216971585Y-96664033D01*
X216979426Y-96594139D01*
X216979480Y-96586313D01*
X216979496Y-96586160D01*
X216979482Y-96586017D01*
X216979500Y-96583500D01*
X216979500Y-90487500D01*
X216972625Y-90417390D01*
X216966496Y-90347329D01*
X216965379Y-90343485D01*
X216964988Y-90339493D01*
X216944626Y-90272052D01*
X216925006Y-90204518D01*
X216923162Y-90200962D01*
X216922004Y-90197124D01*
X216888943Y-90134946D01*
X216856567Y-90072486D01*
X216854068Y-90069355D01*
X216852186Y-90065816D01*
X216807699Y-90011269D01*
X216763786Y-89956260D01*
X216758287Y-89950685D01*
X216758193Y-89950569D01*
X216758085Y-89950479D01*
X216756315Y-89948685D01*
X216199422Y-89391792D01*
X216258379Y-89201335D01*
X216288951Y-88910462D01*
X216262444Y-88619190D01*
X216179866Y-88338615D01*
X216044363Y-88079422D01*
X215861097Y-87851485D01*
X215637048Y-87663485D01*
X215577413Y-87630700D01*
X215619701Y-87608216D01*
X215846353Y-87423363D01*
X216032784Y-87198006D01*
X216171892Y-86940731D01*
X216258379Y-86661335D01*
X216288951Y-86370462D01*
X216262444Y-86079190D01*
X216179866Y-85798615D01*
X216044363Y-85539422D01*
X215861097Y-85311485D01*
X215637048Y-85123485D01*
X215577413Y-85090700D01*
X215619701Y-85068216D01*
X215846353Y-84883363D01*
X216032784Y-84658006D01*
X216171892Y-84400731D01*
X216258379Y-84121335D01*
X216288951Y-83830462D01*
X216262444Y-83539190D01*
X216179866Y-83258615D01*
X216044363Y-82999422D01*
X215861097Y-82771485D01*
X215637048Y-82583485D01*
X215577413Y-82550700D01*
X215619701Y-82528216D01*
X215846353Y-82343363D01*
X216032784Y-82118006D01*
X216171892Y-81860731D01*
X216258379Y-81581335D01*
X216288951Y-81290462D01*
X216262444Y-80999190D01*
X216179866Y-80718615D01*
X216044363Y-80459422D01*
X215861097Y-80231485D01*
X215637048Y-80043485D01*
X215577413Y-80010700D01*
X215619701Y-79988216D01*
X215846353Y-79803363D01*
X216032784Y-79578006D01*
X216171892Y-79320731D01*
X216258379Y-79041335D01*
X216288951Y-78750462D01*
X216262444Y-78459190D01*
X216179866Y-78178615D01*
X216044363Y-77919422D01*
X215861097Y-77691485D01*
X215637048Y-77503485D01*
X215577413Y-77470700D01*
X215619701Y-77448216D01*
X215846353Y-77263363D01*
X216032784Y-77038006D01*
X216171892Y-76780731D01*
X216258379Y-76501335D01*
X216288951Y-76210462D01*
X216262444Y-75919190D01*
X216179866Y-75638615D01*
X216044363Y-75379422D01*
X215861097Y-75151485D01*
X215637048Y-74963485D01*
X215577413Y-74930700D01*
X215619701Y-74908216D01*
X215846353Y-74723363D01*
X216032784Y-74498006D01*
X216171892Y-74240731D01*
X216258379Y-73961335D01*
X216288951Y-73670462D01*
X216262444Y-73379190D01*
X216179866Y-73098615D01*
X216044363Y-72839422D01*
X215861097Y-72611485D01*
X215637048Y-72423485D01*
X215577413Y-72390700D01*
X215619701Y-72368216D01*
X215846353Y-72183363D01*
X216032784Y-71958006D01*
X216171892Y-71700731D01*
X216258379Y-71421335D01*
X216288951Y-71130462D01*
X216262444Y-70839190D01*
X216179866Y-70558615D01*
X216044363Y-70299422D01*
X215861097Y-70071485D01*
X215637048Y-69883485D01*
X215380749Y-69742584D01*
X215101964Y-69654148D01*
X214811312Y-69621546D01*
X214790388Y-69621400D01*
X214469612Y-69621400D01*
X214178532Y-69649941D01*
X213898540Y-69734475D01*
X213640299Y-69871784D01*
X213413647Y-70056637D01*
X213403645Y-70068727D01*
X213257812Y-69946359D01*
X213014546Y-69812622D01*
X212749937Y-69728683D01*
X212474063Y-69697739D01*
X212454203Y-69697600D01*
X211725797Y-69697600D01*
X211449518Y-69724689D01*
X211183762Y-69804926D01*
X210938653Y-69935253D01*
X210723525Y-70110707D01*
X210546574Y-70324604D01*
X210414539Y-70568798D01*
X210332449Y-70833987D01*
X210303432Y-71110070D01*
X210328592Y-71386531D01*
X210406971Y-71652840D01*
X210535583Y-71898854D01*
X210709531Y-72115201D01*
X210922188Y-72293641D01*
X211098214Y-72390412D01*
X210938653Y-72475253D01*
X210723525Y-72650707D01*
X210546574Y-72864604D01*
X210414539Y-73108798D01*
X210332449Y-73373987D01*
X210303432Y-73650070D01*
X210328592Y-73926531D01*
X210406971Y-74192840D01*
X210535583Y-74438854D01*
X210709531Y-74655201D01*
X210922188Y-74833641D01*
X211098214Y-74930412D01*
X210938653Y-75015253D01*
X210723525Y-75190707D01*
X210546574Y-75404604D01*
X210414539Y-75648798D01*
X210332449Y-75913987D01*
X210303432Y-76190070D01*
X210328592Y-76466531D01*
X210406971Y-76732840D01*
X210431880Y-76780488D01*
X207741185Y-79471185D01*
X207696487Y-79525599D01*
X207651264Y-79579495D01*
X207649335Y-79583002D01*
X207646789Y-79586103D01*
X207613510Y-79648168D01*
X207579619Y-79709816D01*
X207578407Y-79713636D01*
X207576514Y-79717167D01*
X207555939Y-79784464D01*
X207534652Y-79851571D01*
X207534205Y-79855554D01*
X207533034Y-79859385D01*
X207525924Y-79929372D01*
X207518074Y-79999361D01*
X207518019Y-80007197D01*
X207518005Y-80007340D01*
X207518017Y-80007473D01*
X207518000Y-80010000D01*
X207518000Y-82869369D01*
X206224499Y-81575869D01*
X206227551Y-81566013D01*
X206256568Y-81289930D01*
X206231408Y-81013469D01*
X206153029Y-80747160D01*
X206024417Y-80501146D01*
X205850469Y-80284799D01*
X205637812Y-80106359D01*
X205461785Y-80009587D01*
X205621347Y-79924747D01*
X205836475Y-79749293D01*
X206013426Y-79535396D01*
X206145461Y-79291202D01*
X206227551Y-79026013D01*
X206256568Y-78749930D01*
X206231408Y-78473469D01*
X206153029Y-78207160D01*
X206024417Y-77961146D01*
X205850469Y-77744799D01*
X205637812Y-77566359D01*
X205461785Y-77469587D01*
X205621347Y-77384747D01*
X205836475Y-77209293D01*
X206013426Y-76995396D01*
X206145461Y-76751202D01*
X206227551Y-76486013D01*
X206256568Y-76209930D01*
X206231408Y-75933469D01*
X206153029Y-75667160D01*
X206024417Y-75421146D01*
X205850469Y-75204799D01*
X205637812Y-75026359D01*
X205461785Y-74929587D01*
X205621347Y-74844747D01*
X205836475Y-74669293D01*
X206013426Y-74455396D01*
X206145461Y-74211202D01*
X206227551Y-73946013D01*
X206256568Y-73669930D01*
X206231408Y-73393469D01*
X206153029Y-73127160D01*
X206024417Y-72881146D01*
X205850469Y-72664799D01*
X205637812Y-72486359D01*
X205461785Y-72389587D01*
X205621347Y-72304747D01*
X205836475Y-72129293D01*
X206013426Y-71915396D01*
X206145461Y-71671202D01*
X206227551Y-71406013D01*
X206256568Y-71129930D01*
X206231408Y-70853469D01*
X206153029Y-70587160D01*
X206024417Y-70341146D01*
X205850469Y-70124799D01*
X205637812Y-69946359D01*
X205394546Y-69812622D01*
X205129937Y-69728683D01*
X204854063Y-69697739D01*
X204834203Y-69697600D01*
X204105797Y-69697600D01*
X203829518Y-69724689D01*
X203563762Y-69804926D01*
X203318653Y-69935253D01*
X203156423Y-70067563D01*
X202937048Y-69883485D01*
X202680749Y-69742584D01*
X202401964Y-69654148D01*
X202111312Y-69621546D01*
X202090388Y-69621400D01*
X201769612Y-69621400D01*
X201478532Y-69649941D01*
X201198540Y-69734475D01*
X201041000Y-69818240D01*
X201041000Y-68834000D01*
X201034121Y-68763849D01*
X201027996Y-68693829D01*
X201026879Y-68689985D01*
X201026488Y-68685993D01*
X201006126Y-68618552D01*
X200986506Y-68551018D01*
X200984662Y-68547462D01*
X200983504Y-68543624D01*
X200950433Y-68481427D01*
X200918066Y-68418985D01*
X200915568Y-68415856D01*
X200913686Y-68412316D01*
X200869194Y-68357763D01*
X200848978Y-68332439D01*
X200850546Y-68220150D01*
X200809426Y-68012481D01*
X200728754Y-67816753D01*
X200611600Y-67640423D01*
X200462428Y-67490207D01*
X200286921Y-67371825D01*
X200091761Y-67289788D01*
X199884384Y-67247219D01*
X199672689Y-67245741D01*
X199464738Y-67285410D01*
X199440000Y-67295404D01*
X199440000Y-61333780D01*
X199455608Y-61347042D01*
X199619011Y-61420519D01*
X199796400Y-61445672D01*
X201523600Y-61445672D01*
X201626643Y-61437297D01*
X201797641Y-61383827D01*
X201947034Y-61284926D01*
X202063042Y-61148392D01*
X202130118Y-60999223D01*
X202136637Y-61007216D01*
X202361994Y-61193647D01*
X202619269Y-61332755D01*
X202898665Y-61419242D01*
X203189538Y-61449814D01*
X203480810Y-61423307D01*
X203761385Y-61340729D01*
X204020578Y-61205226D01*
X204248515Y-61021960D01*
X204436515Y-60797911D01*
X204469299Y-60738276D01*
X204491784Y-60780564D01*
X204676637Y-61007216D01*
X204901994Y-61193647D01*
X205159269Y-61332755D01*
X205438665Y-61419242D01*
X205729538Y-61449814D01*
X206020810Y-61423307D01*
X206301385Y-61340729D01*
X206560578Y-61205226D01*
X206788515Y-61021960D01*
X206976515Y-60797911D01*
X207009299Y-60738276D01*
X207031784Y-60780564D01*
X207216637Y-61007216D01*
X207441994Y-61193647D01*
X207518000Y-61234743D01*
X207518000Y-64835369D01*
X205487928Y-66865440D01*
X205387689Y-66864741D01*
X205179738Y-66904410D01*
X204983452Y-66983715D01*
X204806308Y-67099634D01*
X204655054Y-67247753D01*
X204535450Y-67422431D01*
X204452052Y-67617012D01*
X204408037Y-67824087D01*
X204405081Y-68035767D01*
X204443297Y-68243990D01*
X204521230Y-68440825D01*
X204635910Y-68618773D01*
X204782969Y-68771058D01*
X204956807Y-68891879D01*
X205150802Y-68976633D01*
X205357564Y-69022093D01*
X205569219Y-69026526D01*
X205777704Y-68989765D01*
X205975077Y-68913208D01*
X206153822Y-68799773D01*
X206307130Y-68653780D01*
X206429161Y-68480790D01*
X206515268Y-68287392D01*
X206562170Y-68080952D01*
X206564074Y-67944555D01*
X208818816Y-65689815D01*
X208863537Y-65635370D01*
X208908736Y-65581505D01*
X208910664Y-65577997D01*
X208913211Y-65574897D01*
X208946509Y-65512796D01*
X208980381Y-65451184D01*
X208981591Y-65447368D01*
X208983487Y-65443833D01*
X209004088Y-65376448D01*
X209025348Y-65309429D01*
X209025794Y-65305451D01*
X209026967Y-65301615D01*
X209034080Y-65231577D01*
X209041926Y-65161639D01*
X209041980Y-65153802D01*
X209041995Y-65153660D01*
X209041982Y-65153526D01*
X209042000Y-65151000D01*
X209042000Y-61235849D01*
X209100578Y-61205226D01*
X209328515Y-61021960D01*
X209516515Y-60797911D01*
X209553077Y-60731404D01*
X209613183Y-60832488D01*
X209809707Y-61050854D01*
X210045056Y-61226684D01*
X210310186Y-61353222D01*
X210460974Y-61398958D01*
X210693000Y-61277817D01*
X210693000Y-60071000D01*
X210673000Y-60071000D01*
X210673000Y-59817000D01*
X210693000Y-59817000D01*
X210693000Y-59797000D01*
X210947000Y-59797000D01*
X210947000Y-59817000D01*
X210967000Y-59817000D01*
X210967000Y-60071000D01*
X210947000Y-60071000D01*
X210947000Y-61277817D01*
X211179026Y-61398958D01*
X211329814Y-61353222D01*
X211594944Y-61226684D01*
X211830293Y-61050854D01*
X212026817Y-60832488D01*
X212086248Y-60732538D01*
X212111784Y-60780564D01*
X212296637Y-61007216D01*
X212521994Y-61193647D01*
X212779269Y-61332755D01*
X213058665Y-61419242D01*
X213349538Y-61449814D01*
X213640810Y-61423307D01*
X213921385Y-61340729D01*
X214180578Y-61205226D01*
X214408515Y-61021960D01*
X214596515Y-60797911D01*
X214629299Y-60738276D01*
X214651784Y-60780564D01*
X214836637Y-61007216D01*
X215061994Y-61193647D01*
X215319269Y-61332755D01*
X215598665Y-61419242D01*
X215889538Y-61449814D01*
X216180810Y-61423307D01*
X216461385Y-61340729D01*
X216720578Y-61205226D01*
X216948515Y-61021960D01*
X217120000Y-60817592D01*
X217120000Y-96925000D01*
X217120011Y-96925121D01*
X217120004Y-96927420D01*
X217120041Y-96937892D01*
X217123064Y-96967648D01*
X217122856Y-96997554D01*
X217123789Y-97007073D01*
X217154389Y-97298218D01*
X217166877Y-97359054D01*
X217178507Y-97420021D01*
X217181271Y-97429177D01*
X217267839Y-97708833D01*
X217291896Y-97766062D01*
X217315156Y-97823632D01*
X217319646Y-97832077D01*
X217458885Y-98089593D01*
X217493604Y-98141065D01*
X217527597Y-98193012D01*
X217533642Y-98200424D01*
X217533644Y-98200426D01*
X217720247Y-98425991D01*
X217764300Y-98469738D01*
X217807739Y-98514096D01*
X217815109Y-98520193D01*
X218041973Y-98705219D01*
X218093690Y-98739580D01*
X218144912Y-98774652D01*
X218153325Y-98779201D01*
X218411806Y-98916638D01*
X218469241Y-98940311D01*
X218526270Y-98964754D01*
X218535407Y-98967583D01*
X218815661Y-99052197D01*
X218876576Y-99064258D01*
X218937293Y-99077164D01*
X218946804Y-99078164D01*
X219238156Y-99106731D01*
X219266887Y-99106730D01*
X219295436Y-99109933D01*
X219305000Y-99110000D01*
X220817762Y-99110000D01*
X220817762Y-103581000D01*
X232360000Y-103581000D01*
X232360000Y-104106495D01*
M02*
