G04 #@! TF.FileFunction,Legend,Top*
%FSLAX46Y46*%
G04 Gerber Fmt 4.6, Leading zero omitted, Abs format (unit mm)*
G04 Created by KiCad (PCBNEW (2015-04-22 BZR 5620)-product) date 26/04/2015 14:37:40*
%MOMM*%
G01*
G04 APERTURE LIST*
%ADD10C,0.100000*%
%ADD11C,0.175000*%
%ADD12C,0.125000*%
%ADD13C,0.225000*%
%ADD14C,0.200000*%
%ADD15C,0.127000*%
%ADD16C,0.250000*%
%ADD17C,0.400000*%
%ADD18C,0.150000*%
%ADD19C,0.190500*%
%ADD20C,0.125600*%
%ADD21C,0.203200*%
G04 APERTURE END LIST*
D10*
D11*
X209002286Y-50997643D02*
X209002286Y-50097643D01*
X209216571Y-50097643D01*
X209345143Y-50140500D01*
X209430857Y-50226214D01*
X209473714Y-50311929D01*
X209516571Y-50483357D01*
X209516571Y-50611929D01*
X209473714Y-50783357D01*
X209430857Y-50869071D01*
X209345143Y-50954786D01*
X209216571Y-50997643D01*
X209002286Y-50997643D01*
X209902286Y-50526214D02*
X210202286Y-50526214D01*
X210330857Y-50997643D02*
X209902286Y-50997643D01*
X209902286Y-50097643D01*
X210330857Y-50097643D01*
X211016572Y-50526214D02*
X211145143Y-50569071D01*
X211188000Y-50611929D01*
X211230857Y-50697643D01*
X211230857Y-50826214D01*
X211188000Y-50911929D01*
X211145143Y-50954786D01*
X211059429Y-50997643D01*
X210716572Y-50997643D01*
X210716572Y-50097643D01*
X211016572Y-50097643D01*
X211102286Y-50140500D01*
X211145143Y-50183357D01*
X211188000Y-50269071D01*
X211188000Y-50354786D01*
X211145143Y-50440500D01*
X211102286Y-50483357D01*
X211016572Y-50526214D01*
X210716572Y-50526214D01*
X211616572Y-50097643D02*
X211616572Y-50826214D01*
X211659429Y-50911929D01*
X211702286Y-50954786D01*
X211788000Y-50997643D01*
X211959429Y-50997643D01*
X212045143Y-50954786D01*
X212088000Y-50911929D01*
X212130857Y-50826214D01*
X212130857Y-50097643D01*
X213030857Y-50140500D02*
X212945143Y-50097643D01*
X212816572Y-50097643D01*
X212688000Y-50140500D01*
X212602286Y-50226214D01*
X212559429Y-50311929D01*
X212516572Y-50483357D01*
X212516572Y-50611929D01*
X212559429Y-50783357D01*
X212602286Y-50869071D01*
X212688000Y-50954786D01*
X212816572Y-50997643D01*
X212902286Y-50997643D01*
X213030857Y-50954786D01*
X213073714Y-50911929D01*
X213073714Y-50611929D01*
X212902286Y-50611929D01*
X209002286Y-52432643D02*
X209002286Y-51532643D01*
X209345143Y-51532643D01*
X209430857Y-51575500D01*
X209473714Y-51618357D01*
X209516571Y-51704071D01*
X209516571Y-51832643D01*
X209473714Y-51918357D01*
X209430857Y-51961214D01*
X209345143Y-52004071D01*
X209002286Y-52004071D01*
X210073714Y-51532643D02*
X210245143Y-51532643D01*
X210330857Y-51575500D01*
X210416571Y-51661214D01*
X210459429Y-51832643D01*
X210459429Y-52132643D01*
X210416571Y-52304071D01*
X210330857Y-52389786D01*
X210245143Y-52432643D01*
X210073714Y-52432643D01*
X209988000Y-52389786D01*
X209902286Y-52304071D01*
X209859429Y-52132643D01*
X209859429Y-51832643D01*
X209902286Y-51661214D01*
X209988000Y-51575500D01*
X210073714Y-51532643D01*
X210759428Y-51532643D02*
X210973714Y-52432643D01*
X211145143Y-51789786D01*
X211316571Y-52432643D01*
X211530857Y-51532643D01*
X211873714Y-51961214D02*
X212173714Y-51961214D01*
X212302285Y-52432643D02*
X211873714Y-52432643D01*
X211873714Y-51532643D01*
X212302285Y-51532643D01*
X213202285Y-52432643D02*
X212902285Y-52004071D01*
X212688000Y-52432643D02*
X212688000Y-51532643D01*
X213030857Y-51532643D01*
X213116571Y-51575500D01*
X213159428Y-51618357D01*
X213202285Y-51704071D01*
X213202285Y-51832643D01*
X213159428Y-51918357D01*
X213116571Y-51961214D01*
X213030857Y-52004071D01*
X212688000Y-52004071D01*
X200713334Y-48529143D02*
X201113334Y-48529143D01*
X200913334Y-49429143D02*
X200913334Y-48529143D01*
X201480000Y-48529143D02*
X201613333Y-48529143D01*
X201680000Y-48572000D01*
X201746667Y-48657714D01*
X201780000Y-48829143D01*
X201780000Y-49129143D01*
X201746667Y-49300571D01*
X201680000Y-49386286D01*
X201613333Y-49429143D01*
X201480000Y-49429143D01*
X201413333Y-49386286D01*
X201346667Y-49300571D01*
X201313333Y-49129143D01*
X201313333Y-48829143D01*
X201346667Y-48657714D01*
X201413333Y-48572000D01*
X201480000Y-48529143D01*
X202213333Y-48529143D02*
X202346666Y-48529143D01*
X202413333Y-48572000D01*
X202480000Y-48657714D01*
X202513333Y-48829143D01*
X202513333Y-49129143D01*
X202480000Y-49300571D01*
X202413333Y-49386286D01*
X202346666Y-49429143D01*
X202213333Y-49429143D01*
X202146666Y-49386286D01*
X202080000Y-49300571D01*
X202046666Y-49129143D01*
X202046666Y-48829143D01*
X202080000Y-48657714D01*
X202146666Y-48572000D01*
X202213333Y-48529143D01*
X203146666Y-49429143D02*
X202813333Y-49429143D01*
X202813333Y-48529143D01*
X205480668Y-48529143D02*
X205880668Y-48529143D01*
X205680668Y-49429143D02*
X205680668Y-48529143D01*
X206080667Y-49172000D02*
X206414001Y-49172000D01*
X206014001Y-49429143D02*
X206247334Y-48529143D01*
X206480667Y-49429143D01*
X207114001Y-49429143D02*
X206880667Y-49000571D01*
X206714001Y-49429143D02*
X206714001Y-48529143D01*
X206980667Y-48529143D01*
X207047334Y-48572000D01*
X207080667Y-48614857D01*
X207114001Y-48700571D01*
X207114001Y-48829143D01*
X207080667Y-48914857D01*
X207047334Y-48957714D01*
X206980667Y-49000571D01*
X206714001Y-49000571D01*
X207780667Y-48572000D02*
X207714001Y-48529143D01*
X207614001Y-48529143D01*
X207514001Y-48572000D01*
X207447334Y-48657714D01*
X207414001Y-48743429D01*
X207380667Y-48914857D01*
X207380667Y-49043429D01*
X207414001Y-49214857D01*
X207447334Y-49300571D01*
X207514001Y-49386286D01*
X207614001Y-49429143D01*
X207680667Y-49429143D01*
X207780667Y-49386286D01*
X207814001Y-49343429D01*
X207814001Y-49043429D01*
X207680667Y-49043429D01*
X208114001Y-48957714D02*
X208347334Y-48957714D01*
X208447334Y-49429143D02*
X208114001Y-49429143D01*
X208114001Y-48529143D01*
X208447334Y-48529143D01*
X208647334Y-48529143D02*
X209047334Y-48529143D01*
X208847334Y-49429143D02*
X208847334Y-48529143D01*
D12*
X202483334Y-54226667D02*
X202883334Y-54226667D01*
X202683334Y-54926667D02*
X202683334Y-54226667D01*
X203416667Y-54460000D02*
X203416667Y-55026667D01*
X203383333Y-55093333D01*
X203350000Y-55126667D01*
X203283333Y-55160000D01*
X203183333Y-55160000D01*
X203116667Y-55126667D01*
X203416667Y-54893333D02*
X203350000Y-54926667D01*
X203216667Y-54926667D01*
X203150000Y-54893333D01*
X203116667Y-54860000D01*
X203083333Y-54793333D01*
X203083333Y-54593333D01*
X203116667Y-54526667D01*
X203150000Y-54493333D01*
X203216667Y-54460000D01*
X203350000Y-54460000D01*
X203416667Y-54493333D01*
X203650000Y-54460000D02*
X203916666Y-54460000D01*
X203750000Y-54226667D02*
X203750000Y-54826667D01*
X203783333Y-54893333D01*
X203850000Y-54926667D01*
X203916666Y-54926667D01*
X210286667Y-62896000D02*
X210220001Y-62862667D01*
X210120001Y-62862667D01*
X210020001Y-62896000D01*
X209953334Y-62962667D01*
X209920001Y-63029333D01*
X209886667Y-63162667D01*
X209886667Y-63262667D01*
X209920001Y-63396000D01*
X209953334Y-63462667D01*
X210020001Y-63529333D01*
X210120001Y-63562667D01*
X210186667Y-63562667D01*
X210286667Y-63529333D01*
X210320001Y-63496000D01*
X210320001Y-63262667D01*
X210186667Y-63262667D01*
X210620001Y-63562667D02*
X210620001Y-62862667D01*
X211020001Y-63562667D01*
X211020001Y-62862667D01*
X211353334Y-63562667D02*
X211353334Y-62862667D01*
X211520000Y-62862667D01*
X211620000Y-62896000D01*
X211686667Y-62962667D01*
X211720000Y-63029333D01*
X211753334Y-63162667D01*
X211753334Y-63262667D01*
X211720000Y-63396000D01*
X211686667Y-63462667D01*
X211620000Y-63529333D01*
X211520000Y-63562667D01*
X211353334Y-63562667D01*
X207380001Y-62862667D02*
X207780001Y-62862667D01*
X207580001Y-63562667D02*
X207580001Y-62862667D01*
X208413334Y-63496000D02*
X208380000Y-63529333D01*
X208280000Y-63562667D01*
X208213334Y-63562667D01*
X208113334Y-63529333D01*
X208046667Y-63462667D01*
X208013334Y-63396000D01*
X207980000Y-63262667D01*
X207980000Y-63162667D01*
X208013334Y-63029333D01*
X208046667Y-62962667D01*
X208113334Y-62896000D01*
X208213334Y-62862667D01*
X208280000Y-62862667D01*
X208380000Y-62896000D01*
X208413334Y-62929333D01*
X208713334Y-63562667D02*
X208713334Y-62862667D01*
X209113334Y-63562667D02*
X208813334Y-63162667D01*
X209113334Y-62862667D02*
X208713334Y-63262667D01*
X199576668Y-62862667D02*
X199976668Y-62862667D01*
X199776668Y-63562667D02*
X199776668Y-62862667D01*
X200210001Y-63562667D02*
X200210001Y-62862667D01*
X200376667Y-62862667D01*
X200476667Y-62896000D01*
X200543334Y-62962667D01*
X200576667Y-63029333D01*
X200610001Y-63162667D01*
X200610001Y-63262667D01*
X200576667Y-63396000D01*
X200543334Y-63462667D01*
X200476667Y-63529333D01*
X200376667Y-63562667D01*
X200210001Y-63562667D01*
X200910001Y-63562667D02*
X200910001Y-62862667D01*
X201376667Y-62862667D02*
X201510000Y-62862667D01*
X201576667Y-62896000D01*
X201643334Y-62962667D01*
X201676667Y-63096000D01*
X201676667Y-63329333D01*
X201643334Y-63462667D01*
X201576667Y-63529333D01*
X201510000Y-63562667D01*
X201376667Y-63562667D01*
X201310000Y-63529333D01*
X201243334Y-63462667D01*
X201210000Y-63329333D01*
X201210000Y-63096000D01*
X201243334Y-62962667D01*
X201310000Y-62896000D01*
X201376667Y-62862667D01*
X199643334Y-54226667D02*
X200043334Y-54226667D01*
X199843334Y-54926667D02*
X199843334Y-54226667D01*
X200376667Y-54926667D02*
X200310000Y-54893333D01*
X200276667Y-54860000D01*
X200243333Y-54793333D01*
X200243333Y-54593333D01*
X200276667Y-54526667D01*
X200310000Y-54493333D01*
X200376667Y-54460000D01*
X200476667Y-54460000D01*
X200543333Y-54493333D01*
X200576667Y-54526667D01*
X200610000Y-54593333D01*
X200610000Y-54793333D01*
X200576667Y-54860000D01*
X200543333Y-54893333D01*
X200476667Y-54926667D01*
X200376667Y-54926667D01*
X201010000Y-54926667D02*
X200943333Y-54893333D01*
X200910000Y-54860000D01*
X200876666Y-54793333D01*
X200876666Y-54593333D01*
X200910000Y-54526667D01*
X200943333Y-54493333D01*
X201010000Y-54460000D01*
X201110000Y-54460000D01*
X201176666Y-54493333D01*
X201210000Y-54526667D01*
X201243333Y-54593333D01*
X201243333Y-54793333D01*
X201210000Y-54860000D01*
X201176666Y-54893333D01*
X201110000Y-54926667D01*
X201010000Y-54926667D01*
X201643333Y-54926667D02*
X201576666Y-54893333D01*
X201543333Y-54826667D01*
X201543333Y-54226667D01*
D13*
X205868475Y-55062381D02*
X205868475Y-54062381D01*
X206201809Y-54776667D01*
X206535142Y-54062381D01*
X206535142Y-55062381D01*
X206963713Y-55014762D02*
X207106570Y-55062381D01*
X207344666Y-55062381D01*
X207439904Y-55014762D01*
X207487523Y-54967143D01*
X207535142Y-54871905D01*
X207535142Y-54776667D01*
X207487523Y-54681429D01*
X207439904Y-54633810D01*
X207344666Y-54586190D01*
X207154189Y-54538571D01*
X207058951Y-54490952D01*
X207011332Y-54443333D01*
X206963713Y-54348095D01*
X206963713Y-54252857D01*
X207011332Y-54157619D01*
X207058951Y-54110000D01*
X207154189Y-54062381D01*
X207392285Y-54062381D01*
X207535142Y-54110000D01*
X207963713Y-55062381D02*
X207963713Y-54062381D01*
X208344666Y-54062381D01*
X208439904Y-54110000D01*
X208487523Y-54157619D01*
X208535142Y-54252857D01*
X208535142Y-54395714D01*
X208487523Y-54490952D01*
X208439904Y-54538571D01*
X208344666Y-54586190D01*
X207963713Y-54586190D01*
X208963713Y-54681429D02*
X209725618Y-54681429D01*
X210535142Y-54538571D02*
X210201808Y-54538571D01*
X210201808Y-55062381D02*
X210201808Y-54062381D01*
X210677999Y-54062381D01*
X211058951Y-54538571D02*
X211392285Y-54538571D01*
X211535142Y-55062381D02*
X211058951Y-55062381D01*
X211058951Y-54062381D01*
X211535142Y-54062381D01*
X211820856Y-54062381D02*
X212392285Y-54062381D01*
X212106570Y-55062381D02*
X212106570Y-54062381D01*
X213773238Y-55395714D02*
X213535142Y-55395714D01*
X213535142Y-53967143D01*
X213773238Y-53967143D01*
X214106571Y-55014762D02*
X214249428Y-55062381D01*
X214487524Y-55062381D01*
X214582762Y-55014762D01*
X214630381Y-54967143D01*
X214678000Y-54871905D01*
X214678000Y-54776667D01*
X214630381Y-54681429D01*
X214582762Y-54633810D01*
X214487524Y-54586190D01*
X214297047Y-54538571D01*
X214201809Y-54490952D01*
X214154190Y-54443333D01*
X214106571Y-54348095D01*
X214106571Y-54252857D01*
X214154190Y-54157619D01*
X214201809Y-54110000D01*
X214297047Y-54062381D01*
X214535143Y-54062381D01*
X214678000Y-54110000D01*
X215439905Y-54538571D02*
X215582762Y-54586190D01*
X215630381Y-54633810D01*
X215678000Y-54729048D01*
X215678000Y-54871905D01*
X215630381Y-54967143D01*
X215582762Y-55014762D01*
X215487524Y-55062381D01*
X215106571Y-55062381D01*
X215106571Y-54062381D01*
X215439905Y-54062381D01*
X215535143Y-54110000D01*
X215582762Y-54157619D01*
X215630381Y-54252857D01*
X215630381Y-54348095D01*
X215582762Y-54443333D01*
X215535143Y-54490952D01*
X215439905Y-54538571D01*
X215106571Y-54538571D01*
X216011333Y-54062381D02*
X216249428Y-55062381D01*
X216439905Y-54348095D01*
X216630381Y-55062381D01*
X216868476Y-54062381D01*
X217154190Y-55395714D02*
X217392285Y-55395714D01*
X217392285Y-53967143D01*
X217154190Y-53967143D01*
D11*
X216508857Y-71820000D02*
X216466000Y-71786666D01*
X216423143Y-71720000D01*
X216423143Y-71553333D01*
X216466000Y-71486666D01*
X216508857Y-71453333D01*
X216594571Y-71420000D01*
X216680286Y-71420000D01*
X216808857Y-71453333D01*
X217323143Y-71853333D01*
X217323143Y-71420000D01*
X217237429Y-71119999D02*
X217280286Y-71086666D01*
X217323143Y-71119999D01*
X217280286Y-71153333D01*
X217237429Y-71119999D01*
X217323143Y-71119999D01*
X216508857Y-70820000D02*
X216466000Y-70786666D01*
X216423143Y-70720000D01*
X216423143Y-70553333D01*
X216466000Y-70486666D01*
X216508857Y-70453333D01*
X216594571Y-70420000D01*
X216680286Y-70420000D01*
X216808857Y-70453333D01*
X217323143Y-70853333D01*
X217323143Y-70420000D01*
X216508857Y-74360000D02*
X216466000Y-74326666D01*
X216423143Y-74260000D01*
X216423143Y-74093333D01*
X216466000Y-74026666D01*
X216508857Y-73993333D01*
X216594571Y-73960000D01*
X216680286Y-73960000D01*
X216808857Y-73993333D01*
X217323143Y-74393333D01*
X217323143Y-73960000D01*
X217237429Y-73659999D02*
X217280286Y-73626666D01*
X217323143Y-73659999D01*
X217280286Y-73693333D01*
X217237429Y-73659999D01*
X217323143Y-73659999D01*
X217323143Y-72960000D02*
X217323143Y-73360000D01*
X217323143Y-73160000D02*
X216423143Y-73160000D01*
X216551714Y-73226666D01*
X216637429Y-73293333D01*
X216680286Y-73360000D01*
X216423143Y-94913333D02*
X217323143Y-94680000D01*
X216423143Y-94446667D01*
X217237429Y-93813333D02*
X217280286Y-93846667D01*
X217323143Y-93946667D01*
X217323143Y-94013333D01*
X217280286Y-94113333D01*
X217194571Y-94180000D01*
X217108857Y-94213333D01*
X216937429Y-94246667D01*
X216808857Y-94246667D01*
X216637429Y-94213333D01*
X216551714Y-94180000D01*
X216466000Y-94113333D01*
X216423143Y-94013333D01*
X216423143Y-93946667D01*
X216466000Y-93846667D01*
X216508857Y-93813333D01*
X217237429Y-93113333D02*
X217280286Y-93146667D01*
X217323143Y-93246667D01*
X217323143Y-93313333D01*
X217280286Y-93413333D01*
X217194571Y-93480000D01*
X217108857Y-93513333D01*
X216937429Y-93546667D01*
X216808857Y-93546667D01*
X216637429Y-93513333D01*
X216551714Y-93480000D01*
X216466000Y-93413333D01*
X216423143Y-93313333D01*
X216423143Y-93246667D01*
X216466000Y-93146667D01*
X216508857Y-93113333D01*
X204730333Y-103996286D02*
X204830333Y-104039143D01*
X204997000Y-104039143D01*
X205063667Y-103996286D01*
X205097000Y-103953429D01*
X205130333Y-103867714D01*
X205130333Y-103782000D01*
X205097000Y-103696286D01*
X205063667Y-103653429D01*
X204997000Y-103610571D01*
X204863667Y-103567714D01*
X204797000Y-103524857D01*
X204763667Y-103482000D01*
X204730333Y-103396286D01*
X204730333Y-103310571D01*
X204763667Y-103224857D01*
X204797000Y-103182000D01*
X204863667Y-103139143D01*
X205030333Y-103139143D01*
X205130333Y-103182000D01*
X205563667Y-103139143D02*
X205697000Y-103139143D01*
X205763667Y-103182000D01*
X205830334Y-103267714D01*
X205863667Y-103439143D01*
X205863667Y-103739143D01*
X205830334Y-103910571D01*
X205763667Y-103996286D01*
X205697000Y-104039143D01*
X205563667Y-104039143D01*
X205497000Y-103996286D01*
X205430334Y-103910571D01*
X205397000Y-103739143D01*
X205397000Y-103439143D01*
X205430334Y-103267714D01*
X205497000Y-103182000D01*
X205563667Y-103139143D01*
X206163667Y-104039143D02*
X206163667Y-103139143D01*
X206397000Y-103782000D01*
X206630333Y-103139143D01*
X206630333Y-104039143D01*
X206963667Y-104039143D02*
X206963667Y-103139143D01*
X204763667Y-105679143D02*
X204763667Y-106407714D01*
X204797000Y-106493429D01*
X204830333Y-106536286D01*
X204897000Y-106579143D01*
X205030333Y-106579143D01*
X205097000Y-106536286D01*
X205130333Y-106493429D01*
X205163667Y-106407714D01*
X205163667Y-105679143D01*
X205897000Y-106493429D02*
X205863666Y-106536286D01*
X205763666Y-106579143D01*
X205697000Y-106579143D01*
X205597000Y-106536286D01*
X205530333Y-106450571D01*
X205497000Y-106364857D01*
X205463666Y-106193429D01*
X205463666Y-106064857D01*
X205497000Y-105893429D01*
X205530333Y-105807714D01*
X205597000Y-105722000D01*
X205697000Y-105679143D01*
X205763666Y-105679143D01*
X205863666Y-105722000D01*
X205897000Y-105764857D01*
X206530333Y-106579143D02*
X206197000Y-106579143D01*
X206197000Y-105679143D01*
X206763667Y-106579143D02*
X206763667Y-105679143D01*
X207163667Y-106579143D02*
X206863667Y-106064857D01*
X207163667Y-105679143D02*
X206763667Y-106193429D01*
X204763667Y-109119143D02*
X204763667Y-108219143D01*
X205030333Y-108219143D01*
X205097000Y-108262000D01*
X205130333Y-108304857D01*
X205163667Y-108390571D01*
X205163667Y-108519143D01*
X205130333Y-108604857D01*
X205097000Y-108647714D01*
X205030333Y-108690571D01*
X204763667Y-108690571D01*
X205463667Y-109119143D02*
X205463667Y-108219143D01*
X205630333Y-108219143D01*
X205730333Y-108262000D01*
X205797000Y-108347714D01*
X205830333Y-108433429D01*
X205863667Y-108604857D01*
X205863667Y-108733429D01*
X205830333Y-108904857D01*
X205797000Y-108990571D01*
X205730333Y-109076286D01*
X205630333Y-109119143D01*
X205463667Y-109119143D01*
X206097000Y-108219143D02*
X206530333Y-108219143D01*
X206297000Y-108562000D01*
X206397000Y-108562000D01*
X206463667Y-108604857D01*
X206497000Y-108647714D01*
X206530333Y-108733429D01*
X206530333Y-108947714D01*
X206497000Y-109033429D01*
X206463667Y-109076286D01*
X206397000Y-109119143D01*
X206197000Y-109119143D01*
X206130333Y-109076286D01*
X206097000Y-109033429D01*
X204730333Y-114156286D02*
X204830333Y-114199143D01*
X204997000Y-114199143D01*
X205063667Y-114156286D01*
X205097000Y-114113429D01*
X205130333Y-114027714D01*
X205130333Y-113942000D01*
X205097000Y-113856286D01*
X205063667Y-113813429D01*
X204997000Y-113770571D01*
X204863667Y-113727714D01*
X204797000Y-113684857D01*
X204763667Y-113642000D01*
X204730333Y-113556286D01*
X204730333Y-113470571D01*
X204763667Y-113384857D01*
X204797000Y-113342000D01*
X204863667Y-113299143D01*
X205030333Y-113299143D01*
X205130333Y-113342000D01*
X205430334Y-114199143D02*
X205430334Y-113299143D01*
X205597000Y-113299143D01*
X205697000Y-113342000D01*
X205763667Y-113427714D01*
X205797000Y-113513429D01*
X205830334Y-113684857D01*
X205830334Y-113813429D01*
X205797000Y-113984857D01*
X205763667Y-114070571D01*
X205697000Y-114156286D01*
X205597000Y-114199143D01*
X205430334Y-114199143D01*
X206097000Y-113942000D02*
X206430334Y-113942000D01*
X206030334Y-114199143D02*
X206263667Y-113299143D01*
X206497000Y-114199143D01*
X204663667Y-115839143D02*
X205063667Y-115839143D01*
X204863667Y-116739143D02*
X204863667Y-115839143D01*
X205230333Y-115839143D02*
X205697000Y-116739143D01*
X205697000Y-115839143D02*
X205230333Y-116739143D01*
X205963667Y-116739143D02*
X205963667Y-115839143D01*
X206130333Y-115839143D01*
X206230333Y-115882000D01*
X206297000Y-115967714D01*
X206330333Y-116053429D01*
X206363667Y-116224857D01*
X206363667Y-116353429D01*
X206330333Y-116524857D01*
X206297000Y-116610571D01*
X206230333Y-116696286D01*
X206130333Y-116739143D01*
X205963667Y-116739143D01*
X210590000Y-116739143D02*
X210356666Y-116310571D01*
X210190000Y-116739143D02*
X210190000Y-115839143D01*
X210456666Y-115839143D01*
X210523333Y-115882000D01*
X210556666Y-115924857D01*
X210590000Y-116010571D01*
X210590000Y-116139143D01*
X210556666Y-116224857D01*
X210523333Y-116267714D01*
X210456666Y-116310571D01*
X210190000Y-116310571D01*
X210823333Y-115839143D02*
X211290000Y-116739143D01*
X211290000Y-115839143D02*
X210823333Y-116739143D01*
X211556667Y-116739143D02*
X211556667Y-115839143D01*
X211723333Y-115839143D01*
X211823333Y-115882000D01*
X211890000Y-115967714D01*
X211923333Y-116053429D01*
X211956667Y-116224857D01*
X211956667Y-116353429D01*
X211923333Y-116524857D01*
X211890000Y-116610571D01*
X211823333Y-116696286D01*
X211723333Y-116739143D01*
X211556667Y-116739143D01*
X210162999Y-114156286D02*
X210262999Y-114199143D01*
X210429666Y-114199143D01*
X210496333Y-114156286D01*
X210529666Y-114113429D01*
X210562999Y-114027714D01*
X210562999Y-113942000D01*
X210529666Y-113856286D01*
X210496333Y-113813429D01*
X210429666Y-113770571D01*
X210296333Y-113727714D01*
X210229666Y-113684857D01*
X210196333Y-113642000D01*
X210162999Y-113556286D01*
X210162999Y-113470571D01*
X210196333Y-113384857D01*
X210229666Y-113342000D01*
X210296333Y-113299143D01*
X210462999Y-113299143D01*
X210562999Y-113342000D01*
X211263000Y-114113429D02*
X211229666Y-114156286D01*
X211129666Y-114199143D01*
X211063000Y-114199143D01*
X210963000Y-114156286D01*
X210896333Y-114070571D01*
X210863000Y-113984857D01*
X210829666Y-113813429D01*
X210829666Y-113684857D01*
X210863000Y-113513429D01*
X210896333Y-113427714D01*
X210963000Y-113342000D01*
X211063000Y-113299143D01*
X211129666Y-113299143D01*
X211229666Y-113342000D01*
X211263000Y-113384857D01*
X211896333Y-114199143D02*
X211563000Y-114199143D01*
X211563000Y-113299143D01*
X209690000Y-103996286D02*
X209790000Y-104039143D01*
X209956667Y-104039143D01*
X210023334Y-103996286D01*
X210056667Y-103953429D01*
X210090000Y-103867714D01*
X210090000Y-103782000D01*
X210056667Y-103696286D01*
X210023334Y-103653429D01*
X209956667Y-103610571D01*
X209823334Y-103567714D01*
X209756667Y-103524857D01*
X209723334Y-103482000D01*
X209690000Y-103396286D01*
X209690000Y-103310571D01*
X209723334Y-103224857D01*
X209756667Y-103182000D01*
X209823334Y-103139143D01*
X209990000Y-103139143D01*
X210090000Y-103182000D01*
X210390001Y-104039143D02*
X210390001Y-103139143D01*
X210723334Y-104039143D02*
X210723334Y-103139143D01*
X210956667Y-103782000D01*
X211190000Y-103139143D01*
X211190000Y-104039143D01*
X211656667Y-103139143D02*
X211790000Y-103139143D01*
X211856667Y-103182000D01*
X211923334Y-103267714D01*
X211956667Y-103439143D01*
X211956667Y-103739143D01*
X211923334Y-103910571D01*
X211856667Y-103996286D01*
X211790000Y-104039143D01*
X211656667Y-104039143D01*
X211590000Y-103996286D01*
X211523334Y-103910571D01*
X211490000Y-103739143D01*
X211490000Y-103439143D01*
X211523334Y-103267714D01*
X211590000Y-103182000D01*
X211656667Y-103139143D01*
X210263000Y-106536286D02*
X210363000Y-106579143D01*
X210529667Y-106579143D01*
X210596334Y-106536286D01*
X210629667Y-106493429D01*
X210663000Y-106407714D01*
X210663000Y-106322000D01*
X210629667Y-106236286D01*
X210596334Y-106193429D01*
X210529667Y-106150571D01*
X210396334Y-106107714D01*
X210329667Y-106064857D01*
X210296334Y-106022000D01*
X210263000Y-105936286D01*
X210263000Y-105850571D01*
X210296334Y-105764857D01*
X210329667Y-105722000D01*
X210396334Y-105679143D01*
X210563000Y-105679143D01*
X210663000Y-105722000D01*
X210863001Y-105679143D02*
X211263001Y-105679143D01*
X211063001Y-106579143D02*
X211063001Y-105679143D01*
X211496334Y-106107714D02*
X211729667Y-106107714D01*
X211829667Y-106579143D02*
X211496334Y-106579143D01*
X211496334Y-105679143D01*
X211829667Y-105679143D01*
X210129667Y-105524000D02*
X211963000Y-105524000D01*
X210629667Y-109119143D02*
X210396333Y-108690571D01*
X210229667Y-109119143D02*
X210229667Y-108219143D01*
X210496333Y-108219143D01*
X210563000Y-108262000D01*
X210596333Y-108304857D01*
X210629667Y-108390571D01*
X210629667Y-108519143D01*
X210596333Y-108604857D01*
X210563000Y-108647714D01*
X210496333Y-108690571D01*
X210229667Y-108690571D01*
X210896333Y-109076286D02*
X210996333Y-109119143D01*
X211163000Y-109119143D01*
X211229667Y-109076286D01*
X211263000Y-109033429D01*
X211296333Y-108947714D01*
X211296333Y-108862000D01*
X211263000Y-108776286D01*
X211229667Y-108733429D01*
X211163000Y-108690571D01*
X211029667Y-108647714D01*
X210963000Y-108604857D01*
X210929667Y-108562000D01*
X210896333Y-108476286D01*
X210896333Y-108390571D01*
X210929667Y-108304857D01*
X210963000Y-108262000D01*
X211029667Y-108219143D01*
X211196333Y-108219143D01*
X211296333Y-108262000D01*
X211496334Y-108219143D02*
X211896334Y-108219143D01*
X211696334Y-109119143D02*
X211696334Y-108219143D01*
X210063000Y-108064000D02*
X211963000Y-108064000D01*
X210029667Y-110759143D02*
X210263000Y-111659143D01*
X210496333Y-110759143D01*
X211129667Y-111573429D02*
X211096333Y-111616286D01*
X210996333Y-111659143D01*
X210929667Y-111659143D01*
X210829667Y-111616286D01*
X210763000Y-111530571D01*
X210729667Y-111444857D01*
X210696333Y-111273429D01*
X210696333Y-111144857D01*
X210729667Y-110973429D01*
X210763000Y-110887714D01*
X210829667Y-110802000D01*
X210929667Y-110759143D01*
X210996333Y-110759143D01*
X211096333Y-110802000D01*
X211129667Y-110844857D01*
X211829667Y-111573429D02*
X211796333Y-111616286D01*
X211696333Y-111659143D01*
X211629667Y-111659143D01*
X211529667Y-111616286D01*
X211463000Y-111530571D01*
X211429667Y-111444857D01*
X211396333Y-111273429D01*
X211396333Y-111144857D01*
X211429667Y-110973429D01*
X211463000Y-110887714D01*
X211529667Y-110802000D01*
X211629667Y-110759143D01*
X211696333Y-110759143D01*
X211796333Y-110802000D01*
X211829667Y-110844857D01*
X205130333Y-110802000D02*
X205063667Y-110759143D01*
X204963667Y-110759143D01*
X204863667Y-110802000D01*
X204797000Y-110887714D01*
X204763667Y-110973429D01*
X204730333Y-111144857D01*
X204730333Y-111273429D01*
X204763667Y-111444857D01*
X204797000Y-111530571D01*
X204863667Y-111616286D01*
X204963667Y-111659143D01*
X205030333Y-111659143D01*
X205130333Y-111616286D01*
X205163667Y-111573429D01*
X205163667Y-111273429D01*
X205030333Y-111273429D01*
X205463667Y-111659143D02*
X205463667Y-110759143D01*
X205863667Y-111659143D01*
X205863667Y-110759143D01*
X206197000Y-111659143D02*
X206197000Y-110759143D01*
X206363666Y-110759143D01*
X206463666Y-110802000D01*
X206530333Y-110887714D01*
X206563666Y-110973429D01*
X206597000Y-111144857D01*
X206597000Y-111273429D01*
X206563666Y-111444857D01*
X206530333Y-111530571D01*
X206463666Y-111616286D01*
X206363666Y-111659143D01*
X206197000Y-111659143D01*
D14*
X222758000Y-101981000D02*
X231394000Y-101981000D01*
D11*
X200094000Y-93446667D02*
X200136857Y-93380001D01*
X200136857Y-93280001D01*
X200094000Y-93180001D01*
X200008286Y-93113334D01*
X199922571Y-93080001D01*
X199751143Y-93046667D01*
X199622571Y-93046667D01*
X199451143Y-93080001D01*
X199365429Y-93113334D01*
X199279714Y-93180001D01*
X199236857Y-93280001D01*
X199236857Y-93346667D01*
X199279714Y-93446667D01*
X199322571Y-93480001D01*
X199622571Y-93480001D01*
X199622571Y-93346667D01*
X199236857Y-93780001D02*
X200136857Y-93780001D01*
X199236857Y-94180001D01*
X200136857Y-94180001D01*
X199236857Y-94513334D02*
X200136857Y-94513334D01*
X200136857Y-94680000D01*
X200094000Y-94780000D01*
X200008286Y-94846667D01*
X199922571Y-94880000D01*
X199751143Y-94913334D01*
X199622571Y-94913334D01*
X199451143Y-94880000D01*
X199365429Y-94846667D01*
X199279714Y-94780000D01*
X199236857Y-94680000D01*
X199236857Y-94513334D01*
X200051143Y-90740000D02*
X200094000Y-90773334D01*
X200136857Y-90840000D01*
X200136857Y-91006667D01*
X200094000Y-91073334D01*
X200051143Y-91106667D01*
X199965429Y-91140000D01*
X199879714Y-91140000D01*
X199751143Y-91106667D01*
X199236857Y-90706667D01*
X199236857Y-91140000D01*
X199322571Y-91440001D02*
X199279714Y-91473334D01*
X199236857Y-91440001D01*
X199279714Y-91406667D01*
X199322571Y-91440001D01*
X199236857Y-91440001D01*
X200136857Y-92073334D02*
X200136857Y-91940000D01*
X200094000Y-91873334D01*
X200051143Y-91840000D01*
X199922571Y-91773334D01*
X199751143Y-91740000D01*
X199408286Y-91740000D01*
X199322571Y-91773334D01*
X199279714Y-91806667D01*
X199236857Y-91873334D01*
X199236857Y-92006667D01*
X199279714Y-92073334D01*
X199322571Y-92106667D01*
X199408286Y-92140000D01*
X199622571Y-92140000D01*
X199708286Y-92106667D01*
X199751143Y-92073334D01*
X199794000Y-92006667D01*
X199794000Y-91873334D01*
X199751143Y-91806667D01*
X199708286Y-91773334D01*
X199622571Y-91740000D01*
X200051143Y-88200000D02*
X200094000Y-88233334D01*
X200136857Y-88300000D01*
X200136857Y-88466667D01*
X200094000Y-88533334D01*
X200051143Y-88566667D01*
X199965429Y-88600000D01*
X199879714Y-88600000D01*
X199751143Y-88566667D01*
X199236857Y-88166667D01*
X199236857Y-88600000D01*
X199322571Y-88900001D02*
X199279714Y-88933334D01*
X199236857Y-88900001D01*
X199279714Y-88866667D01*
X199322571Y-88900001D01*
X199236857Y-88900001D01*
X200136857Y-89166667D02*
X200136857Y-89633334D01*
X199236857Y-89333334D01*
X200051143Y-72960000D02*
X200094000Y-72993334D01*
X200136857Y-73060000D01*
X200136857Y-73226667D01*
X200094000Y-73293334D01*
X200051143Y-73326667D01*
X199965429Y-73360000D01*
X199879714Y-73360000D01*
X199751143Y-73326667D01*
X199236857Y-72926667D01*
X199236857Y-73360000D01*
X199322571Y-73660001D02*
X199279714Y-73693334D01*
X199236857Y-73660001D01*
X199279714Y-73626667D01*
X199322571Y-73660001D01*
X199236857Y-73660001D01*
X199836857Y-74293334D02*
X199236857Y-74293334D01*
X200179714Y-74126667D02*
X199536857Y-73960000D01*
X199536857Y-74393334D01*
X200051143Y-70420000D02*
X200094000Y-70453334D01*
X200136857Y-70520000D01*
X200136857Y-70686667D01*
X200094000Y-70753334D01*
X200051143Y-70786667D01*
X199965429Y-70820000D01*
X199879714Y-70820000D01*
X199751143Y-70786667D01*
X199236857Y-70386667D01*
X199236857Y-70820000D01*
X199322571Y-71120001D02*
X199279714Y-71153334D01*
X199236857Y-71120001D01*
X199279714Y-71086667D01*
X199322571Y-71120001D01*
X199236857Y-71120001D01*
X200136857Y-71386667D02*
X200136857Y-71820000D01*
X199794000Y-71586667D01*
X199794000Y-71686667D01*
X199751143Y-71753334D01*
X199708286Y-71786667D01*
X199622571Y-71820000D01*
X199408286Y-71820000D01*
X199322571Y-71786667D01*
X199279714Y-71753334D01*
X199236857Y-71686667D01*
X199236857Y-71486667D01*
X199279714Y-71420000D01*
X199322571Y-71386667D01*
X199236857Y-80980000D02*
X199236857Y-80580000D01*
X199236857Y-80780000D02*
X200136857Y-80780000D01*
X200008286Y-80713334D01*
X199922571Y-80646667D01*
X199879714Y-80580000D01*
X199322571Y-81280001D02*
X199279714Y-81313334D01*
X199236857Y-81280001D01*
X199279714Y-81246667D01*
X199322571Y-81280001D01*
X199236857Y-81280001D01*
X200136857Y-81546667D02*
X200136857Y-82013334D01*
X199236857Y-81713334D01*
X199236857Y-78440000D02*
X199236857Y-78040000D01*
X199236857Y-78240000D02*
X200136857Y-78240000D01*
X200008286Y-78173334D01*
X199922571Y-78106667D01*
X199879714Y-78040000D01*
X199322571Y-78740001D02*
X199279714Y-78773334D01*
X199236857Y-78740001D01*
X199279714Y-78706667D01*
X199322571Y-78740001D01*
X199236857Y-78740001D01*
X200136857Y-79373334D02*
X200136857Y-79240000D01*
X200094000Y-79173334D01*
X200051143Y-79140000D01*
X199922571Y-79073334D01*
X199751143Y-79040000D01*
X199408286Y-79040000D01*
X199322571Y-79073334D01*
X199279714Y-79106667D01*
X199236857Y-79173334D01*
X199236857Y-79306667D01*
X199279714Y-79373334D01*
X199322571Y-79406667D01*
X199408286Y-79440000D01*
X199622571Y-79440000D01*
X199708286Y-79406667D01*
X199751143Y-79373334D01*
X199794000Y-79306667D01*
X199794000Y-79173334D01*
X199751143Y-79106667D01*
X199708286Y-79073334D01*
X199622571Y-79040000D01*
X200051143Y-75500000D02*
X200094000Y-75533334D01*
X200136857Y-75600000D01*
X200136857Y-75766667D01*
X200094000Y-75833334D01*
X200051143Y-75866667D01*
X199965429Y-75900000D01*
X199879714Y-75900000D01*
X199751143Y-75866667D01*
X199236857Y-75466667D01*
X199236857Y-75900000D01*
X199322571Y-76200001D02*
X199279714Y-76233334D01*
X199236857Y-76200001D01*
X199279714Y-76166667D01*
X199322571Y-76200001D01*
X199236857Y-76200001D01*
X200136857Y-76866667D02*
X200136857Y-76533334D01*
X199708286Y-76500000D01*
X199751143Y-76533334D01*
X199794000Y-76600000D01*
X199794000Y-76766667D01*
X199751143Y-76833334D01*
X199708286Y-76866667D01*
X199622571Y-76900000D01*
X199408286Y-76900000D01*
X199322571Y-76866667D01*
X199279714Y-76833334D01*
X199236857Y-76766667D01*
X199236857Y-76600000D01*
X199279714Y-76533334D01*
X199322571Y-76500000D01*
X216508857Y-76900000D02*
X216466000Y-76866666D01*
X216423143Y-76800000D01*
X216423143Y-76633333D01*
X216466000Y-76566666D01*
X216508857Y-76533333D01*
X216594571Y-76500000D01*
X216680286Y-76500000D01*
X216808857Y-76533333D01*
X217323143Y-76933333D01*
X217323143Y-76500000D01*
X217237429Y-76199999D02*
X217280286Y-76166666D01*
X217323143Y-76199999D01*
X217280286Y-76233333D01*
X217237429Y-76199999D01*
X217323143Y-76199999D01*
X216423143Y-75733333D02*
X216423143Y-75666666D01*
X216466000Y-75600000D01*
X216508857Y-75566666D01*
X216594571Y-75533333D01*
X216766000Y-75500000D01*
X216980286Y-75500000D01*
X217151714Y-75533333D01*
X217237429Y-75566666D01*
X217280286Y-75600000D01*
X217323143Y-75666666D01*
X217323143Y-75733333D01*
X217280286Y-75800000D01*
X217237429Y-75833333D01*
X217151714Y-75866666D01*
X216980286Y-75900000D01*
X216766000Y-75900000D01*
X216594571Y-75866666D01*
X216508857Y-75833333D01*
X216466000Y-75800000D01*
X216423143Y-75733333D01*
X217323143Y-79040000D02*
X217323143Y-79440000D01*
X217323143Y-79240000D02*
X216423143Y-79240000D01*
X216551714Y-79306666D01*
X216637429Y-79373333D01*
X216680286Y-79440000D01*
X217237429Y-78739999D02*
X217280286Y-78706666D01*
X217323143Y-78739999D01*
X217280286Y-78773333D01*
X217237429Y-78739999D01*
X217323143Y-78739999D01*
X216423143Y-78073333D02*
X216423143Y-78406666D01*
X216851714Y-78440000D01*
X216808857Y-78406666D01*
X216766000Y-78340000D01*
X216766000Y-78173333D01*
X216808857Y-78106666D01*
X216851714Y-78073333D01*
X216937429Y-78040000D01*
X217151714Y-78040000D01*
X217237429Y-78073333D01*
X217280286Y-78106666D01*
X217323143Y-78173333D01*
X217323143Y-78340000D01*
X217280286Y-78406666D01*
X217237429Y-78440000D01*
X217323143Y-81580000D02*
X217323143Y-81980000D01*
X217323143Y-81780000D02*
X216423143Y-81780000D01*
X216551714Y-81846666D01*
X216637429Y-81913333D01*
X216680286Y-81980000D01*
X217237429Y-81279999D02*
X217280286Y-81246666D01*
X217323143Y-81279999D01*
X217280286Y-81313333D01*
X217237429Y-81279999D01*
X217323143Y-81279999D01*
X216723143Y-80646666D02*
X217323143Y-80646666D01*
X216380286Y-80813333D02*
X217023143Y-80980000D01*
X217023143Y-80546666D01*
X217323143Y-84120000D02*
X217323143Y-84520000D01*
X217323143Y-84320000D02*
X216423143Y-84320000D01*
X216551714Y-84386666D01*
X216637429Y-84453333D01*
X216680286Y-84520000D01*
X217237429Y-83819999D02*
X217280286Y-83786666D01*
X217323143Y-83819999D01*
X217280286Y-83853333D01*
X217237429Y-83819999D01*
X217323143Y-83819999D01*
X216423143Y-83553333D02*
X216423143Y-83120000D01*
X216766000Y-83353333D01*
X216766000Y-83253333D01*
X216808857Y-83186666D01*
X216851714Y-83153333D01*
X216937429Y-83120000D01*
X217151714Y-83120000D01*
X217237429Y-83153333D01*
X217280286Y-83186666D01*
X217323143Y-83253333D01*
X217323143Y-83453333D01*
X217280286Y-83520000D01*
X217237429Y-83553333D01*
X217323143Y-86660000D02*
X217323143Y-87060000D01*
X217323143Y-86860000D02*
X216423143Y-86860000D01*
X216551714Y-86926666D01*
X216637429Y-86993333D01*
X216680286Y-87060000D01*
X217237429Y-86359999D02*
X217280286Y-86326666D01*
X217323143Y-86359999D01*
X217280286Y-86393333D01*
X217237429Y-86359999D01*
X217323143Y-86359999D01*
X216508857Y-86060000D02*
X216466000Y-86026666D01*
X216423143Y-85960000D01*
X216423143Y-85793333D01*
X216466000Y-85726666D01*
X216508857Y-85693333D01*
X216594571Y-85660000D01*
X216680286Y-85660000D01*
X216808857Y-85693333D01*
X217323143Y-86093333D01*
X217323143Y-85660000D01*
X217323143Y-89200000D02*
X217323143Y-89600000D01*
X217323143Y-89400000D02*
X216423143Y-89400000D01*
X216551714Y-89466666D01*
X216637429Y-89533333D01*
X216680286Y-89600000D01*
X217237429Y-88899999D02*
X217280286Y-88866666D01*
X217323143Y-88899999D01*
X217280286Y-88933333D01*
X217237429Y-88899999D01*
X217323143Y-88899999D01*
X217323143Y-88200000D02*
X217323143Y-88600000D01*
X217323143Y-88400000D02*
X216423143Y-88400000D01*
X216551714Y-88466666D01*
X216637429Y-88533333D01*
X216680286Y-88600000D01*
X217323143Y-91740000D02*
X217323143Y-92140000D01*
X217323143Y-91940000D02*
X216423143Y-91940000D01*
X216551714Y-92006666D01*
X216637429Y-92073333D01*
X216680286Y-92140000D01*
X217237429Y-91439999D02*
X217280286Y-91406666D01*
X217323143Y-91439999D01*
X217280286Y-91473333D01*
X217237429Y-91439999D01*
X217323143Y-91439999D01*
X216423143Y-90973333D02*
X216423143Y-90906666D01*
X216466000Y-90840000D01*
X216508857Y-90806666D01*
X216594571Y-90773333D01*
X216766000Y-90740000D01*
X216980286Y-90740000D01*
X217151714Y-90773333D01*
X217237429Y-90806666D01*
X217280286Y-90840000D01*
X217323143Y-90906666D01*
X217323143Y-90973333D01*
X217280286Y-91040000D01*
X217237429Y-91073333D01*
X217151714Y-91106666D01*
X216980286Y-91140000D01*
X216766000Y-91140000D01*
X216594571Y-91106666D01*
X216508857Y-91073333D01*
X216466000Y-91040000D01*
X216423143Y-90973333D01*
D15*
X220576143Y-104237786D02*
X220715000Y-104723786D01*
X220853857Y-104376643D01*
X220992714Y-104723786D01*
X221131571Y-104237786D01*
X221339857Y-104237786D02*
X221478714Y-104723786D01*
X221617571Y-104376643D01*
X221756428Y-104723786D01*
X221895285Y-104237786D01*
X222103571Y-104237786D02*
X222242428Y-104723786D01*
X222381285Y-104376643D01*
X222520142Y-104723786D01*
X222658999Y-104237786D01*
X222936713Y-104654357D02*
X222971428Y-104689071D01*
X222936713Y-104723786D01*
X222901999Y-104689071D01*
X222936713Y-104654357D01*
X222936713Y-104723786D01*
X223596285Y-104689071D02*
X223526856Y-104723786D01*
X223387999Y-104723786D01*
X223318571Y-104689071D01*
X223283856Y-104654357D01*
X223249142Y-104584929D01*
X223249142Y-104376643D01*
X223283856Y-104307214D01*
X223318571Y-104272500D01*
X223387999Y-104237786D01*
X223526856Y-104237786D01*
X223596285Y-104272500D01*
X223908713Y-104723786D02*
X223908713Y-104237786D01*
X223908713Y-104376643D02*
X223943428Y-104307214D01*
X223978142Y-104272500D01*
X224047571Y-104237786D01*
X224116999Y-104237786D01*
X224672428Y-104723786D02*
X224672428Y-104341929D01*
X224637714Y-104272500D01*
X224568285Y-104237786D01*
X224429428Y-104237786D01*
X224359999Y-104272500D01*
X224672428Y-104689071D02*
X224602999Y-104723786D01*
X224429428Y-104723786D01*
X224359999Y-104689071D01*
X224325285Y-104619643D01*
X224325285Y-104550214D01*
X224359999Y-104480786D01*
X224429428Y-104446071D01*
X224602999Y-104446071D01*
X224672428Y-104411357D01*
X224984856Y-104689071D02*
X225054285Y-104723786D01*
X225193142Y-104723786D01*
X225262570Y-104689071D01*
X225297285Y-104619643D01*
X225297285Y-104584929D01*
X225262570Y-104515500D01*
X225193142Y-104480786D01*
X225088999Y-104480786D01*
X225019570Y-104446071D01*
X224984856Y-104376643D01*
X224984856Y-104341929D01*
X225019570Y-104272500D01*
X225088999Y-104237786D01*
X225193142Y-104237786D01*
X225262570Y-104272500D01*
X225609713Y-104723786D02*
X225609713Y-103994786D01*
X225922142Y-104723786D02*
X225922142Y-104341929D01*
X225887428Y-104272500D01*
X225817999Y-104237786D01*
X225713856Y-104237786D01*
X225644428Y-104272500D01*
X225609713Y-104307214D01*
X226269284Y-104446071D02*
X226824713Y-104446071D01*
X227171855Y-104723786D02*
X227171855Y-103994786D01*
X227171855Y-104272500D02*
X227241284Y-104237786D01*
X227380141Y-104237786D01*
X227449570Y-104272500D01*
X227484284Y-104307214D01*
X227518998Y-104376643D01*
X227518998Y-104584929D01*
X227484284Y-104654357D01*
X227449570Y-104689071D01*
X227380141Y-104723786D01*
X227241284Y-104723786D01*
X227171855Y-104689071D01*
X228143855Y-104723786D02*
X228143855Y-104341929D01*
X228109141Y-104272500D01*
X228039712Y-104237786D01*
X227900855Y-104237786D01*
X227831426Y-104272500D01*
X228143855Y-104689071D02*
X228074426Y-104723786D01*
X227900855Y-104723786D01*
X227831426Y-104689071D01*
X227796712Y-104619643D01*
X227796712Y-104550214D01*
X227831426Y-104480786D01*
X227900855Y-104446071D01*
X228074426Y-104446071D01*
X228143855Y-104411357D01*
X228490997Y-104237786D02*
X228490997Y-104723786D01*
X228490997Y-104307214D02*
X228525712Y-104272500D01*
X228595140Y-104237786D01*
X228699283Y-104237786D01*
X228768712Y-104272500D01*
X228803426Y-104341929D01*
X228803426Y-104723786D01*
X229462997Y-104237786D02*
X229462997Y-104827929D01*
X229428283Y-104897357D01*
X229393568Y-104932071D01*
X229324140Y-104966786D01*
X229219997Y-104966786D01*
X229150568Y-104932071D01*
X229462997Y-104689071D02*
X229393568Y-104723786D01*
X229254711Y-104723786D01*
X229185283Y-104689071D01*
X229150568Y-104654357D01*
X229115854Y-104584929D01*
X229115854Y-104376643D01*
X229150568Y-104307214D01*
X229185283Y-104272500D01*
X229254711Y-104237786D01*
X229393568Y-104237786D01*
X229462997Y-104272500D01*
X229810139Y-104654357D02*
X229844854Y-104689071D01*
X229810139Y-104723786D01*
X229775425Y-104689071D01*
X229810139Y-104654357D01*
X229810139Y-104723786D01*
X230469711Y-104689071D02*
X230400282Y-104723786D01*
X230261425Y-104723786D01*
X230191997Y-104689071D01*
X230157282Y-104654357D01*
X230122568Y-104584929D01*
X230122568Y-104376643D01*
X230157282Y-104307214D01*
X230191997Y-104272500D01*
X230261425Y-104237786D01*
X230400282Y-104237786D01*
X230469711Y-104272500D01*
X230886282Y-104723786D02*
X230816854Y-104689071D01*
X230782139Y-104654357D01*
X230747425Y-104584929D01*
X230747425Y-104376643D01*
X230782139Y-104307214D01*
X230816854Y-104272500D01*
X230886282Y-104237786D01*
X230990425Y-104237786D01*
X231059854Y-104272500D01*
X231094568Y-104307214D01*
X231129282Y-104376643D01*
X231129282Y-104584929D01*
X231094568Y-104654357D01*
X231059854Y-104689071D01*
X230990425Y-104723786D01*
X230886282Y-104723786D01*
X231441710Y-104723786D02*
X231441710Y-104237786D01*
X231441710Y-104307214D02*
X231476425Y-104272500D01*
X231545853Y-104237786D01*
X231649996Y-104237786D01*
X231719425Y-104272500D01*
X231754139Y-104341929D01*
X231754139Y-104723786D01*
X231754139Y-104341929D02*
X231788853Y-104272500D01*
X231858282Y-104237786D01*
X231962425Y-104237786D01*
X232031853Y-104272500D01*
X232066568Y-104341929D01*
X232066568Y-104723786D01*
D16*
X223188477Y-101335619D02*
X223325977Y-100235619D01*
X223594428Y-101021333D01*
X224059310Y-100235619D01*
X223921810Y-101335619D01*
X224399786Y-101283238D02*
X224550382Y-101335619D01*
X224812286Y-101335619D01*
X224923595Y-101283238D01*
X224982524Y-101230857D01*
X225048000Y-101126095D01*
X225061095Y-101021333D01*
X225021810Y-100916571D01*
X224975976Y-100864190D01*
X224877762Y-100811810D01*
X224674786Y-100759429D01*
X224576572Y-100707048D01*
X224530739Y-100654667D01*
X224491453Y-100549905D01*
X224504548Y-100445143D01*
X224570024Y-100340381D01*
X224628953Y-100288000D01*
X224740263Y-100235619D01*
X225002167Y-100235619D01*
X225152762Y-100288000D01*
X225493239Y-101335619D02*
X225630739Y-100235619D01*
X226049786Y-100235619D01*
X226148000Y-100288000D01*
X226193833Y-100340381D01*
X226233119Y-100445143D01*
X226213476Y-100602286D01*
X226148000Y-100707048D01*
X226089071Y-100759429D01*
X225977762Y-100811810D01*
X225558715Y-100811810D01*
X227156333Y-100602286D02*
X227045024Y-101492762D01*
X226979547Y-101597524D01*
X226920619Y-101649905D01*
X226809310Y-101702286D01*
X226652167Y-101702286D01*
X226553953Y-101649905D01*
X227071214Y-101283238D02*
X226959905Y-101335619D01*
X226750382Y-101335619D01*
X226652167Y-101283238D01*
X226606334Y-101230857D01*
X226567048Y-101126095D01*
X226606334Y-100811810D01*
X226671810Y-100707048D01*
X226730739Y-100654667D01*
X226842048Y-100602286D01*
X227051571Y-100602286D01*
X227149786Y-100654667D01*
X227660500Y-100340381D02*
X227719429Y-100288000D01*
X227830739Y-100235619D01*
X228092643Y-100235619D01*
X228190857Y-100288000D01*
X228236690Y-100340381D01*
X228275976Y-100445143D01*
X228262881Y-100549905D01*
X228190857Y-100707048D01*
X227483715Y-101335619D01*
X228164667Y-101335619D01*
X229297405Y-100235619D02*
X228773596Y-100235619D01*
X228655738Y-100759429D01*
X228714667Y-100707048D01*
X228825977Y-100654667D01*
X229087881Y-100654667D01*
X229186095Y-100707048D01*
X229231928Y-100759429D01*
X229271214Y-100864190D01*
X229238476Y-101126095D01*
X229173000Y-101230857D01*
X229114071Y-101283238D01*
X229002762Y-101335619D01*
X228740858Y-101335619D01*
X228642643Y-101283238D01*
X228596810Y-101230857D01*
X230345024Y-100235619D02*
X229821215Y-100235619D01*
X229703357Y-100759429D01*
X229762286Y-100707048D01*
X229873596Y-100654667D01*
X230135500Y-100654667D01*
X230233714Y-100707048D01*
X230279547Y-100759429D01*
X230318833Y-100864190D01*
X230286095Y-101126095D01*
X230220619Y-101230857D01*
X230161690Y-101283238D01*
X230050381Y-101335619D01*
X229788477Y-101335619D01*
X229690262Y-101283238D01*
X229644429Y-101230857D01*
X230764072Y-100235619D02*
X231445024Y-100235619D01*
X231025977Y-100654667D01*
X231183119Y-100654667D01*
X231281333Y-100707048D01*
X231327166Y-100759429D01*
X231366452Y-100864190D01*
X231333714Y-101126095D01*
X231268238Y-101230857D01*
X231209309Y-101283238D01*
X231098000Y-101335619D01*
X230783715Y-101335619D01*
X230685500Y-101283238D01*
X230639667Y-101230857D01*
D14*
X225639381Y-115792095D02*
X225639381Y-115173047D01*
X226020333Y-115506381D01*
X226020333Y-115363523D01*
X226067952Y-115268285D01*
X226115571Y-115220666D01*
X226210810Y-115173047D01*
X226448905Y-115173047D01*
X226544143Y-115220666D01*
X226591762Y-115268285D01*
X226639381Y-115363523D01*
X226639381Y-115649238D01*
X226591762Y-115744476D01*
X226544143Y-115792095D01*
X225639381Y-114887333D02*
X226639381Y-114554000D01*
X225639381Y-114220666D01*
X225639381Y-113982571D02*
X225639381Y-113363523D01*
X226020333Y-113696857D01*
X226020333Y-113553999D01*
X226067952Y-113458761D01*
X226115571Y-113411142D01*
X226210810Y-113363523D01*
X226448905Y-113363523D01*
X226544143Y-113411142D01*
X226591762Y-113458761D01*
X226639381Y-113553999D01*
X226639381Y-113839714D01*
X226591762Y-113934952D01*
X226544143Y-113982571D01*
X225734619Y-119554476D02*
X225687000Y-119506857D01*
X225639381Y-119411619D01*
X225639381Y-119173523D01*
X225687000Y-119078285D01*
X225734619Y-119030666D01*
X225829857Y-118983047D01*
X225925095Y-118983047D01*
X226067952Y-119030666D01*
X226639381Y-119602095D01*
X226639381Y-118983047D01*
X225639381Y-118697333D02*
X226639381Y-118364000D01*
X225639381Y-118030666D01*
X225972714Y-117268761D02*
X226639381Y-117268761D01*
X225591762Y-117506857D02*
X226306048Y-117744952D01*
X226306048Y-117125904D01*
D10*
X221352000Y-101292000D02*
X221352000Y-101092000D01*
X221352000Y-101092000D02*
X221552000Y-101092000D01*
X221552000Y-101092000D02*
X221552000Y-101292000D01*
X221552000Y-101292000D02*
X221352000Y-101292000D01*
X221352000Y-101792000D02*
X221352000Y-101592000D01*
X221352000Y-101592000D02*
X221552000Y-101592000D01*
X221552000Y-101592000D02*
X221552000Y-101792000D01*
X221552000Y-101792000D02*
X221352000Y-101792000D01*
X221352000Y-102292000D02*
X221352000Y-102092000D01*
X221352000Y-102092000D02*
X221552000Y-102092000D01*
X221552000Y-102092000D02*
X221552000Y-102292000D01*
X221552000Y-102292000D02*
X221352000Y-102292000D01*
D17*
X220552000Y-103392000D02*
X221452000Y-103392000D01*
X221452000Y-103392000D02*
X221452000Y-102692000D01*
X220552000Y-100992000D02*
X220552000Y-103392000D01*
X219252000Y-100992000D02*
X220552000Y-100992000D01*
X222652000Y-100892000D02*
G75*
G03X219252000Y-100892000I-1700000J0D01*
G01*
D14*
X220107000Y-105946000D02*
X220107000Y-106196000D01*
X220107000Y-106196000D02*
X219857000Y-106196000D01*
X219857000Y-106196000D02*
X219857000Y-105946000D01*
X219857000Y-105946000D02*
X220107000Y-105946000D01*
D18*
X220807280Y-108193840D02*
X220482160Y-108193840D01*
X220482160Y-108193840D02*
X220482160Y-108694220D01*
X220807280Y-108694220D02*
X220482160Y-108694220D01*
X220807280Y-108193840D02*
X220807280Y-108694220D01*
X221429580Y-108193840D02*
X221279720Y-108193840D01*
X221279720Y-108193840D02*
X221279720Y-108445300D01*
X221429580Y-108445300D02*
X221279720Y-108445300D01*
X221429580Y-108193840D02*
X221429580Y-108445300D01*
X220934280Y-108193840D02*
X220784420Y-108193840D01*
X220784420Y-108193840D02*
X220784420Y-108445300D01*
X220934280Y-108445300D02*
X220784420Y-108445300D01*
X220934280Y-108193840D02*
X220934280Y-108445300D01*
X221305120Y-108193840D02*
X220908880Y-108193840D01*
X220908880Y-108193840D02*
X220908880Y-108369100D01*
X221305120Y-108369100D02*
X220908880Y-108369100D01*
X221305120Y-108193840D02*
X221305120Y-108369100D01*
X220807280Y-106697780D02*
X220482160Y-106697780D01*
X220482160Y-106697780D02*
X220482160Y-107198160D01*
X220807280Y-107198160D02*
X220482160Y-107198160D01*
X220807280Y-106697780D02*
X220807280Y-107198160D01*
X221731840Y-106697780D02*
X221406720Y-106697780D01*
X221406720Y-106697780D02*
X221406720Y-107198160D01*
X221731840Y-107198160D02*
X221406720Y-107198160D01*
X221731840Y-106697780D02*
X221731840Y-107198160D01*
X220934280Y-106946700D02*
X220784420Y-106946700D01*
X220784420Y-106946700D02*
X220784420Y-107198160D01*
X220934280Y-107198160D02*
X220784420Y-107198160D01*
X220934280Y-106946700D02*
X220934280Y-107198160D01*
X221429580Y-106946700D02*
X221279720Y-106946700D01*
X221279720Y-106946700D02*
X221279720Y-107198160D01*
X221429580Y-107198160D02*
X221279720Y-107198160D01*
X221429580Y-106946700D02*
X221429580Y-107198160D01*
X221305120Y-107022900D02*
X220908880Y-107022900D01*
X220908880Y-107022900D02*
X220908880Y-107198160D01*
X221305120Y-107198160D02*
X220908880Y-107198160D01*
X221305120Y-107022900D02*
X221305120Y-107198160D01*
X221206060Y-107446000D02*
X221007940Y-107446000D01*
X221007940Y-107446000D02*
X221007940Y-107644120D01*
X221206060Y-107644120D02*
X221007940Y-107644120D01*
X221206060Y-107446000D02*
X221206060Y-107644120D01*
X221706440Y-108193840D02*
X221406720Y-108193840D01*
X221406720Y-108193840D02*
X221406720Y-108493560D01*
X221706440Y-108493560D02*
X221406720Y-108493560D01*
X221706440Y-108193840D02*
X221706440Y-108493560D01*
X221731840Y-108620560D02*
X221505780Y-108620560D01*
X221505780Y-108620560D02*
X221505780Y-108694220D01*
X221731840Y-108694220D02*
X221505780Y-108694220D01*
X221731840Y-108620560D02*
X221731840Y-108694220D01*
X220532960Y-108219240D02*
X220532960Y-107172760D01*
X221681040Y-107198160D02*
X221681040Y-108620560D01*
X221628422Y-108544360D02*
G75*
G03X221628422Y-108544360I-71842J0D01*
G01*
X221454980Y-108694220D02*
G75*
G03X220759020Y-108694220I-347980J0D01*
G01*
X220759020Y-106697780D02*
G75*
G03X221454980Y-106697780I347980J0D01*
G01*
X200152000Y-120523000D02*
X200152000Y-121285000D01*
X199771000Y-120904000D02*
X200533000Y-120904000D01*
X202438000Y-120650000D02*
X202438000Y-124460000D01*
X198628000Y-119888000D02*
X201676000Y-119888000D01*
X202438000Y-120650000D02*
X201676000Y-119888000D01*
X197866000Y-120650000D02*
X197866000Y-124460000D01*
X197866000Y-120650000D02*
X198628000Y-119888000D01*
X200279000Y-124206000D02*
X200025000Y-124206000D01*
X199517000Y-124079000D02*
X200787000Y-124079000D01*
X201041000Y-123952000D02*
X199263000Y-123952000D01*
X201295000Y-123825000D02*
X199009000Y-123825000D01*
X198882000Y-123698000D02*
X201422000Y-123698000D01*
X201549000Y-123571000D02*
X198755000Y-123571000D01*
X198628000Y-123444000D02*
X201676000Y-123444000D01*
X198501000Y-123317000D02*
X201803000Y-123317000D01*
X202184000Y-122174000D02*
G75*
G03X202184000Y-122174000I-2032000J0D01*
G01*
X197866000Y-124460000D02*
X202438000Y-124460000D01*
X209804000Y-125730000D02*
X212852000Y-125730000D01*
X212852000Y-125730000D02*
X212852000Y-118618000D01*
X212852000Y-118618000D02*
X209804000Y-118618000D01*
X206756000Y-125730000D02*
X205994000Y-125730000D01*
X205994000Y-125730000D02*
X203708000Y-124206000D01*
X203708000Y-124206000D02*
X203708000Y-120142000D01*
X203708000Y-120142000D02*
X205994000Y-118618000D01*
X205994000Y-118618000D02*
X206756000Y-118618000D01*
X201295000Y-102412000D02*
X201295000Y-117602000D01*
X201295000Y-117602000D02*
X203835000Y-117602000D01*
X203835000Y-117602000D02*
X203835000Y-102412000D01*
X201295000Y-102402000D02*
X203835000Y-102402000D01*
X212725000Y-102412000D02*
X212725000Y-117602000D01*
X212725000Y-117602000D02*
X215265000Y-117602000D01*
X215265000Y-117602000D02*
X215265000Y-102412000D01*
X212725000Y-102402000D02*
X215265000Y-102402000D01*
X190246000Y-112268000D02*
X191008000Y-112268000D01*
X191008000Y-112268000D02*
X191008000Y-113284000D01*
X191008000Y-113284000D02*
X197104000Y-113284000D01*
X197104000Y-113284000D02*
X197104000Y-112268000D01*
X197104000Y-112268000D02*
X197866000Y-112268000D01*
X197104000Y-112268000D02*
X197104000Y-111252000D01*
X197104000Y-111252000D02*
X191008000Y-111252000D01*
X191008000Y-111252000D02*
X191008000Y-112268000D01*
X191516000Y-113284000D02*
X191516000Y-111252000D01*
X191770000Y-111252000D02*
X191770000Y-113284000D01*
X216321640Y-67566540D02*
X216882980Y-67825620D01*
X216882980Y-67825620D02*
X217401140Y-67287140D01*
X217401140Y-67287140D02*
X217131900Y-66766440D01*
X217131900Y-66766440D02*
X217291920Y-66487040D01*
X217271600Y-65046860D02*
X217081100Y-64716660D01*
X217081100Y-64716660D02*
X217411300Y-64277240D01*
X217411300Y-64277240D02*
X216921080Y-63804800D01*
X216921080Y-63804800D02*
X216441020Y-64086740D01*
X216441020Y-64086740D02*
X215971120Y-63896240D01*
X215971120Y-63896240D02*
X215783160Y-63286640D01*
X215783160Y-63286640D02*
X215102440Y-63286640D01*
X215102440Y-63286640D02*
X214962740Y-63845440D01*
X214962740Y-63845440D02*
X214391240Y-64046100D01*
X214391240Y-64046100D02*
X213921340Y-63776860D01*
X213921340Y-63776860D02*
X213410800Y-64246760D01*
X213410800Y-64246760D02*
X213672420Y-64764920D01*
X213672420Y-64764920D02*
X213471760Y-65234820D01*
X213471760Y-65234820D02*
X212930740Y-65405000D01*
X212930740Y-65405000D02*
X212912960Y-66095880D01*
X212912960Y-66095880D02*
X213461600Y-66306700D01*
X213461600Y-66306700D02*
X213631780Y-66725800D01*
X213631780Y-66725800D02*
X213362540Y-67276980D01*
X213362540Y-67276980D02*
X213890860Y-67795140D01*
X213890860Y-67795140D02*
X214431880Y-67546220D01*
X214431880Y-67546220D02*
X214911940Y-67716400D01*
X214911940Y-67716400D02*
X215011000Y-68265040D01*
X215011000Y-68265040D02*
X215712040Y-68275200D01*
X215712040Y-68275200D02*
X215912700Y-67716400D01*
X215912700Y-67716400D02*
X216311480Y-67576700D01*
X216291160Y-65435480D02*
X216141300Y-65135760D01*
X216141300Y-65135760D02*
X215943180Y-64935100D01*
X215943180Y-64935100D02*
X215541860Y-64785240D01*
X215541860Y-64785240D02*
X215143080Y-64785240D01*
X215143080Y-64785240D02*
X214792560Y-64935100D01*
X214792560Y-64935100D02*
X214442040Y-65387220D01*
X214442040Y-65387220D02*
X214391240Y-65836800D01*
X214391240Y-65836800D02*
X214492840Y-66235580D01*
X214492840Y-66235580D02*
X214840820Y-66636900D01*
X214840820Y-66636900D02*
X215292940Y-66786760D01*
X215292940Y-66786760D02*
X215790780Y-66735960D01*
X215790780Y-66735960D02*
X216093040Y-66487040D01*
X216093040Y-66487040D02*
X216291160Y-66136520D01*
X216291160Y-66136520D02*
X217291920Y-66487040D01*
X216291160Y-65435480D02*
X217291920Y-65036700D01*
X228951498Y-108585000D02*
G75*
G03X228951498Y-108585000I-2002498J0D01*
G01*
X228849000Y-105985000D02*
X229549000Y-106685000D01*
X224349000Y-106685000D02*
X225049000Y-105985000D01*
X225049000Y-111185000D02*
X224349000Y-110485000D01*
X229549000Y-110485000D02*
X228849000Y-111185000D01*
X228799000Y-111185000D02*
X225099000Y-111185000D01*
X224349000Y-110435000D02*
X224349000Y-106735000D01*
X225099000Y-105985000D02*
X228799000Y-105985000D01*
X229549000Y-106735000D02*
X229549000Y-110435000D01*
X207010000Y-95620000D02*
X207010000Y-94350000D01*
X207010000Y-94350000D02*
X209550000Y-94350000D01*
X209550000Y-94350000D02*
X209550000Y-95620000D01*
X205740000Y-95620000D02*
X205740000Y-69480000D01*
X205740000Y-69480000D02*
X210820000Y-69480000D01*
X210820000Y-69480000D02*
X210820000Y-95620000D01*
X210820000Y-95620000D02*
X205740000Y-95620000D01*
X203200000Y-95377000D02*
X203200000Y-87503000D01*
X203200000Y-87503000D02*
X200660000Y-87503000D01*
X200660000Y-87503000D02*
X200660000Y-95377000D01*
X200660000Y-95377000D02*
X203200000Y-95377000D01*
X200660000Y-82550000D02*
X200660000Y-69850000D01*
X200660000Y-69850000D02*
X203200000Y-69850000D01*
X203200000Y-69850000D02*
X203200000Y-82550000D01*
X200660000Y-82550000D02*
X203200000Y-82550000D01*
X200533000Y-52641500D02*
X208407000Y-52641500D01*
X208407000Y-52641500D02*
X208407000Y-50101500D01*
X208407000Y-50101500D02*
X200533000Y-50101500D01*
X200533000Y-50101500D02*
X200533000Y-52641500D01*
X216281000Y-120269000D02*
X216281000Y-121031000D01*
X215900000Y-120650000D02*
X216662000Y-120650000D01*
X218567000Y-120396000D02*
X218567000Y-124206000D01*
X214757000Y-119634000D02*
X217805000Y-119634000D01*
X218567000Y-120396000D02*
X217805000Y-119634000D01*
X213995000Y-120396000D02*
X213995000Y-124206000D01*
X213995000Y-120396000D02*
X214757000Y-119634000D01*
X216408000Y-123952000D02*
X216154000Y-123952000D01*
X215646000Y-123825000D02*
X216916000Y-123825000D01*
X217170000Y-123698000D02*
X215392000Y-123698000D01*
X217424000Y-123571000D02*
X215138000Y-123571000D01*
X215011000Y-123444000D02*
X217551000Y-123444000D01*
X217678000Y-123317000D02*
X214884000Y-123317000D01*
X214757000Y-123190000D02*
X217805000Y-123190000D01*
X214630000Y-123063000D02*
X217932000Y-123063000D01*
X218313000Y-121920000D02*
G75*
G03X218313000Y-121920000I-2032000J0D01*
G01*
X213995000Y-124206000D02*
X218567000Y-124206000D01*
X215113500Y-97480500D02*
X215113500Y-98480500D01*
X216813500Y-98480500D02*
X216813500Y-97480500D01*
X212573500Y-97480500D02*
X212573500Y-98480500D01*
X214273500Y-98480500D02*
X214273500Y-97480500D01*
X202430000Y-65444000D02*
X201430000Y-65444000D01*
X201430000Y-67144000D02*
X202430000Y-67144000D01*
X187769500Y-98877120D02*
X187769500Y-107878880D01*
X184269380Y-98877120D02*
X184269380Y-107878880D01*
X184269380Y-107878880D02*
X198770240Y-107878880D01*
X198770240Y-107878880D02*
X198770240Y-98877120D01*
X198770240Y-98877120D02*
X184269380Y-98877120D01*
X193710000Y-119240000D02*
X191210000Y-119240000D01*
X191210000Y-119240000D02*
X191210000Y-114440000D01*
X191210000Y-114440000D02*
X193710000Y-114440000D01*
X194910000Y-119240000D02*
X197410000Y-119240000D01*
X197410000Y-119240000D02*
X197410000Y-114440000D01*
X197410000Y-114440000D02*
X194910000Y-114440000D01*
X224790000Y-120650000D02*
X224790000Y-112776000D01*
X224790000Y-112776000D02*
X222250000Y-112776000D01*
X222250000Y-112776000D02*
X222250000Y-120650000D01*
X222250000Y-120650000D02*
X224790000Y-120650000D01*
X213360000Y-95250000D02*
X213360000Y-69850000D01*
X213360000Y-69850000D02*
X215900000Y-69850000D01*
X215900000Y-69850000D02*
X215900000Y-95250000D01*
X213360000Y-95250000D02*
X215900000Y-95250000D01*
X217586000Y-105932000D02*
X218786000Y-105932000D01*
X218786000Y-107682000D02*
X217586000Y-107682000D01*
X218348000Y-113044000D02*
X219548000Y-113044000D01*
X219548000Y-114794000D02*
X218348000Y-114794000D01*
X219548000Y-117715000D02*
X218348000Y-117715000D01*
X218348000Y-115965000D02*
X219548000Y-115965000D01*
X219548000Y-112000000D02*
X218348000Y-112000000D01*
X218348000Y-110250000D02*
X219548000Y-110250000D01*
X211695000Y-97380500D02*
X211695000Y-98580500D01*
X209945000Y-98580500D02*
X209945000Y-97380500D01*
X207010000Y-62484000D02*
X207010000Y-61468000D01*
X207010000Y-61468000D02*
X209550000Y-61468000D01*
X209550000Y-61468000D02*
X209550000Y-62484000D01*
X217932000Y-55372000D02*
X198628000Y-55372000D01*
X198628000Y-62484000D02*
X217932000Y-62484000D01*
X217932000Y-55372000D02*
X217932000Y-62484000D01*
X198628000Y-55372000D02*
X198628000Y-62484000D01*
D16*
X222576000Y-102576381D02*
X222833143Y-102576381D01*
X222961715Y-102624000D01*
X223090286Y-102719238D01*
X223154572Y-102909714D01*
X223154572Y-103243048D01*
X223090286Y-103433524D01*
X222961715Y-103528762D01*
X222833143Y-103576381D01*
X222576000Y-103576381D01*
X222447429Y-103528762D01*
X222318858Y-103433524D01*
X222254572Y-103243048D01*
X222254572Y-102909714D01*
X222318858Y-102719238D01*
X222447429Y-102624000D01*
X222576000Y-102576381D01*
X223668858Y-103290667D02*
X224311715Y-103290667D01*
X223540286Y-103576381D02*
X223990286Y-102576381D01*
X224440286Y-103576381D01*
X224890287Y-103576381D02*
X224890287Y-102576381D01*
X225211715Y-102576381D01*
X225404572Y-102624000D01*
X225533144Y-102719238D01*
X225597429Y-102814476D01*
X225661715Y-103004952D01*
X225661715Y-103147810D01*
X225597429Y-103338286D01*
X225533144Y-103433524D01*
X225404572Y-103528762D01*
X225211715Y-103576381D01*
X224890287Y-103576381D01*
X226176001Y-103528762D02*
X226368858Y-103576381D01*
X226690287Y-103576381D01*
X226818858Y-103528762D01*
X226883144Y-103481143D01*
X226947429Y-103385905D01*
X226947429Y-103290667D01*
X226883144Y-103195429D01*
X226818858Y-103147810D01*
X226690287Y-103100190D01*
X226433144Y-103052571D01*
X226304572Y-103004952D01*
X226240287Y-102957333D01*
X226176001Y-102862095D01*
X226176001Y-102766857D01*
X226240287Y-102671619D01*
X226304572Y-102624000D01*
X226433144Y-102576381D01*
X226754572Y-102576381D01*
X226947429Y-102624000D01*
X227333143Y-102576381D02*
X228104572Y-102576381D01*
X227718858Y-103576381D02*
X227718858Y-102576381D01*
X228811714Y-102576381D02*
X229068857Y-102576381D01*
X229197429Y-102624000D01*
X229326000Y-102719238D01*
X229390286Y-102909714D01*
X229390286Y-103243048D01*
X229326000Y-103433524D01*
X229197429Y-103528762D01*
X229068857Y-103576381D01*
X228811714Y-103576381D01*
X228683143Y-103528762D01*
X228554572Y-103433524D01*
X228490286Y-103243048D01*
X228490286Y-102909714D01*
X228554572Y-102719238D01*
X228683143Y-102624000D01*
X228811714Y-102576381D01*
X230226000Y-102576381D02*
X230483143Y-102576381D01*
X230611715Y-102624000D01*
X230740286Y-102719238D01*
X230804572Y-102909714D01*
X230804572Y-103243048D01*
X230740286Y-103433524D01*
X230611715Y-103528762D01*
X230483143Y-103576381D01*
X230226000Y-103576381D01*
X230097429Y-103528762D01*
X229968858Y-103433524D01*
X229904572Y-103243048D01*
X229904572Y-102909714D01*
X229968858Y-102719238D01*
X230097429Y-102624000D01*
X230226000Y-102576381D01*
X232026001Y-103576381D02*
X231383144Y-103576381D01*
X231383144Y-102576381D01*
D15*
X218893572Y-109310714D02*
X218893572Y-108548714D01*
X219075000Y-108548714D01*
X219183857Y-108585000D01*
X219256429Y-108657571D01*
X219292714Y-108730143D01*
X219329000Y-108875286D01*
X219329000Y-108984143D01*
X219292714Y-109129286D01*
X219256429Y-109201857D01*
X219183857Y-109274429D01*
X219075000Y-109310714D01*
X218893572Y-109310714D01*
X219619286Y-108621286D02*
X219655572Y-108585000D01*
X219728143Y-108548714D01*
X219909572Y-108548714D01*
X219982143Y-108585000D01*
X220018429Y-108621286D01*
X220054714Y-108693857D01*
X220054714Y-108766429D01*
X220018429Y-108875286D01*
X219583000Y-109310714D01*
X220054714Y-109310714D01*
D19*
X221996001Y-109056714D02*
X221996001Y-108294714D01*
X222286286Y-108294714D01*
X222358858Y-108331000D01*
X222395143Y-108367286D01*
X222431429Y-108439857D01*
X222431429Y-108548714D01*
X222395143Y-108621286D01*
X222358858Y-108657571D01*
X222286286Y-108693857D01*
X221996001Y-108693857D01*
X222685429Y-108294714D02*
X222866858Y-109056714D01*
X223012001Y-108512429D01*
X223157143Y-109056714D01*
X223338572Y-108294714D01*
X224064286Y-109056714D02*
X223810286Y-108693857D01*
X223628858Y-109056714D02*
X223628858Y-108294714D01*
X223919143Y-108294714D01*
X223991715Y-108331000D01*
X224028000Y-108367286D01*
X224064286Y-108439857D01*
X224064286Y-108548714D01*
X224028000Y-108621286D01*
X223991715Y-108657571D01*
X223919143Y-108693857D01*
X223628858Y-108693857D01*
D15*
X197439643Y-122364500D02*
X197475929Y-122400786D01*
X197512214Y-122509643D01*
X197512214Y-122582214D01*
X197475929Y-122691071D01*
X197403357Y-122763643D01*
X197330786Y-122799928D01*
X197185643Y-122836214D01*
X197076786Y-122836214D01*
X196931643Y-122799928D01*
X196859071Y-122763643D01*
X196786500Y-122691071D01*
X196750214Y-122582214D01*
X196750214Y-122509643D01*
X196786500Y-122400786D01*
X196822786Y-122364500D01*
X197512214Y-121638786D02*
X197512214Y-122074214D01*
X197512214Y-121856500D02*
X196750214Y-121856500D01*
X196859071Y-121929071D01*
X196931643Y-122001643D01*
X196967929Y-122074214D01*
X207699429Y-122518714D02*
X207699429Y-123135571D01*
X207735714Y-123208143D01*
X207772000Y-123244429D01*
X207844571Y-123280714D01*
X207989714Y-123280714D01*
X208062286Y-123244429D01*
X208098571Y-123208143D01*
X208134857Y-123135571D01*
X208134857Y-122518714D01*
X208896857Y-123280714D02*
X208461429Y-123280714D01*
X208679143Y-123280714D02*
X208679143Y-122518714D01*
X208606572Y-122627571D01*
X208534000Y-122700143D01*
X208461429Y-122736429D01*
X201494572Y-102198714D02*
X201494572Y-101436714D01*
X201930000Y-102198714D02*
X201603429Y-101763286D01*
X201930000Y-101436714D02*
X201494572Y-101872143D01*
X202655714Y-102198714D02*
X202220286Y-102198714D01*
X202438000Y-102198714D02*
X202438000Y-101436714D01*
X202365429Y-101545571D01*
X202292857Y-101618143D01*
X202220286Y-101654429D01*
X215591572Y-103214714D02*
X215591572Y-102452714D01*
X216027000Y-103214714D02*
X215700429Y-102779286D01*
X216027000Y-102452714D02*
X215591572Y-102888143D01*
X216317286Y-102525286D02*
X216353572Y-102489000D01*
X216426143Y-102452714D01*
X216607572Y-102452714D01*
X216680143Y-102489000D01*
X216716429Y-102525286D01*
X216752714Y-102597857D01*
X216752714Y-102670429D01*
X216716429Y-102779286D01*
X216281000Y-103214714D01*
X216752714Y-103214714D01*
D12*
X193493572Y-112612714D02*
X193493572Y-111850714D01*
X193675000Y-111850714D01*
X193783857Y-111887000D01*
X193856429Y-111959571D01*
X193892714Y-112032143D01*
X193929000Y-112177286D01*
X193929000Y-112286143D01*
X193892714Y-112431286D01*
X193856429Y-112503857D01*
X193783857Y-112576429D01*
X193675000Y-112612714D01*
X193493572Y-112612714D01*
X194654714Y-112612714D02*
X194219286Y-112612714D01*
X194437000Y-112612714D02*
X194437000Y-111850714D01*
X194364429Y-111959571D01*
X194291857Y-112032143D01*
X194219286Y-112068429D01*
D14*
X227401619Y-112910881D02*
X227068285Y-112434690D01*
X226830190Y-112910881D02*
X226830190Y-111910881D01*
X227211143Y-111910881D01*
X227306381Y-111958500D01*
X227354000Y-112006119D01*
X227401619Y-112101357D01*
X227401619Y-112244214D01*
X227354000Y-112339452D01*
X227306381Y-112387071D01*
X227211143Y-112434690D01*
X226830190Y-112434690D01*
X227830190Y-112387071D02*
X228163524Y-112387071D01*
X228306381Y-112910881D02*
X227830190Y-112910881D01*
X227830190Y-111910881D01*
X228306381Y-111910881D01*
X228687333Y-112863262D02*
X228830190Y-112910881D01*
X229068286Y-112910881D01*
X229163524Y-112863262D01*
X229211143Y-112815643D01*
X229258762Y-112720405D01*
X229258762Y-112625167D01*
X229211143Y-112529929D01*
X229163524Y-112482310D01*
X229068286Y-112434690D01*
X228877809Y-112387071D01*
X228782571Y-112339452D01*
X228734952Y-112291833D01*
X228687333Y-112196595D01*
X228687333Y-112101357D01*
X228734952Y-112006119D01*
X228782571Y-111958500D01*
X228877809Y-111910881D01*
X229115905Y-111910881D01*
X229258762Y-111958500D01*
X229687333Y-112387071D02*
X230020667Y-112387071D01*
X230163524Y-112910881D02*
X229687333Y-112910881D01*
X229687333Y-111910881D01*
X230163524Y-111910881D01*
X230449238Y-111910881D02*
X231020667Y-111910881D01*
X230734952Y-112910881D02*
X230734952Y-111910881D01*
D12*
X206592714Y-92020571D02*
X207209571Y-92020571D01*
X207282143Y-91984286D01*
X207318429Y-91948000D01*
X207354714Y-91875429D01*
X207354714Y-91730286D01*
X207318429Y-91657714D01*
X207282143Y-91621429D01*
X207209571Y-91585143D01*
X206592714Y-91585143D01*
X206665286Y-91258571D02*
X206629000Y-91222285D01*
X206592714Y-91149714D01*
X206592714Y-90968285D01*
X206629000Y-90895714D01*
X206665286Y-90859428D01*
X206737857Y-90823143D01*
X206810429Y-90823143D01*
X206919286Y-90859428D01*
X207354714Y-91294857D01*
X207354714Y-90823143D01*
X199988714Y-51870428D02*
X199226714Y-51870428D01*
X199988714Y-51435000D02*
X199553286Y-51761571D01*
X199226714Y-51435000D02*
X199662143Y-51870428D01*
X199480714Y-50781857D02*
X199988714Y-50781857D01*
X199190429Y-50963286D02*
X199734714Y-51144714D01*
X199734714Y-50673000D01*
X219601143Y-122174000D02*
X219637429Y-122210286D01*
X219673714Y-122319143D01*
X219673714Y-122391714D01*
X219637429Y-122500571D01*
X219564857Y-122573143D01*
X219492286Y-122609428D01*
X219347143Y-122645714D01*
X219238286Y-122645714D01*
X219093143Y-122609428D01*
X219020571Y-122573143D01*
X218948000Y-122500571D01*
X218911714Y-122391714D01*
X218911714Y-122319143D01*
X218948000Y-122210286D01*
X218984286Y-122174000D01*
X218984286Y-121883714D02*
X218948000Y-121847428D01*
X218911714Y-121774857D01*
X218911714Y-121593428D01*
X218948000Y-121520857D01*
X218984286Y-121484571D01*
X219056857Y-121448286D01*
X219129429Y-121448286D01*
X219238286Y-121484571D01*
X219673714Y-121920000D01*
X219673714Y-121448286D01*
D20*
X215836500Y-101237143D02*
X215800214Y-101273429D01*
X215691357Y-101309714D01*
X215618786Y-101309714D01*
X215509929Y-101273429D01*
X215437357Y-101200857D01*
X215401072Y-101128286D01*
X215364786Y-100983143D01*
X215364786Y-100874286D01*
X215401072Y-100729143D01*
X215437357Y-100656571D01*
X215509929Y-100584000D01*
X215618786Y-100547714D01*
X215691357Y-100547714D01*
X215800214Y-100584000D01*
X215836500Y-100620286D01*
X216090500Y-100547714D02*
X216562214Y-100547714D01*
X216308214Y-100838000D01*
X216417072Y-100838000D01*
X216489643Y-100874286D01*
X216525929Y-100910571D01*
X216562214Y-100983143D01*
X216562214Y-101164571D01*
X216525929Y-101237143D01*
X216489643Y-101273429D01*
X216417072Y-101309714D01*
X216199357Y-101309714D01*
X216126786Y-101273429D01*
X216090500Y-101237143D01*
D12*
X213233000Y-101237143D02*
X213196714Y-101273429D01*
X213087857Y-101309714D01*
X213015286Y-101309714D01*
X212906429Y-101273429D01*
X212833857Y-101200857D01*
X212797572Y-101128286D01*
X212761286Y-100983143D01*
X212761286Y-100874286D01*
X212797572Y-100729143D01*
X212833857Y-100656571D01*
X212906429Y-100584000D01*
X213015286Y-100547714D01*
X213087857Y-100547714D01*
X213196714Y-100584000D01*
X213233000Y-100620286D01*
X213886143Y-100801714D02*
X213886143Y-101309714D01*
X213704714Y-100511429D02*
X213523286Y-101055714D01*
X213995000Y-101055714D01*
X201803000Y-68407643D02*
X201766714Y-68443929D01*
X201657857Y-68480214D01*
X201585286Y-68480214D01*
X201476429Y-68443929D01*
X201403857Y-68371357D01*
X201367572Y-68298786D01*
X201331286Y-68153643D01*
X201331286Y-68044786D01*
X201367572Y-67899643D01*
X201403857Y-67827071D01*
X201476429Y-67754500D01*
X201585286Y-67718214D01*
X201657857Y-67718214D01*
X201766714Y-67754500D01*
X201803000Y-67790786D01*
X202492429Y-67718214D02*
X202129572Y-67718214D01*
X202093286Y-68081071D01*
X202129572Y-68044786D01*
X202202143Y-68008500D01*
X202383572Y-68008500D01*
X202456143Y-68044786D01*
X202492429Y-68081071D01*
X202528714Y-68153643D01*
X202528714Y-68335071D01*
X202492429Y-68407643D01*
X202456143Y-68443929D01*
X202383572Y-68480214D01*
X202202143Y-68480214D01*
X202129572Y-68443929D01*
X202093286Y-68407643D01*
D21*
X187306857Y-104154514D02*
X187355238Y-104202895D01*
X187403619Y-104348038D01*
X187403619Y-104444800D01*
X187355238Y-104589942D01*
X187258476Y-104686704D01*
X187161714Y-104735085D01*
X186968190Y-104783466D01*
X186823048Y-104783466D01*
X186629524Y-104735085D01*
X186532762Y-104686704D01*
X186436000Y-104589942D01*
X186387619Y-104444800D01*
X186387619Y-104348038D01*
X186436000Y-104202895D01*
X186484381Y-104154514D01*
X186387619Y-103525561D02*
X186387619Y-103332038D01*
X186436000Y-103235276D01*
X186532762Y-103138514D01*
X186726286Y-103090133D01*
X187064952Y-103090133D01*
X187258476Y-103138514D01*
X187355238Y-103235276D01*
X187403619Y-103332038D01*
X187403619Y-103525561D01*
X187355238Y-103622323D01*
X187258476Y-103719085D01*
X187064952Y-103767466D01*
X186726286Y-103767466D01*
X186532762Y-103719085D01*
X186436000Y-103622323D01*
X186387619Y-103525561D01*
X187403619Y-102654704D02*
X186387619Y-102654704D01*
X187403619Y-102074133D01*
X186387619Y-102074133D01*
X187403619Y-101058133D02*
X187403619Y-101638704D01*
X187403619Y-101348418D02*
X186387619Y-101348418D01*
X186532762Y-101445180D01*
X186629524Y-101541942D01*
X186677905Y-101638704D01*
D12*
X193929001Y-120405071D02*
X193675001Y-120405071D01*
X193675001Y-120804214D02*
X193675001Y-120042214D01*
X194037858Y-120042214D01*
X194727286Y-120804214D02*
X194291858Y-120804214D01*
X194509572Y-120804214D02*
X194509572Y-120042214D01*
X194437001Y-120151071D01*
X194364429Y-120223643D01*
X194291858Y-120259929D01*
X216662000Y-108866214D02*
X216408000Y-108503357D01*
X216226572Y-108866214D02*
X216226572Y-108104214D01*
X216516857Y-108104214D01*
X216589429Y-108140500D01*
X216625714Y-108176786D01*
X216662000Y-108249357D01*
X216662000Y-108358214D01*
X216625714Y-108430786D01*
X216589429Y-108467071D01*
X216516857Y-108503357D01*
X216226572Y-108503357D01*
X217387714Y-108866214D02*
X216952286Y-108866214D01*
X217170000Y-108866214D02*
X217170000Y-108104214D01*
X217097429Y-108213071D01*
X217024857Y-108285643D01*
X216952286Y-108321929D01*
X216435214Y-116840000D02*
X216072357Y-117094000D01*
X216435214Y-117275428D02*
X215673214Y-117275428D01*
X215673214Y-116985143D01*
X215709500Y-116912571D01*
X215745786Y-116876286D01*
X215818357Y-116840000D01*
X215927214Y-116840000D01*
X215999786Y-116876286D01*
X216036071Y-116912571D01*
X216072357Y-116985143D01*
X216072357Y-117275428D01*
X215745786Y-116549714D02*
X215709500Y-116513428D01*
X215673214Y-116440857D01*
X215673214Y-116259428D01*
X215709500Y-116186857D01*
X215745786Y-116150571D01*
X215818357Y-116114286D01*
X215890929Y-116114286D01*
X215999786Y-116150571D01*
X216435214Y-116586000D01*
X216435214Y-116114286D01*
X216435214Y-114046000D02*
X216072357Y-114300000D01*
X216435214Y-114481428D02*
X215673214Y-114481428D01*
X215673214Y-114191143D01*
X215709500Y-114118571D01*
X215745786Y-114082286D01*
X215818357Y-114046000D01*
X215927214Y-114046000D01*
X215999786Y-114082286D01*
X216036071Y-114118571D01*
X216072357Y-114191143D01*
X216072357Y-114481428D01*
X215673214Y-113792000D02*
X215673214Y-113320286D01*
X215963500Y-113574286D01*
X215963500Y-113465428D01*
X215999786Y-113392857D01*
X216036071Y-113356571D01*
X216108643Y-113320286D01*
X216290071Y-113320286D01*
X216362643Y-113356571D01*
X216398929Y-113392857D01*
X216435214Y-113465428D01*
X216435214Y-113683143D01*
X216398929Y-113755714D01*
X216362643Y-113792000D01*
X216435214Y-111315500D02*
X216072357Y-111569500D01*
X216435214Y-111750928D02*
X215673214Y-111750928D01*
X215673214Y-111460643D01*
X215709500Y-111388071D01*
X215745786Y-111351786D01*
X215818357Y-111315500D01*
X215927214Y-111315500D01*
X215999786Y-111351786D01*
X216036071Y-111388071D01*
X216072357Y-111460643D01*
X216072357Y-111750928D01*
X215927214Y-110662357D02*
X216435214Y-110662357D01*
X215636929Y-110843786D02*
X216181214Y-111025214D01*
X216181214Y-110553500D01*
D20*
X210756500Y-101373214D02*
X210502500Y-101010357D01*
X210321072Y-101373214D02*
X210321072Y-100611214D01*
X210611357Y-100611214D01*
X210683929Y-100647500D01*
X210720214Y-100683786D01*
X210756500Y-100756357D01*
X210756500Y-100865214D01*
X210720214Y-100937786D01*
X210683929Y-100974071D01*
X210611357Y-101010357D01*
X210321072Y-101010357D01*
X211445929Y-100611214D02*
X211083072Y-100611214D01*
X211046786Y-100974071D01*
X211083072Y-100937786D01*
X211155643Y-100901500D01*
X211337072Y-100901500D01*
X211409643Y-100937786D01*
X211445929Y-100974071D01*
X211482214Y-101046643D01*
X211482214Y-101228071D01*
X211445929Y-101300643D01*
X211409643Y-101336929D01*
X211337072Y-101373214D01*
X211155643Y-101373214D01*
X211083072Y-101336929D01*
X211046786Y-101300643D01*
M02*
