G04 #@! TF.FileFunction,Soldermask,Top*
%FSLAX46Y46*%
G04 Gerber Fmt 4.6, Leading zero omitted, Abs format (unit mm)*
G04 Created by KiCad (PCBNEW (2015-04-22 BZR 5620)-product) date 26/04/2015 14:37:40*
%MOMM*%
G01*
G04 APERTURE LIST*
%ADD10C,0.100000*%
%ADD11R,1.198880X1.198880*%
%ADD12R,1.600200X2.600960*%
%ADD13R,2.032000X3.657600*%
%ADD14R,2.032000X1.016000*%
%ADD15O,2.032000X1.727200*%
%ADD16R,1.397000X1.397000*%
%ADD17C,1.397000*%
%ADD18R,2.250000X1.500000*%
%ADD19R,2.286000X1.574800*%
%ADD20O,2.286000X1.574800*%
%ADD21O,1.727200X2.032000*%
%ADD22R,1.250000X1.500000*%
%ADD23R,1.500000X1.250000*%
%ADD24C,4.500000*%
%ADD25R,1.700000X3.150000*%
%ADD26R,1.500000X1.300000*%
%ADD27R,1.300000X1.500000*%
%ADD28R,1.727200X1.727200*%
%ADD29O,1.727200X1.727200*%
G04 APERTURE END LIST*
D10*
D11*
X221107000Y-106646980D03*
X221107000Y-108745020D03*
D12*
X200152000Y-120373140D03*
X200152000Y-123974860D03*
D13*
X204978000Y-122174000D03*
D14*
X211582000Y-122174000D03*
X211582000Y-119888000D03*
X211582000Y-124460000D03*
D15*
X202565000Y-103632000D03*
X202565000Y-106172000D03*
X202565000Y-108712000D03*
X202565000Y-111252000D03*
X202565000Y-113792000D03*
X202565000Y-116332000D03*
X213995000Y-103632000D03*
X213995000Y-106172000D03*
X213995000Y-108712000D03*
X213995000Y-111252000D03*
X213995000Y-113792000D03*
X213995000Y-116332000D03*
D16*
X190246000Y-112268000D03*
D17*
X197866000Y-112268000D03*
D18*
X230149000Y-110435000D03*
X223749000Y-110435000D03*
X230149000Y-106735000D03*
X223749000Y-106735000D03*
D19*
X212090000Y-93980000D03*
D20*
X212090000Y-91440000D03*
X212090000Y-88900000D03*
X212090000Y-86360000D03*
X212090000Y-83820000D03*
X212090000Y-81280000D03*
X212090000Y-78740000D03*
X212090000Y-76200000D03*
X212090000Y-73660000D03*
X212090000Y-71120000D03*
X204470000Y-71120000D03*
X204470000Y-73660000D03*
X204470000Y-76200000D03*
X204470000Y-78740000D03*
X204470000Y-81280000D03*
X204470000Y-83820000D03*
X204470000Y-86360000D03*
X204470000Y-88900000D03*
X204470000Y-91440000D03*
X204470000Y-93980000D03*
D15*
X201930000Y-93980000D03*
X201930000Y-91440000D03*
X201930000Y-88900000D03*
X201930000Y-81280000D03*
X201930000Y-78740000D03*
X201930000Y-76200000D03*
X201930000Y-73660000D03*
X201930000Y-71120000D03*
D21*
X201930000Y-51371500D03*
X204470000Y-51371500D03*
X207010000Y-51371500D03*
D12*
X216281000Y-120119140D03*
X216281000Y-123720860D03*
D22*
X215963500Y-99230500D03*
X215963500Y-96730500D03*
X213423500Y-99230500D03*
X213423500Y-96730500D03*
D23*
X200680000Y-66294000D03*
X203180000Y-66294000D03*
D24*
X197970140Y-103378000D03*
X191970660Y-103378000D03*
X194970400Y-108077000D03*
D25*
X195910000Y-116840000D03*
X192810000Y-116840000D03*
D15*
X223520000Y-119253000D03*
X223520000Y-116713000D03*
X223520000Y-114173000D03*
X214630000Y-93980000D03*
X214630000Y-91440000D03*
X214630000Y-88900000D03*
X214630000Y-86360000D03*
X214630000Y-83820000D03*
X214630000Y-81280000D03*
X214630000Y-78740000D03*
X214630000Y-76200000D03*
X214630000Y-73660000D03*
X214630000Y-71120000D03*
D26*
X219536000Y-106807000D03*
X216836000Y-106807000D03*
X220298000Y-113919000D03*
X217598000Y-113919000D03*
X217598000Y-116840000D03*
X220298000Y-116840000D03*
X217598000Y-111125000D03*
X220298000Y-111125000D03*
D27*
X210820000Y-99330500D03*
X210820000Y-96630500D03*
D28*
X200660000Y-59944000D03*
D29*
X200660000Y-57404000D03*
X203200000Y-59944000D03*
X203200000Y-57404000D03*
X205740000Y-59944000D03*
X205740000Y-57404000D03*
X208280000Y-59944000D03*
X208280000Y-57404000D03*
X210820000Y-59944000D03*
X210820000Y-57404000D03*
X213360000Y-59944000D03*
X213360000Y-57404000D03*
X215900000Y-59944000D03*
X215900000Y-57404000D03*
M02*
