G04 #@! TF.FileFunction,Soldermask,Bot*
%FSLAX46Y46*%
G04 Gerber Fmt 4.6, Leading zero omitted, Abs format (unit mm)*
G04 Created by KiCad (PCBNEW (2015-04-22 BZR 5620)-product) date 26/04/2015 14:37:40*
%MOMM*%
G01*
G04 APERTURE LIST*
%ADD10C,0.100000*%
%ADD11O,2.032000X1.727200*%
%ADD12R,1.397000X1.397000*%
%ADD13C,1.397000*%
%ADD14R,2.286000X1.574800*%
%ADD15O,2.286000X1.574800*%
%ADD16O,1.727200X2.032000*%
%ADD17C,4.500000*%
%ADD18R,1.727200X1.727200*%
%ADD19O,1.727200X1.727200*%
G04 APERTURE END LIST*
D10*
D11*
X202565000Y-103632000D03*
X202565000Y-106172000D03*
X202565000Y-108712000D03*
X202565000Y-111252000D03*
X202565000Y-113792000D03*
X202565000Y-116332000D03*
X213995000Y-103632000D03*
X213995000Y-106172000D03*
X213995000Y-108712000D03*
X213995000Y-111252000D03*
X213995000Y-113792000D03*
X213995000Y-116332000D03*
D12*
X190246000Y-112268000D03*
D13*
X197866000Y-112268000D03*
D14*
X212090000Y-93980000D03*
D15*
X212090000Y-91440000D03*
X212090000Y-88900000D03*
X212090000Y-86360000D03*
X212090000Y-83820000D03*
X212090000Y-81280000D03*
X212090000Y-78740000D03*
X212090000Y-76200000D03*
X212090000Y-73660000D03*
X212090000Y-71120000D03*
X204470000Y-71120000D03*
X204470000Y-73660000D03*
X204470000Y-76200000D03*
X204470000Y-78740000D03*
X204470000Y-81280000D03*
X204470000Y-83820000D03*
X204470000Y-86360000D03*
X204470000Y-88900000D03*
X204470000Y-91440000D03*
X204470000Y-93980000D03*
D11*
X201930000Y-93980000D03*
X201930000Y-91440000D03*
X201930000Y-88900000D03*
X201930000Y-81280000D03*
X201930000Y-78740000D03*
X201930000Y-76200000D03*
X201930000Y-73660000D03*
X201930000Y-71120000D03*
D16*
X201930000Y-51371500D03*
X204470000Y-51371500D03*
X207010000Y-51371500D03*
D17*
X197970140Y-103378000D03*
X191970660Y-103378000D03*
X194970400Y-108077000D03*
D11*
X223520000Y-119253000D03*
X223520000Y-116713000D03*
X223520000Y-114173000D03*
X214630000Y-93980000D03*
X214630000Y-91440000D03*
X214630000Y-88900000D03*
X214630000Y-86360000D03*
X214630000Y-83820000D03*
X214630000Y-81280000D03*
X214630000Y-78740000D03*
X214630000Y-76200000D03*
X214630000Y-73660000D03*
X214630000Y-71120000D03*
D18*
X200660000Y-59944000D03*
D19*
X200660000Y-57404000D03*
X203200000Y-59944000D03*
X203200000Y-57404000D03*
X205740000Y-59944000D03*
X205740000Y-57404000D03*
X208280000Y-59944000D03*
X208280000Y-57404000D03*
X210820000Y-59944000D03*
X210820000Y-57404000D03*
X213360000Y-59944000D03*
X213360000Y-57404000D03*
X215900000Y-59944000D03*
X215900000Y-57404000D03*
M02*
